<svg width="111" height="153" viewBox="0 0 111 153" fill="none" xmlns="http://www.w3.org/2000/svg">
<g id="Group">
<g id="Group_2">
<g id="Group_3">
<g id="Group_4">
<path id="Vector" d="M32.6898 106.481C33.092 106.481 33.4678 106.494 33.8125 106.512C33.7285 105.919 33.618 105.026 33.5252 103.921L33.0434 103.7C29.2023 101.946 26.979 97.9542 27.5138 93.7639L27.9514 90.356C27.3061 89.6576 26.7845 88.862 26.3955 88C24.3445 88.5481 22.5897 89.8565 21.0559 91.9737C19.0934 94.6877 18.3199 97.7244 18.3154 97.7465C18.0105 99.0062 16.9364 99.9035 15.6457 99.9831C15.5838 99.9875 15.5219 99.9875 15.4644 99.9875C14.2533 99.9875 13.1527 99.2272 12.7195 98.0957C8.96239 88.1768 9.08616 80.3664 13.0997 74.8854C16.9717 69.5945 23.3456 67.9988 27.558 67.5435C28.6188 61.6161 30.051 55.7461 31.819 50.0662C34.1794 42.4414 37.1674 35.1393 40.6859 28.3632C43.1523 23.616 46.0608 19.3196 49.3273 15.5978C49.3317 15.5934 49.3361 15.589 49.3361 15.5846L49.3405 15.5801C50.5296 14.2276 51.7716 12.9457 53.0579 11.739C23.7478 13.0209 0.374023 37.1859 0.374023 66.8142C0.374023 84.4462 8.65298 100.142 21.5289 110.233C23.4915 108.527 25.9579 107.374 28.8619 106.825C30.0863 106.6 31.3726 106.481 32.6898 106.481Z" fill="#61AD00"/>
</g>
</g>
<g id="Group_5">
<g id="Group_6">
<path id="Vector_2" d="M98.0108 31.705C97.9533 33.6675 97.7898 35.6433 97.5157 37.6324L97.5113 37.6545L97.5025 37.7075C96.8262 42.5785 95.4957 47.5512 93.5376 52.4841C90.7264 59.5829 87.1681 66.6198 82.9601 73.4047C79.8263 78.4614 76.3299 83.3899 72.5507 88.0753C74.9685 91.5539 77.9388 97.415 76.4802 103.807C74.9685 110.428 69.1516 115.639 59.1974 119.299C58.8703 119.419 58.5299 119.48 58.1852 119.48C57.2746 119.48 56.4038 119.047 55.8513 118.327C55.0689 117.297 55.0468 115.9 55.7938 114.848C55.8557 114.76 57.6061 112.214 58.3575 108.991C58.9543 106.445 58.7907 104.262 57.8625 102.357C57.0359 102.604 56.174 102.732 55.312 102.732C55.2281 102.732 55.1441 102.732 55.0601 102.728L52.7705 105.292C50.9494 107.329 48.3503 108.496 45.6363 108.496C44.2528 108.496 42.9091 108.205 41.6405 107.626L41.1543 107.405C40.257 108.059 39.5144 108.558 39.0105 108.885C39.9122 109.822 41.0349 111.162 42.0118 112.833C43.5412 115.445 44.2882 118.132 44.2484 120.798C47.8818 121.549 51.6433 121.947 55.4977 121.947C85.9438 121.947 110.626 97.2648 110.626 66.8187C110.635 53.4742 105.896 41.2437 98.0108 31.705Z" fill="#61AD00"/>
</g>
</g>
</g>
<g id="Group_7">
<g id="Group_8">
<g id="Group_9">
<g id="Group_10">
<path id="Vector_3" d="M35.9861 109.849C35.9861 109.849 44.5745 116.727 40.0438 125.753C35.5176 134.779 24.7015 133.355 22.6063 137.948C24.7015 133.36 16.5419 126.12 20.3918 116.789C24.2418 107.458 35.0623 109.434 35.0623 109.434" fill="#705FF5"/>
</g>
</g>
<g id="Group_11">
<g id="Group_12">
<path id="Vector_4" d="M34.5366 111.798C32.6801 111.617 27.3141 111.564 25.2277 116.616C23.6497 120.444 24.9625 123.848 26.3505 127.45C26.5096 127.865 26.6731 128.281 26.8278 128.696C27.2433 128.542 27.6632 128.387 28.0832 128.237C31.7165 126.924 35.1466 125.691 37.003 121.987C39.4474 117.116 35.9157 113.107 34.5366 111.798Z" fill="#EFAF30"/>
</g>
</g>
<g id="Group_13">
<g id="Group_14">
<path id="Vector_5" d="M34.1521 112.647C33.131 112.545 30.1784 112.519 29.0291 115.299C28.1583 117.403 28.8832 119.277 29.6479 121.257C29.7363 121.487 29.8247 121.713 29.9087 121.943C30.1386 121.859 30.3684 121.775 30.5983 121.691C32.5962 120.97 34.4836 120.289 35.5046 118.252C36.8528 115.573 34.9123 113.367 34.1521 112.647Z" fill="#FFEC7B"/>
</g>
</g>
<g id="Group_15">
<g id="Group_16">
<path id="Vector_6" d="M22.607 139.115C22.4434 139.115 22.2799 139.08 22.1252 139.009C21.6964 138.814 21.4445 138.39 21.4445 137.948C21.4445 137.785 21.4798 137.621 21.5506 137.466C22.2224 135.99 21.3782 133.798 20.3969 131.256C18.841 127.225 16.905 122.203 19.3184 116.347C21.0511 112.148 24.4634 109.46 29.193 108.572C32.6717 107.918 35.6288 108.479 35.7525 108.501C35.9338 108.536 36.1061 108.616 36.2476 108.726C36.3493 108.806 38.7052 110.671 40.4909 113.726C42.9176 117.876 43.1254 122.217 41.0877 126.279C38.2455 131.941 33.1844 133.767 29.1179 135.234C26.5542 136.158 24.3397 136.958 23.6678 138.434C23.4733 138.859 23.049 139.115 22.607 139.115ZM32.6054 110.57C29.2903 110.57 23.8358 111.507 21.471 117.231C19.4112 122.226 21.0864 126.575 22.5672 130.412C23.186 132.012 23.7562 133.497 24.0037 134.889C25.2149 134.16 26.7133 133.621 28.3267 133.037C32.1943 131.641 36.5791 130.058 39.0014 125.231C42.6789 117.898 36.2918 111.843 35.0188 110.738C34.5856 110.671 33.7193 110.57 32.6054 110.57Z" fill="#000072"/>
</g>
</g>
<g id="Group_17">
<g id="Group_18">
<path id="Vector_7" d="M23.6717 138.43L16.0602 152.875C15.9231 153.131 15.5209 152.959 15.627 152.676L21.55 137.457C22.1998 135.968 24.3701 136.949 23.6717 138.43Z" fill="#000072"/>
</g>
</g>
</g>
<g id="Group_19">
<g id="Group_20">
<path id="Vector_8" d="M31.2748 70.3238C31.2748 70.3238 4.78035 68.8696 15.4595 97.0525C15.4595 97.0525 18.8055 83.1025 30.8239 84.9324L31.2748 70.3238Z" fill="#705FF5"/>
</g>
</g>
<g id="Group_21" opacity="0.6">
<g id="Group_22">
<path id="Vector_9" d="M31.1864 73.0556L31.2704 70.3195C31.2704 70.3195 4.77596 68.8653 15.4551 97.0483C15.4551 97.0483 15.4683 96.9908 15.4948 96.8891C8.69664 74.9917 26.4524 73.1617 31.1864 73.0556Z" fill="white"/>
</g>
</g>
<g id="Group_23">
<g id="Group_24">
<path id="Vector_10" d="M15.455 98.2151C14.9732 98.2151 14.5356 97.919 14.3633 97.4637C10.8315 88.1372 10.8802 80.8925 14.5135 75.9243C19.8619 68.6133 30.8681 69.1305 31.3322 69.157C31.9643 69.1924 32.455 69.7228 32.4329 70.3593L31.9776 84.9679C31.9688 85.2994 31.814 85.6132 31.5577 85.8298C31.3013 86.042 30.9654 86.1392 30.6339 86.0862C26.1386 85.4011 22.43 87.0321 19.61 90.9351C17.4132 93.9718 16.591 97.2957 16.5822 97.3267C16.4628 97.8217 16.0297 98.1842 15.5213 98.2151C15.5037 98.2151 15.4816 98.2151 15.455 98.2151ZM30.0681 71.4864C27.279 71.566 20.0653 72.282 16.3921 77.3122C13.656 81.0605 13.351 86.5061 15.4771 93.5165C15.9987 92.3363 16.7192 90.9661 17.6828 89.6223C20.7415 85.3569 24.87 83.3059 29.6924 83.6286L30.0681 71.4864Z" fill="#000072"/>
</g>
</g>
<g id="Group_25">
<g id="Group_26">
<path id="Vector_11" d="M68.0107 87.0895C68.0107 87.0895 86.4693 106.149 58.1847 116.554C58.1847 116.554 66.53 104.885 57.2742 97.0083L68.0107 87.0895Z" fill="#705FF5"/>
</g>
</g>
<g id="Group_27" opacity="0.3">
<g id="Group_28">
<path id="Vector_12" d="M58.8124 115.564C60.5672 112.594 64.9122 103.506 57.2742 97.004L64.784 90.0687C68.1787 94.5331 75.3968 106.945 58.8124 115.564Z" fill="#000072"/>
</g>
</g>
<g id="Group_29">
<g id="Group_30">
<path id="Vector_13" d="M58.1851 117.717C57.827 117.717 57.4823 117.553 57.2568 117.257C56.9474 116.851 56.9386 116.289 57.2347 115.874C57.2524 115.847 59.2238 113.045 60.0769 109.398C61.1731 104.708 59.9752 100.836 56.5143 97.8924C56.2623 97.6758 56.112 97.362 56.1032 97.0261C56.0943 96.6902 56.2314 96.3719 56.4789 96.1465L67.2155 86.2321C67.6796 85.8033 68.4045 85.821 68.8465 86.2763C69.1692 86.6122 76.7719 94.5862 74.7563 103.418C73.386 109.416 67.9448 114.203 58.5873 117.646C58.4547 117.695 58.3221 117.717 58.1851 117.717ZM58.994 97.004C62.3975 100.43 63.5512 104.894 62.3356 109.999C61.9511 111.604 61.3897 113.049 60.8416 114.216C67.5381 111.224 71.45 107.427 72.4843 102.896C73.8722 96.8095 69.6908 90.913 67.9227 88.756L58.994 97.004Z" fill="#000072"/>
</g>
</g>
<g id="Group_31">
<g id="Group_32">
<g id="Group_33">
<path id="Vector_14" d="M45.1277 88.6057L58.3572 94.6437L50.5866 103.338C48.6461 105.513 45.5167 106.167 42.8646 104.956L38.5638 102.993L34.2629 101.031C31.6108 99.8197 30.0549 97.0261 30.4262 94.1354L31.9026 82.5678L45.1277 88.6057Z" fill="#F5A75F"/>
</g>
</g>
<g id="Group_34" opacity="0.3">
<g id="Group_35">
<path id="Vector_15" d="M46.5332 89.2466L39.567 97.0394C37.6265 99.2141 34.4971 99.8683 31.845 98.6572L31.3411 98.4273C32.0173 99.5412 33.0163 100.456 34.2584 101.026L38.5592 102.989L42.86 104.951C45.5121 106.163 48.6416 105.504 50.582 103.334L58.3482 94.6392L46.5332 89.2466Z" fill="#000072"/>
</g>
</g>
<g id="Group_36">
<g id="Group_37">
<path id="Vector_16" d="M45.6406 106.733C44.5444 106.733 43.4305 106.498 42.3785 106.021L33.7725 102.092C30.6386 100.659 28.8263 97.4062 29.2639 93.9894L30.7403 82.4218C30.7889 82.055 31.0055 81.7323 31.3281 81.5511C31.6508 81.3698 32.0442 81.3566 32.3801 81.5113L45.6097 87.5492C45.6141 87.5492 45.6185 87.5536 45.6229 87.5536L58.8392 93.5827C59.1751 93.7374 59.4183 94.0424 59.4978 94.4049C59.573 94.7673 59.4713 95.1431 59.2282 95.4215L51.4576 104.116C49.9326 105.822 47.8109 106.733 45.6406 106.733ZM32.8531 84.2871L31.5757 94.2811C31.2707 96.6769 32.5393 98.9621 34.7405 99.9699L43.3466 103.899C45.5434 104.903 48.1071 104.368 49.716 102.565L56.4302 95.0502L44.6417 89.6709C44.6372 89.6709 44.6328 89.6665 44.6284 89.6665L32.8531 84.2871Z" fill="#000072"/>
</g>
</g>
</g>
<g id="Group_38">
<g id="Group_39">
<g id="Group_40">
<path id="Vector_17" d="M59.4801 98.1046C57.6987 99.8196 55.0555 100.275 52.8056 99.2494L32.0485 89.777C29.7987 88.7515 28.4108 86.453 28.5389 83.9866C29.0119 74.9827 31.4076 52.5946 43.2802 29.7159C45.7776 24.9111 48.5578 20.9109 51.4751 17.5825C62.5609 4.92319 75.5341 1.91306 81.6162 1.20583C83.8175 0.949463 85.9833 1.93958 87.2298 3.76953C90.6864 8.83061 96.9144 20.5971 94.6071 37.2611C94.0059 41.6503 92.8036 46.3754 90.8101 51.41C81.3156 75.3673 65.9688 91.8456 59.4801 98.1046Z" fill="white"/>
</g>
</g>
<g id="Group_41">
<g id="Group_42">
<path id="Vector_18" d="M94.607 37.2611C76.6744 12.8972 51.4839 17.5869 51.4839 17.5869C62.5608 4.92319 75.534 1.91306 81.6161 1.20583C83.8174 0.949463 85.9832 1.93958 87.2297 3.76952C90.6863 8.83061 96.9143 20.5971 94.607 37.2611Z" fill="#705FF5"/>
</g>
</g>
<g id="Group_43" opacity="0.6">
<g id="Group_44">
<path id="Vector_19" d="M86.8229 3.24354C86.3544 3.18165 85.877 3.17723 85.3952 3.2347C79.3086 3.94192 66.3399 6.95205 55.2585 19.6114C52.3412 22.9442 49.5609 26.9444 47.0636 31.7491C37.1624 50.8221 33.8517 69.5503 32.7467 80.4681C32.5257 82.6517 32.3975 84.517 32.3179 86.0154C32.2207 87.8631 32.9765 89.6179 34.3114 90.8157L32.8306 90.1394L32.0527 89.7814C29.8028 88.7559 28.4149 86.4574 28.5431 83.991C29.016 74.9871 31.4074 52.599 43.2843 29.7203C45.7817 24.92 48.562 20.9153 51.4837 17.5825C62.5606 4.9232 75.5338 1.91307 81.6159 1.20584C83.5962 0.975995 85.5455 1.75394 86.8229 3.24354Z" fill="white"/>
</g>
</g>
<g id="Group_45" opacity="0.3">
<g id="Group_46">
<path id="Vector_20" d="M91.1412 35.8334C90.54 40.2226 89.3378 44.9477 87.3443 49.9779C77.8453 73.9395 62.503 90.4223 56.0142 96.6768C54.5555 98.0825 52.5134 98.6438 50.5818 98.2327L34.3112 90.8069C32.9763 89.609 32.2204 87.8586 32.3177 86.0066C32.3973 84.5082 32.5254 82.6428 32.7464 80.4593L44.9549 86.0287C47.2092 87.0586 49.8525 86.6033 51.6338 84.8839C55.024 81.6129 60.8277 75.5617 66.9496 67.1016C73.1246 66.0054 78.4951 61.9344 81.1516 56.113C83.3661 51.2686 83.3926 45.9732 81.6599 41.3409C82.1064 40.3066 82.5395 39.2501 82.9639 38.1849C84.9574 33.1547 86.1552 28.4296 86.7608 24.0404C87.7067 17.2201 87.2205 11.2175 86.0757 6.16083C89.3643 12.3004 92.9888 22.5022 91.1412 35.8334Z" fill="#000072"/>
</g>
</g>
<g id="Group_47">
<g id="Group_48">
<path id="Vector_21" d="M94.6066 38.4325C94.2486 38.4325 93.895 38.269 93.6651 37.9596C84.648 25.7069 73.7346 21.132 66.1673 19.4524C57.937 17.6268 51.7531 18.723 51.6913 18.7363C51.0592 18.8512 50.4492 18.4357 50.3343 17.7992C50.2194 17.1671 50.6349 16.5571 51.2669 16.4422C51.5321 16.3936 57.8972 15.2488 66.5695 17.1539C74.5568 18.9087 86.0669 23.7001 95.5437 36.5805C95.9238 37.0976 95.8133 37.8314 95.2961 38.2115C95.0884 38.3574 94.8497 38.4325 94.6066 38.4325Z" fill="#000072"/>
</g>
</g>
<g id="Group_49">
<g id="Group_50">
<path id="Vector_22" d="M55.3161 100.969C54.3083 100.969 53.2872 100.752 52.3236 100.315L31.5666 90.8423C28.8658 89.609 27.2215 86.8951 27.3762 83.9247C27.8359 75.1949 30.2052 52.378 42.2501 29.181C54.5072 5.57738 73.7702 0.945057 81.4834 0.0477644C84.1222 -0.257227 86.6948 0.914116 88.1976 3.11093C92.5736 9.52459 101.697 27.108 91.8973 51.8344C82.2658 76.1364 66.5875 92.8755 60.2932 98.9444C58.9141 100.27 57.1328 100.969 55.3161 100.969ZM82.31 2.33299C82.1243 2.33299 81.9387 2.34183 81.753 2.36393C74.4112 3.21702 56.0631 7.6416 44.3231 30.2551C32.486 53.0499 30.1609 75.4645 29.7057 84.0485C29.5996 86.0552 30.709 87.8896 32.5346 88.7206L53.2916 98.193C55.1127 99.024 57.23 98.6615 58.6754 97.2692C64.8592 91.3064 80.2679 74.8545 89.7314 50.9813C99.1198 27.2936 90.4387 10.5368 86.2704 4.43256C85.3687 3.10209 83.888 2.33299 82.31 2.33299Z" fill="#000072"/>
</g>
</g>
</g>
<g id="Group_51">
<g id="Group_52">
<path id="Vector_23" d="M49.6401 78.7045C49.6401 78.7045 53.384 85.3745 50.1485 93.039C46.9129 100.704 36.8173 106.803 36.8173 106.803C36.8173 106.803 34.8105 95.1828 38.4792 87.7172C42.148 80.2515 49.6401 78.7045 49.6401 78.7045Z" fill="#705FF5"/>
</g>
</g>
<g id="Group_53" opacity="0.6">
<g id="Group_54">
<path id="Vector_24" d="M39.8141 90.7141C43.1602 83.8983 49.6932 82.0197 50.8071 81.7456C50.2855 79.8582 49.6401 78.709 49.6401 78.709C49.6401 78.709 42.148 80.2516 38.4792 87.7173C34.8105 95.1829 36.8173 106.804 36.8173 106.804C36.8173 106.804 37.162 106.596 37.7411 106.207C37.4449 102.176 37.4317 95.5675 39.8141 90.7141Z" fill="white"/>
</g>
</g>
<g id="Group_55">
<g id="Group_56">
<path id="Vector_25" d="M36.8225 107.966C36.6589 107.966 36.491 107.931 36.3362 107.86C35.9871 107.701 35.7351 107.378 35.6732 106.998C35.5892 106.507 33.6444 94.9131 37.4369 87.1955C41.3133 79.31 49.0796 77.6259 49.4067 77.5596C49.9017 77.4579 50.41 77.6878 50.6576 78.1298C50.8211 78.4215 54.6401 85.3921 51.2233 93.4854C47.8773 101.406 37.8479 107.537 37.4236 107.793C37.238 107.908 37.0302 107.966 36.8225 107.966ZM49.0088 80.0968C47.0286 80.751 42.1753 82.8461 39.532 88.2254C36.9109 93.565 37.3573 101.322 37.7374 104.797C40.6105 102.803 46.7678 98.0603 49.0796 92.5793C51.409 87.0585 49.8089 82.0195 49.0088 80.0968Z" fill="#000072"/>
</g>
</g>
<g id="Group_57">
<g id="Group_58">
<g id="Group_59">
<g id="Group_60">
<path id="Vector_26" d="M63.6038 64.0693C72.4189 64.0693 79.565 56.9232 79.565 48.1081C79.565 39.293 72.4189 32.1469 63.6038 32.1469C54.7886 32.1469 47.6426 39.293 47.6426 48.1081C47.6426 56.9232 54.7886 64.0693 63.6038 64.0693Z" fill="#F5A75F"/>
</g>
</g>
<g id="Group_61" opacity="0.6">
<g id="Group_62">
<path id="Vector_27" d="M51.0809 44.4836C54.7408 36.4654 64.2088 32.9293 72.2269 36.5892C74.4414 37.597 76.3112 39.0512 77.7831 40.7972C76.2006 37.7252 73.6149 35.1394 70.229 33.5923C62.2108 29.9324 52.7429 33.4686 49.083 41.4867C46.4353 47.2948 47.558 53.8543 51.4212 58.4248C49.2598 54.2256 48.968 49.1115 51.0809 44.4836Z" fill="white"/>
</g>
</g>
<g id="Group_63">
<g id="Group_64">
<path id="Vector_28" d="M63.5954 65.245C61.1731 65.245 58.7597 64.7234 56.4922 63.6891C52.3284 61.7884 49.1591 58.3849 47.5591 54.0974C45.959 49.8098 46.1225 45.1598 48.0232 40.996C51.9438 32.4032 62.1235 28.6063 70.7163 32.527C79.3091 36.4477 83.106 46.6273 79.1853 55.2201C77.2846 59.3839 73.8811 62.5531 69.5935 64.1532C67.6443 64.8826 65.6154 65.245 63.5954 65.245ZM63.6263 33.3138C58.0083 33.3138 52.6246 36.5272 50.1448 41.964C48.505 45.5576 48.3635 49.58 49.7426 53.2796C51.1261 56.9837 53.8666 59.9231 57.4602 61.563C61.0538 63.2029 65.0717 63.3443 68.7758 61.9653C72.4799 60.5817 75.4193 57.8412 77.0592 54.2477C80.445 46.8262 77.1653 38.0345 69.7438 34.6487C67.7636 33.747 65.6773 33.3138 63.6263 33.3138Z" fill="#000072"/>
</g>
</g>
</g>
<g id="Group_65">
<g id="Group_66">
<g id="Group_67">
<path id="Vector_29" d="M70.4093 54.916C74.1689 51.1564 74.1689 45.061 70.4093 41.3014C66.6497 37.5418 60.5542 37.5418 56.7946 41.3014C53.035 45.061 53.0351 51.1564 56.7946 54.916C60.5542 58.6756 66.6497 58.6756 70.4093 54.916Z" fill="#F5A75F"/>
</g>
</g>
<g id="Group_68" opacity="0.3">
<g id="Group_69">
<path id="Vector_30" d="M56.8451 47.7764C59.0508 42.9452 64.7704 40.8102 69.6017 43.0159C70.8835 43.5993 71.9753 44.4392 72.8461 45.4381C72.0902 42.8347 70.2514 40.5627 67.5994 39.3516C62.7681 37.1459 57.044 39.2853 54.8428 44.1121C53.225 47.6571 53.9499 51.6838 56.3589 54.4508C55.7401 52.3115 55.8506 49.9555 56.8451 47.7764Z" fill="#000072"/>
</g>
</g>
<g id="Group_70">
<g id="Group_71">
<path id="Vector_31" d="M63.5861 58.9063C62.0877 58.9063 60.5671 58.5925 59.1218 57.9339C56.5006 56.7404 54.5027 54.5922 53.4949 51.8871C52.4871 49.182 52.5888 46.2514 53.7822 43.6302C54.9756 41.0091 57.1238 39.0112 59.829 38.0034C62.5341 36.9956 65.4647 37.0972 68.0858 38.2907C73.5005 40.7616 75.8963 47.1796 73.4254 52.5943C71.6131 56.5592 67.688 58.9063 63.5861 58.9063ZM63.6171 39.6477C60.4036 39.6477 57.3228 41.4865 55.9039 44.5983C53.9678 48.8416 55.8464 53.8717 60.0898 55.8122C64.3331 57.7482 69.3633 55.8741 71.3037 51.6263C73.2397 47.383 71.3612 42.3528 67.1178 40.4124C65.9818 39.8908 64.7884 39.6477 63.6171 39.6477Z" fill="#000072"/>
</g>
</g>
</g>
</g>
</g>
<g id="Group_72">
<g id="Group_73">
<path id="Vector_32" d="M18.0591 56.7319C19.1553 56.6656 20.3531 56.4313 21.5775 55.9097C20.362 55.3926 19.1685 55.1583 18.0723 55.0876C18.0016 53.9914 17.7673 52.7979 17.2502 51.5824C16.733 52.8024 16.4988 54.0002 16.428 55.1008C14.3506 55.26 12.9229 55.9097 12.9229 55.9097C12.9229 55.9097 14.355 56.5595 16.4369 56.7186C16.596 58.8005 17.2458 60.2326 17.2458 60.2326C17.2458 60.2326 17.8955 58.8094 18.0591 56.7319Z" fill="white"/>
</g>
</g>
<g id="Group_74">
<g id="Group_75">
<path id="Vector_33" d="M84.6885 93.671C85.7847 93.6047 86.9825 93.3705 88.2069 92.8489C86.9914 92.3317 85.7979 92.0975 84.7017 92.0267C84.631 90.9305 84.3967 89.7371 83.8796 88.5215C83.3624 89.7415 83.1282 90.9394 83.0574 92.04C80.98 92.1991 79.5522 92.8489 79.5522 92.8489C79.5522 92.8489 80.9844 93.4986 83.0663 93.6578C83.2254 95.7397 83.8752 97.1718 83.8752 97.1718C83.8752 97.1718 84.5249 95.7485 84.6885 93.671Z" fill="white"/>
</g>
</g>
<g id="Group_76">
<g id="Group_77">
<path id="Vector_34" d="M99.8674 63.477C100.566 63.4328 101.33 63.2826 102.113 62.951C101.335 62.6195 100.575 62.4737 99.8762 62.4295C99.832 61.7311 99.6817 60.9708 99.3546 60.1929C99.0231 60.9708 98.8728 61.7355 98.8286 62.4383C97.5026 62.54 96.592 62.9555 96.592 62.9555C96.592 62.9555 97.507 63.371 98.8331 63.4726C98.9347 64.8031 99.3502 65.7181 99.3502 65.7181C99.3502 65.7181 99.7657 64.8031 99.8674 63.477Z" fill="white"/>
</g>
</g>
<g id="Group_78">
<g id="Group_79">
<path id="Vector_35" d="M35.488 24.2657C36.1864 24.2215 36.9511 24.0713 37.7334 23.7397C36.9555 23.4082 36.1952 23.2624 35.4968 23.2182C35.4526 22.5198 35.3023 21.7595 34.9752 20.9816C34.6437 21.7595 34.4934 22.5242 34.4492 23.227C33.1232 23.3287 32.2126 23.7442 32.2126 23.7442C32.2126 23.7442 33.1276 24.1597 34.4537 24.2613C34.5553 25.5918 34.9708 26.5068 34.9708 26.5068C34.9708 26.5068 35.3819 25.5918 35.488 24.2657Z" fill="white"/>
</g>
</g>
</g>
</svg>
