<svg width="625" height="471" viewBox="0 0 625 471" fill="none" xmlns="http://www.w3.org/2000/svg">
<g clip-path="url(#clip0_85_288)">
<g clip-path="url(#clip1_85_288)">
<path d="M458.326 323.239C447.831 232.165 321.697 207.565 313.73 162.011C309.654 138.669 305.414 111.87 290.709 92.4189C276.691 73.8884 256.782 60.7265 237.404 53.858C168.21 29.3193 113.44 76.819 97.3904 148.347C75.9898 243.757 114.46 367.73 206.723 409.001C254.975 430.583 308.777 433.575 355.762 425.038L356.817 424.843C403.85 416.099 466.335 392.77 458.326 323.239Z" fill="url(#paint0_linear_85_288)"/>
<mask id="mask0_85_288" style="mask-type:luminance" maskUnits="userSpaceOnUse" x="91" y="47" width="369" height="383">
<path d="M458.326 323.239C447.831 232.165 321.697 207.565 313.73 162.011C309.654 138.669 305.414 111.87 290.709 92.4189C276.691 73.8884 256.782 60.7265 237.404 53.858C168.21 29.3193 113.44 76.819 97.3904 148.347C75.9898 243.757 114.46 367.73 206.723 409.001C254.975 430.583 308.777 433.575 355.762 425.038L356.817 424.843C403.85 416.099 466.335 392.77 458.326 323.239Z" fill="white"/>
</mask>
<g mask="url(#mask0_85_288)">
<path d="M0.00933838 398.779L87.881 430.545H149.273L172.844 437.785L238.294 435.775L290.415 396.764L269.641 376.393L253.557 356.016L250.337 353.604L241.493 341.004L236.28 344.761L231.573 352.533L219.647 339.392L202.889 336.717L199.405 332.692L187.341 328.672L159.997 283.905L147.397 274.252L132.921 276.664L130.237 280.689L107.985 305.348L105.309 317.953L39.0932 351.997L0.00933838 398.779Z" fill="#6981C0"/>
<path d="M258.342 428.937H445.121L408.773 398.195H393.644L389.14 394.149L377.24 387.666L363.084 403.494L347.32 394.167H326.421L318.057 382.595L277.858 376.406L269.641 369.325L262.604 367.48C262.604 367.48 248.487 421.636 258.342 428.937Z" fill="#8095CC"/>
<path d="M232.541 435.952L225.141 422.5L223.888 388.725L214.953 371.028L212.831 362.453L205.167 344.756L202.889 336.717L209.861 342.076L210.129 348.513L228.716 357.624L220.724 373.445L228.716 387.653L236.933 411.508L247.121 417.275L256.777 412.585L258.342 428.937L232.541 435.952Z" fill="#3B52A1"/>
<path d="M172.844 437.785L174.573 419.63L181.553 411.521C181.553 411.521 181.951 394.832 181.553 392.723C181.156 390.613 173.401 380.291 173.401 380.291L161.666 341.272L168.244 331.071L160.429 321.432L154.663 310.172L156.695 302.132L154.253 293.034L148.292 279.634L159.997 283.922L164.795 305.37L170.324 313.95L171.149 324.117L181.584 336.717L188.335 349.031L202.902 358.696L206.823 376.388L214.966 382.556L225.154 422.5L232.528 435.948L172.844 437.785Z" fill="#224797"/>
<path d="M149.273 430.545L173.418 380.278L181.571 392.71V411.508L174.59 419.622L172.848 437.785L149.273 430.545Z" fill="#4864AB"/>
<path d="M158.942 410.41L161.069 377.733L153.293 358.562L154.365 342.612L151.417 334.573L160.429 321.437L168.244 331.084L161.67 341.272L173.418 380.279L158.942 410.41Z" fill="#5079BC"/>
<path d="M111.205 430.545L104.769 373.445L114.153 350.121L113.081 336.717L115.493 321.437L119.249 304.008L127.825 294.897L105.305 317.948L108.015 336.717L79.3008 351.461L77.9609 373.445L47.133 385.509L61.073 425.941L90.4917 430.545H111.205Z" fill="#204183"/>
<path d="M214.953 371.028L202.889 358.701L198.584 345.292L188.322 339.392L187.341 328.672L199.405 332.692L202.889 336.716L205.167 344.756L212.831 362.453L214.953 371.028Z" fill="#8095CC"/>
<path d="M269.641 376.393L253.557 356.016L258.917 371.028L269.641 376.393Z" fill="#8095CC"/>
<path d="M253.557 356.016L250.337 353.604L249.537 355.212L253.557 356.016Z" fill="#8095CC"/>
<path d="M236.28 344.761L238.541 345.029L240.287 347.307L250.337 353.604L241.493 341.004L236.28 344.761Z" fill="#8095CC"/>
<path d="M231.573 352.533L228.716 357.624L219.107 341.942L202.889 336.717L219.647 339.392L231.573 352.533Z" fill="#8095CC"/>
<path d="M187.341 328.672L180.235 324.385L173.418 315.134L172.731 310.311L166.295 302.534L159.997 283.905L187.341 328.672Z" fill="#8095CC"/>
<path d="M159.997 283.905L147.397 274.252L148.292 279.612L159.997 283.905Z" fill="#8095CC"/>
<path d="M132.921 276.664L143.641 279.076L147.397 274.252L132.921 276.664Z" fill="#8095CC"/>
<path d="M148.292 279.612L141.229 286.852L140.157 302.802L142.971 309.507L148.292 279.612Z" fill="#8095CC"/>
<path d="M127.825 294.897L138.147 283.905L127.825 289.398L119.249 304.008L127.825 294.897Z" fill="#8095CC"/>
<path d="M132.921 276.664V280.818L130.237 280.689L128.698 283.905L107.985 305.348L132.921 276.664Z" fill="#8095CC"/>
<path d="M106.554 326.58L68.6805 336.781L105.305 317.948L106.554 326.58Z" fill="#8095CC"/>
<path d="M142.971 309.507L151.417 334.573L141.765 330.012L138.147 312.32L140.157 302.802L142.971 309.507Z" fill="#5977B1"/>
<path d="M154.253 293.016L151.417 305.348L154.663 310.177L156.695 302.132L154.253 293.016Z" fill="#5977B1"/>
<path d="M138.147 283.905L141.229 286.852L140.157 302.802L131.477 291.006L138.147 283.905Z" fill="#5977B1"/>
<path d="M173.418 315.134L164.799 305.348L166.295 302.534L172.731 310.311L173.418 315.134Z" fill="#5977B1"/>
<path d="M143.641 279.076L132.921 283.905V276.664L143.641 279.076Z" fill="#5977B1"/>
<path d="M127.825 289.398L107.985 305.348L112.813 306.286L127.825 289.398Z" fill="#5977B1"/>
<path d="M138.147 312.32L120.451 324.471V363.792L138.147 341.004L141.765 330.012L138.147 312.32Z" fill="#8095CC"/>
<path d="M266.291 389.347L258.917 371.028L247.121 417.274L258.342 411.547L266.291 389.347Z" fill="#4864AB"/>
<path d="M241.938 430.544L236.933 411.508L228.716 387.653L214.953 371.028L223.888 388.725L225.141 422.5L232.541 435.952L241.938 430.544Z" fill="#204183"/>
<path d="M153.293 358.562L141.229 346.9L151.953 378.134L147.263 406.282L155.178 418.256L158.942 410.41L161.069 377.733L153.293 358.562Z" fill="#5977B1"/>
<path d="M240.287 347.307L220.724 373.445L236.28 344.761L238.541 345.029L240.287 347.307Z" fill="#5977B1"/>
<path d="M249.537 355.212L243.309 364.687L246.421 351.149L250.337 353.604L249.537 355.212Z" fill="#5977B1"/>
<path d="M247.121 417.274L243.309 364.687L236.933 411.508L247.121 417.274Z" fill="#5977B1"/>
<path d="M141.765 330.012L141.229 346.9L120.451 363.792L138.147 341.004L141.765 330.012Z" fill="#204183"/>
<path d="M140.023 430.544L125.547 390.7L120.451 363.792L117.905 394.154L124.341 430.544H140.023Z" fill="#8095CC"/>
<path d="M201.147 436.916L181.571 411.508L174.59 419.622L172.848 437.785L201.147 436.916Z" fill="#6981C0"/>
<path d="M188.322 349.031L206.81 376.393L202.889 358.701L188.322 349.031Z" fill="#204183"/>
<path d="M155.178 418.256L151.953 378.135L147.263 406.282L155.178 418.256Z" fill="#204183"/>
<path d="M228.716 387.653L240.287 347.307L220.724 373.445L228.716 387.653Z" fill="#204183"/>
<path opacity="0.38" d="M253.557 430.545L247.121 417.275L240.512 385.241L240.287 347.307L220.724 373.445L228.716 387.653L242.029 432.096L253.557 430.545Z" fill="#224797"/>
<path d="M266.291 389.347L294.093 420.797L312.909 428.937H258.342L256.777 412.585L258.342 411.547L266.291 389.347Z" fill="#204183"/>
<path d="M269.641 376.393L295.113 398.208L297.685 410.272L266.291 389.347L258.917 371.028L269.641 376.393Z" fill="#204183"/>
<path d="M445.121 428.937L413.277 419.868L377.889 416.678L398.693 428.937H445.121Z" fill="#204183"/>
<path d="M326.421 394.154L348.297 410.272L377.889 416.678L363.093 403.481L347.329 394.154H326.421Z" fill="#204183"/>
<path d="M377.889 416.678L353.013 419.868L324.921 424.649L309.481 408.781L297.685 410.272L312.909 428.937H398.693L377.889 416.678Z" fill="#204183"/>
<path d="M413.277 419.868L393.653 398.195V418.256L413.277 419.868Z" fill="#204183"/>
<path opacity="0.38" d="M309.481 408.781L318.057 382.578L295.113 398.208L297.685 410.272L309.481 408.781Z" fill="#224797"/>
<path d="M312.909 428.937L297.685 410.272L266.291 389.347L294.093 420.797L312.909 428.937Z" fill="#3B52A1"/>
<path d="M377.889 416.678L348.297 410.272L326.421 394.154L318.057 382.578L309.481 408.781L324.921 424.649L377.889 416.678Z" fill="#3B52A1"/>
<path d="M305.721 390.981L269.641 376.393L295.113 398.208L305.721 390.981Z" fill="#3B52A1"/>
<path d="M445.121 428.937L424.641 416.678L393.653 398.195L413.277 419.868L445.121 428.937Z" fill="#3B52A1"/>
<path d="M393.653 418.256L386.469 403.611L377.249 387.653L380.465 407.285L377.889 416.678L393.653 418.256Z" fill="#3B52A1"/>
<path opacity="0.72" d="M218.766 423.486L201.147 404.662L197.568 390.981L187.341 381.636L172.848 348.647L173.233 334.573L168.244 331.084L161.67 341.272L173.418 380.278L181.571 392.71V411.508L201.147 436.916L232.541 435.952L218.766 423.486Z" fill="#1E2350"/>
<path opacity="0.72" d="M173.233 334.573L180.633 341.004L193.457 368.357L173.055 341.004L173.233 334.573Z" fill="#1E2350"/>
<path d="M228.716 387.653L232.541 435.952L225.141 422.5L223.888 388.725L214.953 371.028L228.716 387.653Z" fill="#1E2350"/>
<path d="M312.909 428.937L287.683 423.136L266.291 389.347L258.917 371.028L256.777 412.585L258.342 428.937H312.909Z" fill="#1E2350"/>
<path d="M445.121 428.937L408.116 424.649L393.653 398.195V418.256L391.401 423.529L377.889 416.678L357.945 406.641L348.297 410.272L363.495 418.861L334.785 423.162L322.989 411.508L326.421 394.154L309.481 408.781L324.921 424.649L297.685 410.272L312.909 428.937H445.121Z" fill="#1E2350"/>
<path d="M295.113 398.208L269.641 376.393L300.495 394.538L295.113 398.208Z" fill="#1E2350"/>
<path d="M220.724 373.445L212.061 354.81L225.599 363.793L220.724 373.445Z" fill="#204183"/>
<path d="M149.273 430.545H142.837L140.559 428.937L134.17 414.43L125.547 390.7L136.738 367.397L141.229 346.9L151.953 378.134L147.263 406.282L155.178 418.256L149.273 430.545Z" fill="#1E2350"/>
<path d="M140.157 302.802L127.825 308.046L120.451 324.471L138.147 312.32L140.157 302.802Z" fill="#224797"/>
<path d="M120.451 363.792L110.574 382.154L114.079 407.281L109.952 419.414L115.225 420.339L120.451 416.069L121.804 416.185L117.905 394.154L120.451 363.792Z" fill="#204183"/>
<path d="M119.249 304.008L111.538 323.032L113.081 336.717L109.952 339.708V346.9L96.3573 364.687L95.977 379.323L91.9743 397.214L93.7811 396.769L98.203 400.547L98.873 403.469L102.94 404.662L104.367 407.281L102.94 410.821L107.185 415.463L108.015 419.414L115.225 420.339L109.952 417.179L106.874 406.343L107.73 399.717L106.792 375.999L104.769 373.445L114.153 350.121L113.47 338.057L114.836 333.298L113.388 322.245L119.249 304.008Z" fill="#1E2350"/>
<path opacity="0.66" d="M159.997 283.905L168.262 302.098L187.341 328.672L159.997 283.905Z" fill="#CAEAF2"/>
<path opacity="0.66" d="M187.341 328.672L191.741 335.541L197.106 336.716L198.822 340.978L201.147 341.004L206.81 356.557L214.953 371.028L212.831 362.453L205.167 344.756L202.889 336.716L199.405 332.692L187.341 328.672Z" fill="#CAEAF2"/>
<path opacity="0.66" d="M250.337 353.604L240.287 347.307L238.541 345.029L241.493 341.004L250.337 353.604Z" fill="#CAEAF2"/>
<path opacity="0.66" d="M318.057 382.578L305.721 390.981L277.88 376.393L318.057 382.578Z" fill="#CAEAF2"/>
<path opacity="0.66" d="M262.604 367.48H259.833L253.557 356.016L262.604 367.48Z" fill="#CAEAF2"/>
<path opacity="0.66" d="M277.88 376.393L271.897 374.015L262.604 367.48L269.641 369.325L277.88 376.393Z" fill="#CAEAF2"/>
<path opacity="0.66" d="M250.337 353.604L245.677 366.205L247.121 417.275L243.309 364.687L250.337 353.604Z" fill="#CAEAF2"/>
<path opacity="0.66" d="M228.716 357.624L219.107 341.942L202.889 336.717L219.647 339.392L231.573 352.533L228.716 357.624Z" fill="#CAEAF2"/>
<path opacity="0.66" d="M377.249 387.653L373.869 402.954L369.036 408.781L363.093 403.481L377.249 387.653Z" fill="#CAEAF2"/>
<path opacity="0.66" d="M393.653 398.195V418.256L389.611 402.954V397.473L377.249 387.653L389.149 394.154L393.653 398.195Z" fill="#CAEAF2"/>
<path opacity="0.66" d="M445.121 428.937L410.178 404.553L408.449 399.985L393.653 398.195H408.773L445.121 428.937Z" fill="#CAEAF2"/>
<path opacity="0.66" d="M326.421 394.154L337.681 397.313L363.495 418.861L348.297 410.272L326.421 394.154Z" fill="#CAEAF2"/>
<path opacity="0.66" d="M318.057 382.578L309.481 399.985L297.685 410.272L304.065 399.985L318.057 382.578Z" fill="#CAEAF2"/>
<path opacity="0.66" d="M258.917 371.028L278.299 388.725L297.685 410.272L271.413 387.298L258.917 371.028Z" fill="#CAEAF2"/>
<path opacity="0.66" d="M225.141 422.5L214.153 398.921L210.453 382.578L199.518 375.169L188.322 349.031L206.81 376.393L214.953 382.556L225.141 422.5Z" fill="#CAEAF2"/>
<path opacity="0.66" d="M148.292 279.612L155.178 288.767L158.826 301.596L157.862 309.507L163.166 321.437L168.244 331.084L160.429 321.437L154.663 310.177L156.695 302.132L154.054 294.897L148.292 279.612Z" fill="#CAEAF2"/>
<path opacity="0.66" d="M140.157 302.802L141.765 316.699L151.417 334.573L141.765 330.012L138.147 312.32L140.157 302.802Z" fill="#CAEAF2"/>
<path opacity="0.66" d="M147.397 274.252L144.782 281.415L132.921 283.905L143.641 279.076L147.397 274.252Z" fill="#CAEAF2"/>
<path d="M159.997 283.905L149.978 277.97L147.397 274.252L159.997 283.905Z" fill="#CAEAF2"/>
<path opacity="0.66" d="M127.825 319.409L120.451 363.792V324.471L127.825 319.409Z" fill="#CAEAF2"/>
<path opacity="0.66" d="M141.229 346.9L151.417 365.668L151.953 378.134L141.229 346.9Z" fill="#CAEAF2"/>
<path opacity="0.66" d="M107.985 305.348V312.32L105.305 317.948L107.985 305.348Z" fill="#CAEAF2"/>
<path d="M340.646 411.271L391.842 429.779H427.615L441.347 433.998L479.484 432.827L509.85 410.099L497.747 398.225L488.376 386.356L486.5 384.951L481.347 377.607L478.309 379.799L475.564 384.324L468.618 376.669L458.853 375.109L456.822 372.766L449.793 370.423L433.861 344.341L426.521 338.718L418.088 340.123L416.523 342.465L403.56 356.833L402 364.177L363.417 384.013L340.646 411.271Z" fill="#6981C0"/>
<path d="M476.13 432.931L471.816 425.094L471.09 405.414L465.881 395.105L464.645 390.103L460.18 379.794L458.853 375.109L462.912 378.234L463.072 381.982L473.9 387.294L469.244 396.509L473.9 404.787L478.689 418.688L484.624 422.047L490.252 419.315L491.164 428.841L476.13 432.931Z" fill="#3B52A1"/>
<path d="M441.347 433.998L442.363 423.412L446.43 418.688C446.43 418.688 446.664 408.962 446.43 407.735C446.197 406.507 441.676 400.49 441.676 400.49L434.82 377.754L438.65 371.819L434.094 366.2L430.735 359.643L431.92 354.957L430.498 349.658L427.04 341.847L433.861 344.346L436.657 356.842L439.877 361.843L440.353 367.778L446.43 375.126L450.368 382.301L458.853 387.921L461.135 398.23L465.89 401.822L471.825 425.098L476.147 432.931L441.347 433.998Z" fill="#224797"/>
<path d="M427.615 429.779L441.684 400.49L446.435 407.735V418.688L442.363 423.412L441.347 433.998L427.615 429.779Z" fill="#4864AB"/>
<path d="M433.251 418.048L434.487 399.008L429.957 387.838L430.58 378.545L428.864 373.86L434.111 366.209L438.667 371.832L434.837 377.767L441.684 400.49L433.251 418.048Z" fill="#5079BC"/>
<path d="M405.436 429.779L401.684 396.509L407.152 382.919L406.525 375.109L407.934 366.209L410.117 356.055L415.118 350.743L402 364.177L403.573 375.109L386.845 383.702L386.067 396.509L368.103 403.538L376.225 427.095L393.368 429.779H405.436Z" fill="#204183"/>
<path d="M386.845 383.702L375.81 400.257L386.067 396.509L386.845 383.702Z" fill="#4864AB"/>
<path d="M363.417 384.013L365.133 393.933L342.41 409.161L363.417 384.013Z" fill="#4864AB"/>
<path d="M365.133 393.933L375.81 400.257L355.347 400.49L365.133 393.933Z" fill="#3B52A1"/>
<path d="M365.133 393.933L381.325 381.043L386.845 383.702L375.81 400.257L365.133 393.933Z" fill="#254A9A"/>
<path d="M465.882 395.105L458.853 387.921L456.346 380.11L450.368 376.669L449.793 370.423L456.822 372.766L458.853 375.109L460.18 379.794L464.645 390.103L465.882 395.105Z" fill="#8095CC"/>
<path d="M475.564 384.324L473.9 387.294L468.302 378.156L458.853 375.109L468.618 376.669L475.564 384.324Z" fill="#8095CC"/>
<path d="M449.793 370.423L445.652 367.925L441.684 362.535L441.282 359.725L437.53 355.195L433.861 344.341L449.793 370.423Z" fill="#8095CC"/>
<path d="M433.861 344.341L426.521 338.718L427.04 341.839L433.861 344.341Z" fill="#8095CC"/>
<path d="M418.088 340.123L424.334 341.528L426.521 338.718L418.088 340.123Z" fill="#8095CC"/>
<path d="M427.04 341.839L422.929 346.057L422.302 355.351L423.945 359.254L427.04 341.839Z" fill="#8095CC"/>
<path d="M415.118 350.743L421.131 344.341L415.118 347.54L410.117 356.055L415.118 350.743Z" fill="#8095CC"/>
<path d="M418.088 340.123V342.543L416.523 342.465L415.624 344.341L403.56 356.833L418.088 340.123Z" fill="#8095CC"/>
<path d="M402.721 369.204L380.655 375.148L402 364.177L402.721 369.204Z" fill="#8095CC"/>
<path d="M380.655 375.148L372.477 382.997L363.417 384.013L380.655 375.148Z" fill="#8095CC"/>
<path d="M423.945 359.254L428.864 373.86L423.24 371.206L421.131 360.896L422.302 355.351L423.945 359.254Z" fill="#5977B1"/>
<path d="M430.515 349.649L428.864 356.833L430.753 359.647L431.937 354.962L430.515 349.649Z" fill="#5977B1"/>
<path d="M421.131 344.341L422.929 346.057L422.302 355.351L417.245 348.478L421.131 344.341Z" fill="#5977B1"/>
<path d="M441.684 362.535L436.657 356.833L437.53 355.195L441.282 359.725L441.684 362.535Z" fill="#5977B1"/>
<path d="M424.334 341.527L418.088 344.341V340.123L424.334 341.527Z" fill="#5977B1"/>
<path d="M415.118 347.54L403.56 356.833L406.37 357.382L415.118 347.54Z" fill="#5977B1"/>
<path d="M421.131 360.896L410.822 367.977V390.886L421.131 377.607L423.24 371.206L421.131 360.896Z" fill="#8095CC"/>
<path d="M429.957 387.838L422.929 381.043L429.175 399.241L426.443 415.645L431.055 422.621L433.251 418.048L434.487 399.008L429.957 387.838Z" fill="#5977B1"/>
<path d="M423.24 371.206L422.929 381.043L410.822 390.886L421.131 377.607L423.24 371.206Z" fill="#204183"/>
<path d="M422.224 429.779L413.791 406.563L410.822 390.886L409.339 408.578L413.087 429.779H422.224Z" fill="#8095CC"/>
<path d="M457.837 433.492L446.435 418.688L442.363 423.412L441.347 433.998L457.837 433.492Z" fill="#6981C0"/>
<path d="M450.368 382.284L461.135 398.225L458.853 387.921L450.368 382.284Z" fill="#204183"/>
<path d="M431.055 422.621L429.175 399.241L426.443 415.645L431.055 422.621Z" fill="#204183"/>
<path d="M364.135 388.154L344.58 406.563L363.417 384.013L364.135 388.154Z" fill="#8095CC"/>
<path opacity="0.72" d="M468.103 425.664L457.837 414.698L455.754 406.728L449.793 401.286L441.347 382.059L441.572 373.86L438.667 371.832L434.837 377.767L441.684 400.49L446.435 407.735V418.688L457.837 433.492L476.13 432.93L468.103 425.664Z" fill="#1E2350"/>
<path opacity="0.72" d="M441.572 373.86L445.886 377.607L453.359 393.548L441.472 377.607L441.572 373.86Z" fill="#1E2350"/>
<path d="M427.615 429.779H423.867L422.536 428.841L418.814 420.391L413.791 406.563L420.31 392.986L422.929 381.043L429.175 399.241L426.443 415.645L431.055 422.621L427.615 429.779Z" fill="#1E2350"/>
<path d="M422.302 355.351L415.118 358.407L410.822 367.977L421.131 360.896L422.302 355.351Z" fill="#224797"/>
<path d="M410.822 390.886L405.064 401.584L407.109 416.224L404.701 423.296L407.779 423.832L410.822 421.346L411.608 421.411L409.339 408.578L410.822 390.886Z" fill="#204183"/>
<path d="M410.117 356.055L405.626 367.138L406.525 375.109L404.701 376.855V381.044L396.782 391.405L396.562 399.933L394.228 410.359L395.282 410.099L397.859 412.299L398.248 414.002L400.621 414.698L401.451 416.224L400.621 418.286L403.089 420.992L403.573 423.296L407.779 423.832L404.701 421.99L402.912 415.68L403.409 411.815L402.864 397.996L401.684 396.509L407.152 382.919L406.754 375.891L407.55 373.12L406.707 366.68L410.117 356.055Z" fill="#1E2350"/>
<path opacity="0.66" d="M433.861 344.341L438.676 354.94L449.793 370.423L433.861 344.341Z" fill="#CAEAF2"/>
<path opacity="0.66" d="M449.793 370.423L452.361 374.426L455.482 375.109L456.484 377.594L457.837 377.607L461.135 386.671L465.882 395.105L464.645 390.103L460.18 379.794L458.853 375.109L456.822 372.766L449.793 370.423Z" fill="#CAEAF2"/>
<path opacity="0.66" d="M473.9 387.294L468.302 378.156L458.853 375.109L468.618 376.669L475.564 384.324L473.9 387.294Z" fill="#CAEAF2"/>
<path opacity="0.66" d="M471.816 425.094L465.415 411.353L463.262 401.83L456.891 397.516L450.368 382.284L461.135 398.225L465.882 401.822L471.816 425.094Z" fill="#CAEAF2"/>
<path opacity="0.66" d="M427.04 341.839L431.055 347.173L433.178 354.65L432.616 359.254L435.711 366.209L438.667 371.832L434.111 366.209L430.753 359.647L431.937 354.962L430.403 350.743L427.04 341.839Z" fill="#CAEAF2"/>
<path opacity="0.66" d="M422.302 355.351L423.24 363.451L428.864 373.86L423.24 371.206L421.131 360.896L422.302 355.351Z" fill="#CAEAF2"/>
<path opacity="0.66" d="M426.521 338.718L425 342.889L418.088 344.341L424.334 341.528L426.521 338.718Z" fill="#CAEAF2"/>
<path d="M433.861 344.341L428.025 340.883L426.521 338.718L433.861 344.341Z" fill="#CAEAF2"/>
<path opacity="0.66" d="M415.118 365.029L410.822 390.886V367.977L415.118 365.029Z" fill="#CAEAF2"/>
<path opacity="0.66" d="M422.929 381.043L428.864 391.979L429.175 399.241L422.929 381.043Z" fill="#CAEAF2"/>
<path opacity="0.66" d="M403.56 356.833V360.896L402 364.177L403.56 356.833Z" fill="#CAEAF2"/>
</g>
<path d="M447.195 357.058C449.24 265.422 327.649 223.805 325.98 177.589C325.116 153.923 324.588 126.774 312.68 105.507C301.325 85.2349 283.4 69.4795 265.133 60.0263C199.937 26.2677 139.189 65.84 113.526 134.507C79.2965 226.104 100.477 354.166 186.235 407.648C231.085 435.619 283.974 445.937 331.69 443.897L332.758 443.845C380.543 441.61 445.626 427.03 447.195 357.058Z" stroke="#5D3B7F" stroke-width="0.324186" stroke-miterlimit="10"/>
<path d="M216.103 175.35C216.275 175.35 216.44 175.282 216.561 175.16C216.683 175.038 216.751 174.873 216.751 174.702C216.751 174.53 216.683 174.365 216.561 174.243C216.44 174.121 216.275 174.053 216.103 174.053C215.931 174.053 215.766 174.121 215.644 174.243C215.523 174.365 215.455 174.53 215.455 174.702C215.455 174.873 215.523 175.038 215.644 175.16C215.766 175.282 215.931 175.35 216.103 175.35Z" fill="white"/>
<path d="M186.005 127.95C186.12 127.95 186.23 127.904 186.311 127.823C186.392 127.742 186.438 127.632 186.438 127.517C186.438 127.403 186.392 127.293 186.311 127.212C186.23 127.131 186.12 127.085 186.005 127.085C185.891 127.085 185.781 127.131 185.7 127.212C185.619 127.293 185.573 127.403 185.573 127.517C185.573 127.632 185.619 127.742 185.7 127.823C185.781 127.904 185.891 127.95 186.005 127.95Z" fill="white"/>
<path d="M192.031 262.465C192.146 262.465 192.256 262.42 192.337 262.338C192.418 262.257 192.463 262.147 192.463 262.033C192.463 261.918 192.418 261.808 192.337 261.727C192.256 261.646 192.146 261.601 192.031 261.601C191.916 261.601 191.806 261.646 191.725 261.727C191.644 261.808 191.599 261.918 191.599 262.033C191.599 262.147 191.644 262.257 191.725 262.338C191.806 262.42 191.916 262.465 192.031 262.465Z" fill="white"/>
<path d="M160.481 105.516C180.675 105.516 197.045 89.1438 197.045 68.9478C197.045 48.7518 180.675 32.3796 160.481 32.3796C140.288 32.3796 123.917 48.7518 123.917 68.9478C123.917 89.1438 140.288 105.516 160.481 105.516Z" fill="white"/>
<path opacity="0.05" d="M160.481 120.45C188.923 120.45 211.979 97.3917 211.979 68.9478C211.979 40.5039 188.923 17.4455 160.481 17.4455C132.04 17.4455 108.983 40.5039 108.983 68.9478C108.983 97.3917 132.04 120.45 160.481 120.45Z" fill="white"/>
<path opacity="0.15" d="M160.481 112.951C184.781 112.951 204.48 93.2499 204.48 68.9478C204.48 44.6457 184.781 24.945 160.481 24.945C136.182 24.945 116.483 44.6457 116.483 68.9478C116.483 93.2499 136.182 112.951 160.481 112.951Z" fill="white"/>
<path opacity="0.08" d="M160.481 130.068C194.234 130.068 221.597 102.703 221.597 68.9478C221.597 35.1923 194.234 7.828 160.481 7.828C126.728 7.828 99.3658 35.1923 99.3658 68.9478C99.3658 102.703 126.728 130.068 160.481 130.068Z" fill="white"/>
<path opacity="0.08" d="M160.481 137.896C198.555 137.896 229.42 107.027 229.42 68.9478C229.42 30.869 198.555 0 160.481 0C122.407 0 91.5421 30.869 91.5421 68.9478C91.5421 107.027 122.407 137.896 160.481 137.896Z" fill="white"/>
<path d="M140.494 99.5682C132.377 94.2678 126.695 85.9632 124.695 76.4775L137.546 85.2608L140.494 99.5682Z" fill="#CCC8BC"/>
<path d="M165.837 94.3769L154.689 105.053C149.624 104.245 144.787 102.376 140.494 99.5682L137.546 85.2651L165.837 94.3769Z" fill="#E8E5DA"/>
<path d="M194.352 82.7408C191.612 89.4677 186.93 95.226 180.903 99.2815C174.877 103.337 167.78 105.506 160.516 105.512C158.564 105.517 156.616 105.364 154.689 105.053L165.837 94.3769L194.352 82.7408Z" fill="#F3EFE4"/>
<path d="M132.567 56.9184L123.922 68.9824C123.899 61.0626 126.461 53.3517 131.218 47.0199L132.567 56.9184Z" fill="#CCC8BC"/>
<path d="M177.784 42.9481H181.212L187 46.9594L179.068 44.9581L177.784 42.9481Z" fill="#F3EFE4"/>
<path d="M181.221 52.3711L177.806 66.5142L192.377 68.9175L194.335 64.7852L192.58 56.646L181.221 52.3711Z" fill="#F3EFE4"/>
<path d="M149.502 40.8344L153.358 38.2626L155.497 38.2582L149.502 40.8344Z" fill="#F3EFE4"/>
<path d="M160.464 51.1089L167.086 56.4559L164.946 62.2436L161.73 59.2482L160.464 51.1089Z" fill="#E8E5DA"/>
<path d="M142.673 68.9651L149.528 67.1843L155.532 71.8914L142.673 68.9651Z" fill="#CCC8BC"/>
<path d="M497.319 303.874L475.101 312.273L442.013 316.219L414.85 308.318L395.097 309.8L408.803 303.874L417.318 295.48L438.676 288.076L465.877 293.008L476.303 301.406L497.319 303.874Z" fill="#FFFEF5"/>
<path d="M475.101 312.273L442.013 316.219L414.85 308.318L395.097 309.8L416.661 303.874L441.351 306.84L448.19 311.447L463.353 305.521L475.101 312.273Z" fill="#CCC8BC"/>
<path d="M463.353 305.521L497.319 303.874L475.101 312.273L463.353 305.521Z" fill="#E8E5DA"/>
<path d="M408.803 303.874H416.661L395.097 309.8L408.803 303.874Z" fill="#E8E5DA"/>
<path d="M441.351 306.84L458.801 301.406L463.353 305.521L448.19 311.447L441.351 306.84Z" fill="#F3EFE4"/>
<path d="M476.303 301.406L463.353 298.938L472.326 298.199L476.303 301.406Z" fill="#E8E5DA"/>
<path d="M133.289 85.7795C133.461 85.7795 133.625 85.7112 133.747 85.5896C133.869 85.468 133.937 85.3031 133.937 85.1312C133.937 84.9592 133.869 84.7943 133.747 84.6727C133.625 84.5511 133.461 84.4828 133.289 84.4828C133.117 84.4828 132.952 84.5511 132.83 84.6727C132.709 84.7943 132.64 84.9592 132.64 85.1312C132.64 85.3031 132.709 85.468 132.83 85.5896C132.952 85.7112 133.117 85.7795 133.289 85.7795Z" fill="white"/>
<path d="M151.612 173.128C151.783 173.128 151.948 173.06 152.07 172.938C152.192 172.817 152.26 172.652 152.26 172.48C152.26 172.308 152.192 172.143 152.07 172.021C151.948 171.9 151.783 171.831 151.612 171.831C151.44 171.831 151.275 171.9 151.153 172.021C151.031 172.143 150.963 172.308 150.963 172.48C150.963 172.652 151.031 172.817 151.153 172.938C151.275 173.06 151.44 173.128 151.612 173.128Z" fill="white"/>
<path d="M91.1358 179.85C91.3078 179.85 91.4727 179.781 91.5943 179.66C91.7158 179.538 91.7842 179.373 91.7842 179.201C91.7842 179.029 91.7158 178.864 91.5943 178.743C91.4727 178.621 91.3078 178.553 91.1358 178.553C90.9638 178.553 90.7989 178.621 90.6773 178.743C90.5557 178.864 90.4874 179.029 90.4874 179.201C90.4874 179.373 90.5557 179.538 90.6773 179.66C90.7989 179.781 90.9638 179.85 91.1358 179.85Z" fill="white"/>
<path d="M270.134 35.0769C270.306 35.0769 270.471 35.0086 270.592 34.887C270.714 34.7654 270.782 34.6005 270.782 34.4285C270.782 34.2566 270.714 34.0916 270.592 33.9701C270.471 33.8485 270.306 33.7802 270.134 33.7802C269.962 33.7802 269.797 33.8485 269.675 33.9701C269.554 34.0916 269.485 34.2566 269.485 34.4285C269.485 34.6005 269.554 34.7654 269.675 34.887C269.797 35.0086 269.962 35.0769 270.134 35.0769Z" fill="white"/>
<path d="M196.219 202.452C196.391 202.452 196.556 202.383 196.678 202.262C196.8 202.14 196.868 201.975 196.868 201.803C196.868 201.631 196.8 201.467 196.678 201.345C196.556 201.223 196.391 201.155 196.219 201.155C196.048 201.155 195.883 201.223 195.761 201.345C195.639 201.467 195.571 201.631 195.571 201.803C195.571 201.975 195.639 202.14 195.761 202.262C195.883 202.383 196.048 202.452 196.219 202.452Z" fill="white"/>
<path d="M150.401 77.0092C150.516 77.0092 150.626 76.9637 150.707 76.8826C150.788 76.8015 150.833 76.6916 150.833 76.577C150.833 76.4623 150.788 76.3524 150.707 76.2713C150.626 76.1903 150.516 76.1447 150.401 76.1447C150.287 76.1447 150.177 76.1903 150.096 76.2713C150.015 76.3524 149.969 76.4623 149.969 76.577C149.969 76.6916 150.015 76.8015 150.096 76.8826C150.177 76.9637 150.287 77.0092 150.401 77.0092Z" fill="white"/>
<path d="M136.34 161.306C136.455 161.306 136.565 161.261 136.646 161.18C136.727 161.098 136.772 160.989 136.772 160.874C136.772 160.759 136.727 160.649 136.646 160.568C136.565 160.487 136.455 160.442 136.34 160.442C136.226 160.442 136.116 160.487 136.035 160.568C135.954 160.649 135.908 160.759 135.908 160.874C135.908 160.989 135.954 161.098 136.035 161.18C136.116 161.261 136.226 161.306 136.34 161.306Z" fill="white"/>
<path d="M99.69 216.897C99.8046 216.897 99.9145 216.852 99.9956 216.771C100.077 216.69 100.122 216.58 100.122 216.465C100.122 216.351 100.077 216.241 99.9956 216.16C99.9145 216.079 99.8046 216.033 99.69 216.033C99.5753 216.033 99.4654 216.079 99.3843 216.16C99.3033 216.241 99.2577 216.351 99.2577 216.465C99.2577 216.58 99.3033 216.69 99.3843 216.771C99.4654 216.852 99.5753 216.897 99.69 216.897Z" fill="white"/>
<path d="M205.366 229.113C205.48 229.113 205.59 229.067 205.672 228.986C205.753 228.905 205.798 228.795 205.798 228.681C205.798 228.566 205.753 228.456 205.672 228.375C205.59 228.294 205.48 228.248 205.366 228.248C205.251 228.248 205.141 228.294 205.06 228.375C204.979 228.456 204.934 228.566 204.934 228.681C204.934 228.795 204.979 228.905 205.06 228.986C205.141 229.067 205.251 229.113 205.366 229.113Z" fill="white"/>
<path d="M195.593 39.7365C195.707 39.7365 195.817 39.691 195.898 39.6099C195.979 39.5288 196.025 39.4189 196.025 39.3043C196.025 39.1896 195.979 39.0797 195.898 38.9986C195.817 38.9175 195.707 38.872 195.593 38.872C195.478 38.872 195.368 38.9175 195.287 38.9986C195.206 39.0797 195.16 39.1896 195.16 39.3043C195.16 39.4189 195.206 39.5288 195.287 39.6099C195.368 39.691 195.478 39.7365 195.593 39.7365Z" fill="white"/>
<path d="M180.265 74.6621C180.38 74.6621 180.49 74.6166 180.571 74.5355C180.652 74.4544 180.697 74.3445 180.697 74.2299C180.697 74.1152 180.652 74.0053 180.571 73.9242C180.49 73.8431 180.38 73.7976 180.265 73.7976C180.151 73.7976 180.041 73.8431 179.96 73.9242C179.879 74.0053 179.833 74.1152 179.833 74.2299C179.833 74.3445 179.879 74.4544 179.96 74.5355C180.041 74.6166 180.151 74.6621 180.265 74.6621Z" fill="white"/>
<path d="M111.905 152.756C112.02 152.756 112.13 152.711 112.211 152.63C112.292 152.549 112.338 152.439 112.338 152.324C112.338 152.209 112.292 152.1 112.211 152.018C112.13 151.937 112.02 151.892 111.905 151.892C111.791 151.892 111.681 151.937 111.6 152.018C111.519 152.1 111.473 152.209 111.473 152.324C111.473 152.439 111.519 152.549 111.6 152.63C111.681 152.711 111.791 152.756 111.905 152.756Z" fill="white"/>
<path d="M140.771 254.948L120.027 259.072L102.02 256.344L67.9284 264.185L41.7904 259.072L32.7046 249.645L52.4583 243.839L64.4186 245.854L86.2168 243.839L118.251 252.454L140.771 254.948Z" fill="#FFFEF5"/>
<path d="M72.9338 258.298L102.02 256.344L67.9284 264.185L41.7904 259.072L32.7046 249.645L48.9787 255.683L72.9338 258.298Z" fill="#CCC8BC"/>
<path d="M140.771 254.948L120.027 259.072L102.02 256.344L114.801 255.03L140.771 254.948Z" fill="#CCC8BC"/>
<path d="M118.251 252.454L102.02 254.01L82.6248 251.114L103.247 248.417L118.251 252.454Z" fill="#E8E5DA"/>
<path d="M256.367 129.54C256.539 129.54 256.704 129.472 256.825 129.35C256.947 129.229 257.015 129.064 257.015 128.892C257.015 128.72 256.947 128.555 256.825 128.433C256.704 128.312 256.539 128.244 256.367 128.244C256.195 128.244 256.03 128.312 255.908 128.433C255.787 128.555 255.718 128.72 255.718 128.892C255.718 129.064 255.787 129.229 255.908 129.35C256.03 129.472 256.195 129.54 256.367 129.54Z" fill="white"/>
<path d="M174.222 211.27C174.394 211.27 174.559 211.201 174.681 211.08C174.802 210.958 174.871 210.793 174.871 210.621C174.871 210.449 174.802 210.284 174.681 210.163C174.559 210.041 174.394 209.973 174.222 209.973C174.05 209.973 173.886 210.041 173.764 210.163C173.642 210.284 173.574 210.449 173.574 210.621C173.574 210.793 173.642 210.958 173.764 211.08C173.886 211.201 174.05 211.27 174.222 211.27Z" fill="white"/>
<path d="M237.78 277.283C237.952 277.283 238.117 277.214 238.239 277.093C238.36 276.971 238.428 276.806 238.428 276.634C238.428 276.462 238.36 276.297 238.239 276.176C238.117 276.054 237.952 275.986 237.78 275.986C237.608 275.986 237.443 276.054 237.322 276.176C237.2 276.297 237.132 276.462 237.132 276.634C237.132 276.806 237.2 276.971 237.322 277.093C237.443 277.214 237.608 277.283 237.78 277.283Z" fill="white"/>
<path d="M281.805 263.736C281.976 263.736 282.141 263.668 282.263 263.546C282.385 263.424 282.453 263.259 282.453 263.087C282.453 262.915 282.385 262.751 282.263 262.629C282.141 262.507 281.976 262.439 281.805 262.439C281.633 262.439 281.468 262.507 281.346 262.629C281.224 262.751 281.156 262.915 281.156 263.087C281.156 263.259 281.224 263.424 281.346 263.546C281.468 263.668 281.633 263.736 281.805 263.736Z" fill="white"/>
<path d="M295.636 285.435C295.751 285.435 295.861 285.389 295.942 285.308C296.023 285.227 296.069 285.117 296.069 285.002C296.069 284.888 296.023 284.778 295.942 284.697C295.861 284.616 295.751 284.57 295.636 284.57C295.522 284.57 295.412 284.616 295.331 284.697C295.25 284.778 295.204 284.888 295.204 285.002C295.204 285.117 295.25 285.227 295.331 285.308C295.412 285.389 295.522 285.435 295.636 285.435Z" fill="white"/>
<path d="M165.746 166.32C165.861 166.32 165.971 166.275 166.052 166.194C166.133 166.113 166.178 166.003 166.178 165.888C166.178 165.773 166.133 165.663 166.052 165.582C165.971 165.501 165.861 165.456 165.746 165.456C165.631 165.456 165.521 165.501 165.44 165.582C165.359 165.663 165.314 165.773 165.314 165.888C165.314 166.003 165.359 166.113 165.44 166.194C165.521 166.275 165.631 166.32 165.746 166.32Z" fill="white"/>
<path d="M238.039 133.292C238.154 133.292 238.264 133.247 238.345 133.166C238.426 133.085 238.472 132.975 238.472 132.86C238.472 132.745 238.426 132.635 238.345 132.554C238.264 132.473 238.154 132.428 238.039 132.428C237.925 132.428 237.815 132.473 237.734 132.554C237.653 132.635 237.607 132.745 237.607 132.86C237.607 132.975 237.653 133.085 237.734 133.166C237.815 133.247 237.925 133.292 238.039 133.292Z" fill="white"/>
<path d="M267.973 387.117L267.216 387.882L263.629 391.513L262.09 393.064L261.74 393.419L259.008 396.181H258.9L257.132 396.298L245.344 397.102H245.111L243.14 397.24L233.25 397.914L242.064 402.669L232.861 404.7L218.887 407.778H218.804L217.832 408.011L215.554 408.513L208.504 410.069L192.736 407.596L193.375 410.972C193.293 410.933 193.215 410.89 193.133 410.843L192.874 410.704L191.145 409.766C190.401 409.363 189.661 408.952 188.923 408.534C188.188 408.102 187.458 407.705 186.723 407.277C186.066 406.896 185.426 406.512 184.752 406.123L184.54 405.993C183.814 405.561 183.092 405.128 182.379 404.696C181.666 404.264 180.94 403.81 180.218 403.36C179.589 402.966 178.967 402.569 178.35 402.172C176.316 400.864 174.306 399.518 172.321 398.135L170.976 397.205L186.442 392.636L186.118 370.207L189.74 368.729L195.908 366.226L196.042 366.17L196.133 366.135L196.271 366.079L196.41 366.019L198.938 364.99L199.401 364.8L204.29 362.824L219.704 356.574L237.361 372.999L241.93 377.253L242.976 378.225L243.088 378.333L244.938 378.986L248.21 380.136L250.916 381.091L266.438 386.563L266.516 386.589H266.546L267.973 387.117Z" fill="#1A3C6B"/>
<path d="M328.016 401.459L322.436 402.569L303.871 406.283L303.14 418.878L299.116 419.587L273.838 424.005L271.072 424.489L266.676 425.301L264.264 425.734L262.358 427.817L261.247 429.032L257.91 432.689C257.27 432.589 256.613 432.481 255.999 432.373L255.053 432.213C254.404 432.096 253.756 431.98 253.108 431.854C252.459 431.729 251.811 431.621 251.201 431.491L251.024 431.457C250.389 431.336 249.762 431.21 249.14 431.076C248.275 430.9 247.411 430.717 246.546 430.527C245.893 430.385 245.249 430.233 244.597 430.095C244.411 430.056 244.221 430.013 244.039 429.965C243.512 429.853 242.997 429.728 242.474 429.598C242.432 429.591 242.39 429.581 242.349 429.568C240.559 429.135 238.783 428.703 237.015 428.215L235.485 427.783C234.875 427.618 234.275 427.445 233.665 427.272C232.991 427.082 232.312 426.883 231.642 426.685L229.745 426.105L228.098 425.595C224.225 424.368 220.404 423.032 216.635 421.588C215.831 421.281 215.035 420.97 214.24 420.65C213.514 420.365 212.783 420.071 212.079 419.786C209.791 418.852 207.527 417.877 205.288 416.86C204.856 416.678 204.467 416.488 204.06 416.302L203.486 416.03C203.027 415.818 202.569 415.597 202.111 415.386L201.999 415.334C201.082 414.902 200.17 414.469 199.258 414.015L197.689 413.233C196.263 412.516 194.841 411.776 193.431 411.029L192.792 407.653L208.56 410.125L215.61 408.569L217.832 408.012L218.791 407.804H218.874L232.848 404.726L242.051 402.695L233.237 397.94L243.127 397.266L245.098 397.128H245.331L257.119 396.324L258.887 396.207H258.995L261.727 393.445L262.077 393.09L263.616 391.539L267.203 387.908L267.96 387.143L269.071 387.376L270.821 387.739H270.86L271.5 387.869L271.846 387.942L300.555 393.946L301.117 394.063L310.251 396.583L318.463 398.844L321.355 399.639L324.191 400.421L328.016 401.459Z" fill="#4269AF"/>
<path d="M299.933 410.661L299.63 410.726L295.593 411.56L273.039 416.224L271.547 416.531L270.488 416.752L269.395 416.981L267.38 417.413L266.896 417.512L264.692 417.966L263.144 416.929L262.362 416.41L261.541 415.861L259.444 414.461L257.815 413.371L256.375 412.407L254.059 410.856L246.792 412.286L227.341 416.22L213.319 414.327L221.817 418.1L201.994 415.312C201.078 414.88 200.166 414.448 199.254 413.994L197.685 413.211C196.258 412.494 194.836 411.755 193.427 411.007L192.787 407.631L208.556 410.104L215.606 408.547L217.832 408.012L218.791 407.804H218.874L232.848 404.726L242.051 402.695L233.237 397.94L243.127 397.266L245.098 397.128H245.331L257.119 396.324L258.887 396.207H258.995L261.727 393.445L262.077 393.09L263.616 391.539L267.203 387.908L267.96 387.143L269.213 387.692L270.903 388.435L271.677 388.776L285.077 394.646L282.237 396.747L281.243 397.495L279.717 398.636L277.914 399.998L271.495 404.83L271.383 404.921L270.475 405.6L269.498 406.339L270.618 406.079L270.778 406.04L271.668 405.833L281.722 403.507L295.74 409.014L299.63 410.544L299.933 410.661Z" fill="#718DC5"/>
<path d="M154.603 257.978L165.642 260.887L150.626 242.487L154.603 257.978Z" fill="#A2DBE0"/>
<path d="M195.908 366.23L234.538 349.952L219.976 349.109L215.796 350.817L195.908 366.23Z" fill="#A2DBE0"/>
<path d="M219.704 356.561L267.955 387.117L234.538 349.952L219.704 356.561Z" fill="#A2DBE0"/>
<path d="M219.077 412.464L208.495 410.086L203.3 396.95L218.809 406.507L219.077 412.464Z" fill="#1A3C6B"/>
<path d="M245.617 400.05L233.229 397.936L246.295 397.205L245.617 400.05Z" fill="#1A3C6B"/>
<path d="M271.158 393.816L252.498 392.278L270.73 384.986L271.158 393.816Z" fill="#1A3C6B"/>
<path d="M262.626 414.979L237.715 410.748L232.835 404.722L242.046 402.691L262.946 409.451L262.626 414.979Z" fill="#1A3C6B"/>
<path d="M303.33 415.623L303.14 418.857L299.116 419.565L273.838 424.005L271.072 424.489L266.676 425.301L264.264 425.734L262.358 427.817L261.247 429.032L257.91 432.688C257.27 432.589 256.613 432.481 255.999 432.373L255.053 432.213L255.883 431.348L260.707 426.429L261.644 425.474L264.286 422.781L266.343 422.401L267.934 422.111L268.945 421.921L271.833 421.389L273.026 421.173L295.286 417.089L299.315 416.349L303.33 415.623Z" fill="#1A3C6B"/>
<path d="M328.016 401.463L303.871 406.261L304 403.974L324.251 400.426L328.016 401.463Z" fill="#1A3C6B"/>
<path d="M217.689 412.386L209.144 397.011L217.374 378.614L222.911 390.536L217.689 412.386Z" fill="#385F60"/>
<path d="M218.411 409.356L211.059 392.727L209.144 397.011L217.689 412.386L218.411 409.356Z" fill="#0B233B"/>
<path opacity="0.55" d="M212.148 395.191L218.303 380.62L217.374 378.614L211.059 392.727L212.148 395.191Z" fill="#77C4CA"/>
<path opacity="0.72" d="M215.463 382.327L221.973 394.473L222.911 390.536L217.374 378.614L215.463 382.327Z" fill="#A2DBE0"/>
<path d="M244.636 399.993L237.508 387.173L244.372 371.837L248.988 381.778L244.636 399.993Z" fill="#385F60"/>
<path d="M245.241 397.465L239.107 383.603L237.508 387.173L244.636 399.993L245.241 397.465Z" fill="#0B233B"/>
<path opacity="0.55" d="M240.015 385.656L245.15 373.509L244.372 371.837L239.107 383.602L240.015 385.656Z" fill="#77C4CA"/>
<path opacity="0.72" d="M242.777 374.932L248.206 385.059L248.988 381.778L244.372 371.837L242.777 374.932Z" fill="#A2DBE0"/>
<path d="M261.653 414.923L254.521 402.09L261.389 386.741L266.015 396.691L261.653 414.923Z" fill="#385F60"/>
<path d="M262.258 412.394L256.12 398.515L254.521 402.09L261.653 414.923L262.258 412.394Z" fill="#0B233B"/>
<path opacity="0.55" d="M257.028 400.573L262.168 388.413L261.389 386.741L256.12 398.515L257.028 400.573Z" fill="#77C4CA"/>
<path opacity="0.72" d="M259.794 389.836L265.228 399.972L266.015 396.691L261.389 386.741L259.794 389.836Z" fill="#A2DBE0"/>
<path d="M270.467 393.778L264.502 383.041L270.246 370.198L274.115 378.524L270.467 393.778Z" fill="#385F60"/>
<path d="M270.972 391.659L265.837 380.049L264.502 383.04L270.467 393.778L270.972 391.659Z" fill="#0B233B"/>
<path opacity="0.55" d="M266.598 381.77L270.899 371.599L270.246 370.198L265.837 380.049L266.598 381.77Z" fill="#77C4CA"/>
<path opacity="0.72" d="M268.911 372.792L273.458 381.268L274.115 378.524L270.246 370.198L268.911 372.792Z" fill="#A2DBE0"/>
<path d="M285.055 394.62L324.251 400.426L301.165 394.067L271.504 387.86L285.055 394.62Z" fill="#2F5896"/>
<path d="M343.002 418.567L342.942 418.835L342.423 420.996L340.884 427.432L340.335 429.715L340.244 430.112V430.156L340.084 429.793C339.652 429.905 339.185 430.009 338.736 430.108L337.651 428.15L336.968 426.931L334.547 422.57L335.209 421.087L335.727 419.933L336.047 419.22L336.7 417.746L338.515 413.696L338.736 413.199L339.051 412.498L339.609 411.253L339.682 411.422L340.184 412.49L340.365 412.874L340.798 413.83L342.449 417.374L343.002 418.567Z" fill="#385F60"/>
<path d="M340.063 429.775C339.631 429.887 339.164 429.991 338.714 430.091L337.629 428.133L336.946 426.914L334.526 422.552L335.187 421.07L335.706 419.916L336.026 420.642L336.376 421.433L337.815 424.696L337.88 424.835L338.464 426.131L340.063 429.775Z" fill="#0B233B"/>
<path opacity="0.55" d="M336.376 421.433L340.167 412.464L339.592 411.227L335.706 419.916L336.376 421.433Z" fill="#77C4CA"/>
<path opacity="0.72" d="M338.416 413.514L342.423 420.992L343.002 418.567L339.592 411.227L338.416 413.514Z" fill="#A2DBE0"/>
<path d="M329.568 426.723L324.307 417.257L329.373 405.932L332.784 413.276L329.568 426.723Z" fill="#385F60"/>
<path d="M330.013 424.861L325.487 414.621L324.307 417.257L329.568 426.724L330.013 424.861Z" fill="#0B233B"/>
<path opacity="0.55" d="M326.157 416.138L329.948 407.169L329.373 405.932L325.487 414.621L326.157 416.138Z" fill="#77C4CA"/>
<path opacity="0.72" d="M328.198 408.219L332.205 415.697L332.784 413.276L329.373 405.932L328.198 408.219Z" fill="#A2DBE0"/>
<path d="M332.153 422.846L331.574 425.271L331.357 426.166L330.683 428.98L329.987 431.902C329.46 432.006 328.924 432.101 328.392 432.196L326.806 432.472L323.733 426.901L323.694 426.832L324.874 424.195L326.339 420.905L326.871 419.73L327.303 418.74L327.649 417.962L328.742 415.52L329.313 416.752L331.042 420.503L331.375 421.225L332.153 422.846Z" fill="#385F60"/>
<path d="M328.392 432.217L326.806 432.494L323.733 426.901L323.694 426.832L324.874 424.195L326.425 427.705L328.392 432.217Z" fill="#0B233B"/>
<path opacity="0.55" d="M325.526 425.712L329.317 416.743L328.742 415.507L324.852 424.195L325.526 425.712Z" fill="#77C4CA"/>
<path opacity="0.72" d="M327.567 417.789L331.574 425.267L332.153 422.846L328.742 415.507L327.567 417.789Z" fill="#A2DBE0"/>
<path d="M335.17 430.877H335.178L334.872 431.552L335.17 430.877Z" fill="#385F60"/>
<path d="M341.783 429.365L340.335 429.71L340.244 430.108V430.151L340.084 429.788C339.652 429.9 339.185 430.004 338.736 430.104C338.631 430.134 338.524 430.158 338.416 430.177L337.443 430.398C337.171 430.462 336.899 430.523 336.622 430.575L336.518 430.83L336.363 430.635L335.196 430.89L335.697 429.771L336.968 426.927L337.69 425.319L337.902 424.847L338.766 422.876L339.341 424.108L340.888 427.437L341.783 429.365Z" fill="#385F60"/>
<path opacity="0.55" d="M339.337 424.095L338.472 426.153L338.321 426.512L337.638 428.133L336.609 430.562L336.505 430.817L336.35 430.622L335.183 430.877L335.684 429.758L336.955 426.914L337.677 425.306L337.889 424.835L338.753 422.864L339.337 424.095Z" fill="#77C4CA"/>
<path opacity="0.72" d="M341.783 429.365L340.335 429.71L340.244 430.108L340.071 429.792L338.342 426.529L337.698 425.323L337.612 425.163L337.845 424.731L338.792 422.898L339.367 424.13L340.914 427.458L341.783 429.365Z" fill="#A2DBE0"/>
<path d="M380.232 416.847L380.266 417.141L380.188 417.119L380.232 416.847Z" fill="#2D768E"/>
<path d="M380.232 416.847L380.266 417.141L380.188 417.119L380.232 416.847Z" fill="#1A3C6B"/>
<path d="M380.266 417.141L380.188 417.119L380.232 416.847L380.266 417.141Z" fill="#1A3C6B"/>
<path d="M329.853 397.205L348.565 397.828L331.297 388.483L329.853 397.205Z" fill="#1A3C6B"/>
<path d="M336.341 430.622L335.174 430.877L334.872 431.552L335.17 430.877C334.798 430.955 334.426 431.033 334.059 431.102L333.03 429.68L330.683 428.98L326.404 427.683L323.733 426.901L299.138 419.552L295.204 418.385L295.39 415.152L299.311 416.35L303.227 417.551L324.869 424.169L326.032 424.523L328.833 425.388L329.81 425.69L331.357 426.162L333.359 426.775L335.676 429.754L336.341 430.622Z" fill="#1A3C6B"/>
<path d="M272.494 398.256L295.926 405.803L296.06 403.512L276.35 397.659L272.494 398.256Z" fill="#1A3C6B"/>
<path d="M355.49 406.395L364.044 394.478L358.991 378.454L353.259 387.8L355.49 406.395Z" fill="#385F60"/>
<path d="M355.179 403.814L362.868 390.748L364.044 394.478L355.49 406.395L355.179 403.814Z" fill="#0B233B"/>
<path opacity="0.55" d="M361.727 392.684L358.027 380.028L358.991 378.454L362.868 390.747L361.727 392.684Z" fill="#77C4CA"/>
<path opacity="0.72" d="M360.219 381.714L353.661 391.145L353.259 387.8L358.991 378.454L360.219 381.714Z" fill="#A2DBE0"/>
<path d="M336.864 419.267L345.427 407.341L340.37 391.301L334.634 400.655L336.864 419.267Z" fill="#385F60"/>
<path d="M336.553 416.687L344.251 403.607L345.427 407.342L336.864 419.267L336.553 416.687Z" fill="#0B233B"/>
<path opacity="0.55" d="M343.11 405.543L339.406 392.874L340.37 391.301L344.251 403.607L343.11 405.543Z" fill="#77C4CA"/>
<path opacity="0.72" d="M341.597 394.56L335.036 404.005L334.634 400.655L340.37 391.301L341.597 394.56Z" fill="#A2DBE0"/>
<path d="M330.545 397.244L337.707 387.268L333.475 373.851L328.677 381.675L330.545 397.244Z" fill="#385F60"/>
<path d="M330.285 395.087L336.722 384.143L337.707 387.268L330.545 397.244L330.285 395.087Z" fill="#0B233B"/>
<path opacity="0.55" d="M335.766 385.764L332.667 375.165L333.475 373.851L336.722 384.143L335.766 385.764Z" fill="#77C4CA"/>
<path opacity="0.72" d="M334.504 376.578L329.01 384.48L328.677 381.675L333.475 373.851L334.504 376.578Z" fill="#A2DBE0"/>
<path d="M315.956 396.406L276.35 397.659L300.015 393.998L330.195 391.249L315.956 396.406Z" fill="#2F5896"/>
<path d="M257.283 427.255L263.598 418.455L259.868 406.624L255.636 413.523L257.283 427.255Z" fill="#385F60"/>
<path d="M257.054 425.349L262.729 415.701L263.598 418.455L257.283 427.255L257.054 425.349Z" fill="#0B233B"/>
<path opacity="0.55" d="M261.887 417.132L259.155 407.782L259.868 406.624L262.729 415.701L261.887 417.132Z" fill="#77C4CA"/>
<path opacity="0.72" d="M260.771 409.027L255.93 415.995L255.636 413.523L259.868 406.624L260.771 409.027Z" fill="#A2DBE0"/>
<path d="M268.042 423.17L274.357 414.374L270.627 402.539L266.395 409.438L268.042 423.17Z" fill="#385F60"/>
<path d="M267.813 421.269L273.488 411.616L274.357 414.374L268.042 423.17L267.813 421.269Z" fill="#0B233B"/>
<path opacity="0.55" d="M272.65 413.047L269.913 403.702L270.627 402.539L273.488 411.617L272.65 413.047Z" fill="#77C4CA"/>
<path opacity="0.72" d="M271.534 404.947L266.693 411.915L266.395 409.438L270.627 402.539L271.534 404.947Z" fill="#A2DBE0"/>
<path d="M267.566 432.753L273.886 423.957L270.155 412.122L265.919 419.021L267.566 432.753Z" fill="#385F60"/>
<path d="M267.341 430.847L273.017 421.199L273.886 423.957L267.566 432.753L267.341 430.847Z" fill="#0B233B"/>
<path opacity="0.55" d="M272.174 422.63L269.442 413.285L270.155 412.122L273.017 421.199L272.174 422.63Z" fill="#77C4CA"/>
<path opacity="0.72" d="M271.059 414.525L266.218 421.493L265.919 419.021L270.155 412.122L271.059 414.525Z" fill="#A2DBE0"/>
<path d="M263.084 430.112L260.923 433.138C260.274 433.052 259.626 432.948 258.995 432.853C258.632 432.797 258.269 432.74 257.91 432.676C257.27 432.576 256.613 432.468 255.999 432.36L255.87 431.353L255.437 427.644L255.143 425.172L256.738 422.578L258.658 419.44L259.371 418.282L260.019 420.344L260.175 420.832L260.707 422.513L261.644 425.487L262.232 427.359L262.371 427.791L263.084 430.112Z" fill="#385F60"/>
<path d="M263.084 430.112L260.923 433.138C260.274 433.052 259.626 432.948 258.995 432.853L261.247 429.019L261.381 428.794L262.219 427.368L262.358 427.8L263.084 430.112Z" fill="#0B233B"/>
<path opacity="0.55" d="M261.376 428.785L258.645 419.44L259.354 418.277L262.215 427.355L261.376 428.785Z" fill="#77C4CA"/>
<path opacity="0.72" d="M260.261 420.685L255.42 427.653L255.122 425.176L259.354 418.277L260.261 420.685Z" fill="#A2DBE0"/>
<path d="M365.54 278.514C351.703 272.389 327.191 237.857 318.978 225.603C317.383 223.226 316.384 221.687 316.229 221.354C316.073 221.021 315.114 220.178 313.557 218.894C307.048 213.543 289.983 200.87 275.753 190.418L272.42 187.997L270.259 186.407C266.412 183.584 262.954 181.06 260.222 179.059L255.39 175.544L253.881 174.442L267.973 161.358C267.973 161.358 280.132 158.194 296.233 159.707C298.71 159.936 301.277 160.277 303.914 160.761C304.286 160.831 304.653 160.9 305.029 160.978C306.47 161.266 307.921 161.591 309.382 161.954L309.52 161.989C310.078 162.132 310.635 162.279 311.197 162.421C313.64 163.1 316.108 163.917 318.584 164.876C318.986 165.032 319.388 165.205 319.79 165.378C323.633 167.072 327.61 169.735 331.604 173.158C332.645 174.057 333.687 175.013 334.725 176.011C344.666 185.555 354.388 199.582 361.844 214.974L361.39 215.009L353.099 215.683L347.394 216.141C349.555 218.397 351.617 220.619 353.597 222.78C356.091 225.486 358.429 228.088 360.56 230.509C364.018 238.843 366.158 247.112 366.642 254.36C367.018 260.183 366.793 268.538 365.54 278.514Z" fill="#121634"/>
<path d="M255.437 176.111L307.566 179.136L299.354 321.303C299.354 321.303 237.495 340.447 210.825 308.266C184.155 276.085 193.911 216.949 193.967 215.895C194.024 214.84 228.802 179.867 228.802 179.867L255.437 176.111Z" fill="url(#paint1_linear_85_288)"/>
<path opacity="0.31" d="M214.417 204.993C214.417 204.993 212.528 210.349 215.009 213.133C217.49 215.916 208.526 224.371 220.296 231.399C232.066 238.428 205.115 228.94 205.673 228.443C206.23 227.946 203.736 213.314 203.736 213.314L214.417 204.993Z" fill="#121634"/>
<path d="M277.136 115.38L269.269 129.791L269.213 129.886L269.179 129.484L268.798 124.946L268.586 122.456L257.482 111.866L264.441 101.025L265.712 99.0452L266.283 99.4991L275.446 106.882C276.68 107.875 277.525 109.271 277.834 110.824C278.143 112.377 277.896 113.99 277.136 115.38Z" fill="#121634"/>
<path opacity="0.31" d="M226.313 182.089C226.313 182.089 214.283 198.298 212.965 211.961C211.646 225.625 198.009 214.792 198.009 214.792L213.773 185.551L226.313 182.089Z" fill="#121634"/>
<path opacity="0.74" d="M277.136 115.38L269.269 129.791L269.179 129.484L268.124 125.862C268.124 125.862 268.383 125.525 268.798 124.945C270.722 122.27 276.086 114.472 275.852 110.988C275.571 106.744 264.441 101.047 264.441 101.047C265.028 100.507 265.643 99.9974 266.283 99.5207L275.446 106.903C276.675 107.896 277.517 109.287 277.825 110.836C278.134 112.384 277.89 113.992 277.136 115.38Z" fill="url(#paint2_linear_85_288)"/>
<path opacity="0.58" d="M226.313 182.089C226.313 182.089 217.188 193.712 214.534 203.07C211.88 212.428 211.456 219.798 204.856 215.173C198.255 210.548 210.717 195.964 210.717 195.964L226.313 182.089Z" fill="url(#paint3_linear_85_288)"/>
<path d="M226.045 182.335C226.045 182.335 215.774 195.48 213.03 206.416C210.285 217.351 204.622 218.475 201.156 208.041C197.689 197.606 212.109 178.89 225.513 174.382L226.045 182.335Z" fill="url(#paint4_linear_85_288)"/>
<path d="M210.695 204.777C210.695 204.777 213.038 192.415 219.284 184.851C225.53 177.286 232.036 174.477 232.036 174.477C232.036 174.477 224.043 175.601 216.773 182.577C209.502 189.554 203.291 196.772 203.615 200.135C203.939 203.498 210.695 204.777 210.695 204.777Z" fill="#121634"/>
<path d="M209.714 206.882C207.743 210.007 204.527 210.993 202.496 209.082C200.464 207.172 200.434 203.096 202.401 199.971C203.172 198.654 204.358 197.63 205.772 197.057C206.414 196.794 207.118 196.722 207.801 196.848C208.483 196.975 209.114 197.295 209.619 197.771C211.638 199.668 211.681 203.762 209.714 206.882Z" fill="#FFC717"/>
<path d="M209.714 206.882C205.059 211.966 202.431 206.45 203.066 202.339C203.702 198.229 205.768 197.066 205.768 197.066C206.41 196.803 207.114 196.73 207.796 196.857C208.478 196.983 209.11 197.304 209.615 197.779C211.638 199.668 211.681 203.762 209.714 206.882Z" fill="url(#paint5_linear_85_288)"/>
<path d="M208.932 202.737C209.299 203.083 209.883 202.906 210.229 202.339C210.448 201.994 210.532 201.58 210.466 201.177C210.433 200.99 210.344 200.818 210.211 200.684C209.844 200.338 209.26 200.52 208.915 201.086C208.569 201.652 208.569 202.391 208.932 202.737Z" fill="#FBF49D"/>
<path d="M207 201.587C207.237 201.812 207.618 201.695 207.864 201.328C208.008 201.107 208.062 200.84 208.016 200.58C207.997 200.459 207.941 200.347 207.856 200.26C207.618 200.04 207.237 200.152 206.991 200.52C206.878 200.675 206.818 200.863 206.82 201.055C206.821 201.247 206.884 201.434 207 201.587Z" fill="#FBF49D"/>
<path d="M270.821 156.923C270.73 158.501 259.38 172.112 258.264 173.102C257.462 173.758 256.536 174.244 255.541 174.533L255.437 176.111C255.437 176.111 254.672 177.481 253.376 179.69C250.263 184.989 244.087 195.099 238.061 202.599C229.524 213.202 218.312 215.194 214.931 209.718C211.551 204.241 226.045 182.335 226.045 182.335L224.316 156.876L219.898 151.542L213.522 142.516L212.956 134.031L226.909 130.612L256.302 112.575L257.599 111.779L268.604 122.456L269.81 128.831C269.81 128.831 270.912 155.345 270.821 156.923Z" fill="#F28082"/>
<path opacity="0.16" d="M270.821 156.923C270.73 158.501 259.38 172.112 258.264 173.102C257.462 173.758 256.536 174.244 255.541 174.533V174.797L246.326 174.261L239.967 168.149C240.257 168.382 244.912 172.082 246.416 172.683C247.921 173.284 254.283 173.664 255.654 172.787C257.024 171.909 265.016 161.604 267.324 158.57C269.632 155.536 268.591 154.943 268.146 144.353C267.7 133.763 267.225 123.696 267.225 123.696L256.302 112.575L257.599 111.779L268.604 122.456L269.81 128.831C269.81 128.831 270.912 155.345 270.821 156.923Z" fill="#FFFEF5"/>
<path opacity="0.43" d="M255.541 174.533L255.437 176.111C255.437 176.111 254.672 177.481 253.376 179.69L246.274 179.279L232.528 161.578L246.602 174.014L255.541 174.533Z" fill="url(#paint6_linear_85_288)"/>
<path d="M264.7 107.439L226.931 130.599L230.484 151.408C230.484 151.408 229.503 149.782 226.645 144.34C223.788 138.898 218.433 131.183 215.952 137.381C214.586 140.8 216.686 145.542 218.839 149.112C219.89 150.846 221.059 152.505 222.336 154.079C221.554 153.279 210.734 142.11 206.04 135.224C201.169 128.071 214.374 119.322 214.374 119.322H214.344C209.035 116.297 204.11 112.643 199.677 108.438C199.479 108.246 199.293 108.043 199.12 107.828C194.797 102.399 214.914 103.467 218.843 103.726C219.276 103.726 219.496 103.77 219.496 103.77C219.496 103.77 211.141 96.1707 207.67 90.6812L207.376 90.2014V90.1711C207.104 89.7196 206.86 89.2519 206.645 88.7707C204.419 83.5837 230.073 89.2029 232.321 89.7L232.476 89.7346C232.476 89.7346 230.09 85.3689 226.736 79.3606C225.984 78.018 225.317 76.6291 224.739 75.2024C222.82 70.4477 222.578 66.1598 227.436 67.2577C233.695 68.6755 264.61 91.5932 267.424 97.5669C270.238 103.541 264.7 107.439 264.7 107.439Z" fill="#1C224C"/>
<path d="M260.668 332.792L240.123 340.131L236.795 341.324L211.037 350.527L206.019 340.577L203.226 335.044L128.975 187.911L120.97 172.043L121 168.551L121.579 109.432L121.609 106.043L176.773 141.782L177.118 142.002L223.948 248.94L260.668 332.792Z" fill="url(#paint7_linear_85_288)"/>
<path opacity="0.26" d="M236.596 296.799L169.913 152.419L155.411 147.353L238.078 325.941L236.596 296.799Z" fill="#010101"/>
<path opacity="0.26" d="M233.747 327.804L153.565 162.426L139.037 156.443L223.767 339.072L234.798 327.864L233.747 327.804Z" fill="#010101"/>
<path opacity="0.26" d="M211.949 334.733L206.019 340.577L120.97 172.043L121 168.551L132.796 168.499L211.949 334.733Z" fill="#010101"/>
<path d="M170.19 152.168L152.818 151.166L153.665 163.895L151.633 163.195L140.715 159.448L135.186 172.865L120.97 172.043L121.324 135.54L121.531 114.256L121.609 106.043L145.685 121.643L176.773 141.782L170.19 152.168Z" fill="#F28082"/>
<path d="M145.685 121.643C145.391 123.228 144.921 124.774 144.285 126.255C142.759 129.8 140.101 133.128 135.796 134.861C131.015 136.78 125.504 136.374 121.324 135.54L121.596 107.656V106.043L145.685 121.643Z" fill="url(#paint8_linear_85_288)"/>
<path opacity="0.26" d="M240.123 340.149C239.561 341.203 239.211 341.791 239.211 341.791L236.795 341.359L203.226 335.074L128.975 187.911C138.869 182.841 154.797 180.675 168.949 205.72C191.473 245.586 183.434 256.725 220.473 283.187C256.302 308.776 244.761 331.439 240.123 340.149Z" fill="#010101"/>
<path d="M171.093 271.374C171.093 271.374 170.687 271.451 169.986 271.534C166.935 271.888 158.268 272.333 152.999 266.874C146.515 260.161 144.173 236.781 144.173 236.781L145.193 236.928L146.057 237.053L154.361 238.246L160.888 251.183L171.093 271.374Z" fill="#E17982"/>
<path opacity="0.21" d="M171.093 271.374C171.093 271.374 170.687 271.451 169.986 271.534C167.725 271.156 165.528 270.463 163.459 269.476C151.789 264.216 146.243 241.696 145.193 236.928C145.067 236.349 145.007 236.033 145.007 236.033L146.074 237.053L160.905 251.183L171.093 271.374Z" fill="url(#paint9_linear_85_288)"/>
<path d="M297.331 329.096C297.331 329.096 297.331 329.221 297.283 329.459C296.886 332.213 294.093 350.207 286.105 365.336C282.881 371.443 278.818 377.084 273.726 381.078C254.91 395.839 199.267 407.947 199.267 407.947L197.931 431.115C197.931 431.115 197.905 431.547 197.097 432.524C196.489 433.238 195.821 433.899 195.1 434.5C193.393 435.952 190.665 437.919 186.295 440.482C174.81 447.216 131.006 437.288 131.006 437.288C131.006 437.288 133.997 394.668 138.251 375.908C142.504 357.149 232.338 319.401 232.338 319.401L271.167 325.193L285.894 327.389L294.461 328.685L297.054 329.07L297.331 329.096Z" fill="url(#paint10_linear_85_288)"/>
<path d="M149.347 246.476L151.904 248.258C153.439 249.328 155.551 248.951 156.621 247.415L168.446 230.446C169.516 228.91 169.139 226.798 167.603 225.728L165.046 223.946C163.511 222.876 161.399 223.254 160.329 224.789L148.504 241.759C147.434 243.294 147.811 245.406 149.347 246.476Z" fill="#F28082"/>
<path d="M286.127 365.344C282.902 371.452 278.839 377.093 273.747 381.087C254.932 395.848 199.288 407.955 199.288 407.955L197.953 431.124C197.953 431.124 197.892 432.135 195.122 434.508L163.87 439.998C163.87 439.998 179.284 429.265 180.408 409.784C181.532 390.302 178.497 388.011 211.75 379.366C245.003 370.721 278.442 331.439 278.442 331.439L285.894 327.389L294.037 322.962C294.037 322.962 294.508 324.756 294.469 328.668C294.387 334.962 292.974 346.732 286.127 365.344Z" fill="#121634"/>
<path d="M154.037 256.788L156.594 258.569C158.13 259.639 160.242 259.262 161.312 257.726L173.137 240.757C174.207 239.221 173.83 237.109 172.294 236.039L169.737 234.257C168.202 233.187 166.089 233.565 165.019 235.1L153.194 252.07C152.124 253.605 152.502 255.717 154.037 256.788Z" fill="#F28082"/>
<path opacity="0.13" d="M374.738 327.713C372.291 350.047 366.322 377.607 352.529 402.284C329.974 442.643 298.757 461.446 285.362 468.042C281.139 466.823 277.378 465.768 273.942 464.848C268.634 463.426 264.095 462.332 259.794 461.528C272.589 452.092 291.15 438.156 315.632 419.168C344.083 397.123 359.393 358.627 367.437 328.301C374.085 303.204 375.758 283.697 375.758 283.697C375.758 283.697 377.526 302.336 374.738 327.713Z" fill="#7D7BAB"/>
<path opacity="0.26" d="M297.283 329.459C296.886 332.213 294.093 350.207 286.105 365.336C282.881 371.443 278.818 377.084 273.726 381.078C254.91 395.839 199.267 407.947 199.267 407.947L197.931 431.115C197.931 431.115 197.905 431.547 197.097 432.524C178.078 434.409 141.337 437.448 154.572 431.258C172.187 423.045 170.769 402.868 171.223 394.971C171.676 387.073 178.333 381.644 210.008 372.926C241.683 364.208 271.167 325.193 271.167 325.193L286.663 317.123C286.663 317.123 292.684 321.112 297.037 329.053C297.136 329.191 297.21 329.342 297.283 329.459Z" fill="#010101"/>
<path d="M368.289 328.24C360.85 368.007 338.844 429.862 273.951 464.83C251.906 458.922 243.105 458.779 209.636 460.871C211.763 460.642 257.793 455.17 314.444 403.235C342.803 377.244 357.201 349.796 364.515 328.525C371.703 307.609 372.045 292.649 372.058 290.954C372.088 292.67 372.183 307.432 368.289 328.24Z" fill="#1C224C"/>
<path d="M315.023 332.55C295.394 372.226 254.141 436.54 193.073 436.108C142.932 435.749 119.768 430.411 109.083 425.863C109.009 425.608 108.975 425.466 108.975 425.466C235.485 448.621 287.493 334.78 287.493 334.78L315.023 332.55Z" fill="#1C224C"/>
<path opacity="0.13" d="M329.589 314.845C329.589 314.845 297.443 409.797 219.405 432.17C219.405 432.17 289.027 413.41 322.215 314.421C355.403 215.432 329.589 314.845 329.589 314.845Z" fill="#7D7BAB"/>
<path d="M159.312 266.071L161.869 267.852C163.404 268.922 165.517 268.545 166.587 267.009L178.412 250.04C179.482 248.504 179.104 246.392 177.569 245.322L175.012 243.54C173.476 242.47 171.364 242.848 170.294 244.383L158.469 261.353C157.399 262.888 157.776 265.001 159.312 266.071Z" fill="#F28082"/>
<path opacity="0.52" d="M240.11 205.858C240.11 205.858 238.117 215.523 228.007 217.053C217.897 218.583 208.184 228.724 215.705 238.004C223.226 247.284 284.203 230.176 284.203 230.176C284.203 230.176 269.075 200.935 270.073 193.068C271.072 185.201 240.11 205.858 240.11 205.858Z" fill="url(#paint11_linear_85_288)"/>
<path d="M158.264 227.985L148.171 242.461C147.678 243.168 147.007 243.733 146.226 244.098C145.445 244.463 144.582 244.615 143.723 244.54C142.869 244.467 142.051 244.168 141.35 243.675L141.272 243.615C140.207 242.872 139.48 241.736 139.251 240.457C139.022 239.178 139.311 237.86 140.053 236.794L150.146 222.309C150.89 221.243 152.026 220.515 153.306 220.285C154.585 220.056 155.904 220.344 156.971 221.086L157.045 221.138C157.873 221.718 158.502 222.539 158.847 223.489C159.122 224.23 159.212 225.026 159.11 225.809C159.009 226.592 158.718 227.339 158.264 227.985Z" fill="#F28082"/>
<path opacity="0.36" d="M224.415 260.697L172.446 148.663L121.579 109.432L121.609 106.043L176.768 141.782L177.114 142.002L223.948 248.944C224.45 255.566 224.415 260.697 224.415 260.697Z" fill="#FFFEF5"/>
<path opacity="0.7" d="M258.826 199.988C258.826 199.988 267.973 210.907 246.572 242.958C225.171 275.009 310.765 284.172 310.765 284.172L287.54 210.474C287.54 210.474 270.078 174.399 258.826 199.988Z" fill="#2F5188"/>
<path opacity="0.26" d="M376.653 334.858L221.592 344.471C217.832 344.704 214.512 342.258 214.184 339.012L211.802 315.848L205.024 249.956C204.692 246.71 207.467 243.883 211.223 243.649L366.287 234.032C370.044 233.798 373.363 236.245 373.7 239.495L375.377 255.852L382.855 328.551C383.193 331.806 380.418 334.629 376.653 334.858Z" fill="#010101"/>
<path opacity="0.13" d="M345.777 315.567C345.777 315.567 317.028 385.967 267.199 416.375C217.369 446.784 232.909 442.924 250.186 436.523C267.463 430.121 364.45 360.706 362.881 314.646C361.312 268.586 345.777 315.567 345.777 315.567Z" fill="#7D7BAB"/>
<path d="M377.383 327.501L376.648 327.557L227.091 339.66C225.343 339.802 223.61 339.245 222.272 338.11C220.935 336.976 220.103 335.356 219.959 333.609L217.858 307.644L211.875 233.772C211.733 232.024 212.291 230.291 213.425 228.954C214.56 227.617 216.179 226.785 217.927 226.64L243.667 224.557L368.254 214.477C370.002 214.335 371.734 214.892 373.071 216.027C374.407 217.162 375.239 218.781 375.382 220.528L376.864 238.86L383.465 320.356C383.538 321.225 383.438 322.1 383.171 322.93C382.904 323.76 382.476 324.53 381.911 325.194C381.345 325.858 380.654 326.404 379.877 326.8C379.1 327.196 378.253 327.434 377.383 327.501Z" fill="url(#paint12_linear_85_288)"/>
<path opacity="0.16" d="M377.383 327.501L227.086 339.669C225.338 339.811 223.605 339.254 222.268 338.119C220.931 336.984 220.098 335.365 219.954 333.617L217.853 307.652L376.847 238.882L383.448 320.378C383.517 321.244 383.416 322.115 383.149 322.942C382.882 323.768 382.454 324.534 381.891 325.196C381.328 325.857 380.64 326.401 379.867 326.797C379.093 327.192 378.249 327.432 377.383 327.501Z" fill="#121634"/>
<path opacity="0.45" d="M229.58 291.482C234.493 291.482 238.476 287.499 238.476 282.586C238.476 277.673 234.493 273.691 229.58 273.691C224.667 273.691 220.685 277.673 220.685 282.586C220.685 287.499 224.667 291.482 229.58 291.482Z" fill="#121634"/>
<path d="M374.47 320.598L259.846 329.874L246.723 330.933L244.372 301.838L243.577 291.992L242.176 274.702L238.722 232.104L366.469 221.76L366.689 224.505L368.029 241.03L368.825 250.859L371.431 283.04L374.47 320.598Z" fill="#121634"/>
<path d="M229.58 289.969C233.658 289.969 236.963 286.664 236.963 282.586C236.963 278.509 233.658 275.203 229.58 275.203C225.503 275.203 222.198 278.509 222.198 282.586C222.198 286.664 225.503 289.969 229.58 289.969Z" fill="url(#paint13_linear_85_288)"/>
<path d="M233.294 236.769L218.572 237.961L218.827 241.115L233.549 239.922L233.294 236.769Z" fill="#121634"/>
<path d="M233.97 245.18L219.249 246.372L219.504 249.526L234.226 248.334L233.97 245.18Z" fill="#121634"/>
<path d="M234.656 253.591L219.934 254.783L220.19 257.937L234.911 256.745L234.656 253.591Z" fill="#121634"/>
<path d="M235.333 262.003L220.611 263.195L220.866 266.349L235.588 265.156L235.333 262.003Z" fill="#121634"/>
<path d="M238.315 298.798L223.593 299.99L223.848 303.144L238.57 301.952L238.315 298.798Z" fill="#121634"/>
<path d="M238.996 307.209L224.274 308.401L224.53 311.555L239.251 310.363L238.996 307.209Z" fill="#121634"/>
<path d="M239.677 315.621L224.955 316.813L225.211 319.967L239.932 318.774L239.677 315.621Z" fill="#121634"/>
<path d="M240.358 324.032L225.636 325.224L225.892 328.378L240.613 327.185L240.358 324.032Z" fill="#121634"/>
<g opacity="0.13">
<path d="M366.689 224.505L242.176 274.702L243.577 291.992L368.029 241.03L366.689 224.505Z" fill="white"/>
<path d="M368.825 250.859L244.368 301.834L246.723 330.933L259.846 329.874C273.198 321.143 289.027 308.755 299.09 294.067C311.841 275.454 347.139 278.367 371.431 283.04L368.825 250.859Z" fill="white"/>
</g>
<path d="M355.053 322.128C352.179 332.07 346.56 340.071 341.654 343.594C341.554 343.658 341.459 343.728 341.368 343.792C336.415 347.203 334.837 347.112 329.045 346.779C323.253 346.446 321.083 347.376 315.356 345.988C314.745 345.834 314.156 345.606 313.601 345.31C308.28 342.573 302.258 333.877 302.073 333.609L317.404 332.368L319.324 332.208C316.173 332.407 306.711 332.723 304.705 329.533C302.284 325.694 325.228 321.752 325.228 321.752L330.8 316.79C330.8 316.79 358.356 310.695 355.053 322.128Z" fill="#F28082"/>
<path opacity="0.4" d="M377.383 327.501L376.648 327.557C383.78 314.732 371.608 218.48 371.608 218.48C371.608 218.48 319.116 221.786 286.784 223.619C255.044 225.417 244.078 224.591 243.68 224.557L368.254 214.477C370.002 214.335 371.734 214.892 373.071 216.027C374.407 217.162 375.239 218.781 375.382 220.528L376.864 238.86L383.465 320.356C383.538 321.225 383.438 322.1 383.171 322.93C382.904 323.76 382.476 324.53 381.911 325.194C381.345 325.858 380.654 326.404 379.877 326.8C379.1 327.196 378.253 327.434 377.383 327.501Z" fill="#FFFEF5"/>
<path opacity="0.21" d="M331.046 317.045C331.046 317.045 332.572 327.216 341.9 330.371C351.228 333.527 355.775 327.981 355.775 327.981L335.127 310.41L331.046 317.045Z" fill="url(#paint14_linear_85_288)"/>
<path d="M352.261 329.969L352.477 329.874V329.904L352.261 329.969Z" fill="url(#paint15_linear_85_288)"/>
<path d="M352.477 329.874L352.429 329.757C352.628 329.775 352.576 329.818 352.477 329.874Z" fill="url(#paint16_linear_85_288)"/>
<path d="M365.54 278.514C363.643 293.4 360.144 308.037 355.105 322.171C354.241 324.615 353.311 327.064 352.317 329.52L352.429 329.749C352.362 329.745 352.294 329.745 352.226 329.749C351.433 329.796 350.637 329.786 349.845 329.718C343.957 329.252 339.471 326.515 336.35 323.667C335.011 322.446 333.789 321.101 332.702 319.651C331.999 318.734 331.368 317.764 330.813 316.751L333.488 270.414C333.488 270.414 303.711 250.997 283.3 229.217L281.325 226.467C279.702 224.335 278.271 222.062 277.05 219.677C274.556 214.792 272.416 210.634 271.128 206.709C269.909 203.014 269.451 199.534 270.164 195.86C270.687 193.17 271.439 190.529 272.412 187.967C273.048 186.29 273.769 184.647 274.573 183.044C275.061 182.063 275.537 181.198 275.961 180.45C276.553 179.397 277.203 178.377 277.906 177.394C277.906 177.394 285.314 173.163 296.22 173.664C296.929 173.694 297.646 173.746 298.381 173.824C300.408 174.027 303.75 175.959 307.917 179.076C308.525 179.525 309.15 180.004 309.793 180.511C313.073 183.074 316.782 186.26 320.715 189.826C329.239 197.559 338.809 207.116 347.389 216.15C349.551 218.406 351.613 220.628 353.592 222.789C356.086 225.495 358.425 228.097 360.556 230.518C364.014 238.851 366.153 247.12 366.637 254.369C367.018 260.183 366.793 268.538 365.54 278.514Z" fill="url(#paint17_linear_85_288)"/>
<path opacity="0.4" d="M332.693 319.669C331.991 318.751 331.359 317.782 330.804 316.768L333.48 270.431C333.48 270.431 303.702 251.015 283.291 229.234L281.325 226.467C279.702 224.335 278.271 222.062 277.05 219.677C272.196 210.167 268.694 203.429 270.164 195.869C270.687 193.178 271.439 190.538 272.412 187.976C273.048 186.299 273.769 184.656 274.573 183.053C275.535 181.085 276.652 179.197 277.914 177.407C277.914 177.407 286.313 172.609 298.39 173.837C300.417 174.04 303.758 175.972 307.925 179.089C308.533 179.538 309.159 180.017 309.801 180.524C298.688 179.309 284.904 181.081 285.345 197.472C286.079 224.821 338.368 254.598 335.714 263.952C333.06 273.306 332.693 319.669 332.693 319.669Z" fill="#65C9E8"/>
<path d="M333.454 270.782V270.427C333.454 270.427 303.676 251.011 283.266 229.23L281.325 226.467C279.702 224.335 278.271 222.062 277.05 219.677C272.196 210.167 268.694 203.429 270.164 195.869C270.687 193.178 271.439 190.538 272.412 187.976C273.048 186.299 273.769 184.656 274.573 183.053C279.093 180.826 284.294 180.411 289.11 181.894C289.11 181.894 273 187.946 287.381 213.612C301.761 239.279 333.583 264.358 333.583 264.358C333.982 266.486 333.938 268.672 333.454 270.782Z" fill="#51B7DC"/>
<path opacity="0.31" d="M320.707 189.839C300.888 176.971 281.934 192.968 271.137 206.696C270.422 207.598 269.748 208.489 269.114 209.368C258.783 223.567 249.23 224.064 242.055 220.485C234.88 216.906 240.715 200.005 240.715 200.005C240.715 200.005 258.104 188.408 275.952 180.442C282.98 177.308 290.073 174.736 296.211 173.655C296.92 173.686 297.638 173.738 298.373 173.815C300.4 174.019 303.741 175.951 307.908 179.067C308.516 179.517 309.141 179.995 309.784 180.502C313.065 183.087 316.773 186.268 320.707 189.839Z" fill="#121634"/>
<path opacity="0.58" d="M238.986 207.734C238.986 207.734 237.257 221.285 250.078 218.856C262.898 216.426 270.333 188.983 292.317 183.057C314.301 177.131 321.917 183.649 321.917 183.649C321.917 183.649 306.175 171.382 288.634 173.011C271.093 174.641 239.021 206.666 239.021 206.666L238.986 207.734Z" fill="url(#paint18_linear_85_288)"/>
<path d="M368.872 214.46C368.661 214.449 368.448 214.449 368.237 214.46L365.15 214.71L361.831 214.978L361.377 215.013L353.086 215.687C341.986 197.101 325.345 181.107 307.908 179.072C306.401 178.893 304.882 178.822 303.365 178.86C291.772 179.167 282.907 184.146 275.757 190.405C273.769 192.134 271.915 193.988 270.173 195.851C265.954 200.377 262.392 205.058 259.176 208.875C255.619 213.094 252.502 216.223 249.399 216.941C238.16 219.465 238.705 209.986 238.705 209.986C240.395 193.301 249.758 181.319 255.381 175.51C256.725 174.094 258.158 172.767 259.673 171.537C265.967 167.716 274.564 163.48 284.744 161.514C290.802 160.33 297.007 160.098 303.136 160.826C305.238 161.08 307.324 161.448 309.386 161.929L309.525 161.963C310.108 162.097 310.692 162.248 311.279 162.395C313.765 163.059 316.207 163.879 318.589 164.851C318.991 165.006 319.393 165.179 319.795 165.352C326.588 168.334 332.924 172.263 338.615 177.023L338.662 177.057C339.389 177.654 340.115 178.263 340.824 178.899C346.077 183.528 350.927 188.597 355.321 194.049C360.487 200.399 365.025 207.234 368.872 214.46Z" fill="url(#paint19_linear_85_288)"/>
<path d="M250.471 125.105C250.471 125.105 249.135 120.805 244.151 124.742C239.168 128.68 237.845 133.357 237.845 133.357" stroke="#1C224C" stroke-width="0.864495" stroke-miterlimit="10"/>
<path d="M263.218 123.731C263.218 123.731 266.499 121.807 267.713 128.218" stroke="#1C224C" stroke-width="0.864495" stroke-miterlimit="10"/>
<path d="M250.434 135.422C250.577 132.95 249.986 130.906 249.114 130.856C248.241 130.805 247.419 132.768 247.276 135.239C247.133 137.711 247.724 139.755 248.596 139.805C249.468 139.856 250.291 137.893 250.434 135.422Z" fill="#1C224C"/>
<path d="M267.623 133.243C267.732 131.353 267.28 129.79 266.612 129.752C265.945 129.713 265.315 131.214 265.206 133.104C265.097 134.994 265.549 136.557 266.217 136.596C266.884 136.634 267.513 135.133 267.623 133.243Z" fill="#1C224C"/>
<path d="M340.819 178.92C338.978 177.943 336.929 176.958 334.712 176.024C322.345 170.867 304.329 167.379 284.225 176.456C284.225 176.456 277.093 179.097 270.246 186.398C269.555 187.133 268.87 187.915 268.193 188.745C260.802 197.822 254.331 211.304 249.04 205.918C243.749 200.533 246.088 196.452 246.088 196.452C249.793 189.91 254.56 184.03 260.192 179.05C265.069 174.654 270.665 171.128 276.734 168.624C283.966 165.693 289.771 163.666 295.036 162.352H295.113C297.743 161.693 300.411 161.198 303.101 160.87C303.361 160.839 303.616 160.805 303.879 160.779C304.251 160.848 304.619 160.917 304.995 160.995C306.435 161.283 307.886 161.609 309.347 161.972L309.486 162.006C310.069 162.14 310.653 162.292 311.241 162.439C313.726 163.102 316.168 163.922 318.55 164.894C318.952 165.049 319.354 165.222 319.756 165.395C326.534 168.366 332.857 172.282 338.537 177.027L338.576 177.057L338.623 177.092C339.371 177.684 340.097 178.293 340.819 178.92Z" fill="url(#paint20_linear_85_288)"/>
<path d="M260.019 133.582L264.774 142.836L259.82 146.251C259.82 146.251 265.262 143.394 260.019 133.582Z" fill="url(#paint21_linear_85_288)"/>
<path d="M249.818 209.255C249.818 209.255 256.03 207.578 259.885 195.648C263.741 183.718 274.327 174.295 274.327 174.295C274.327 174.295 258.031 181.808 252.213 190.98C250.517 193.672 249.425 196.7 249.011 199.855C248.598 203.01 248.873 206.217 249.818 209.255Z" fill="#121634"/>
<path d="M259.885 154.178C259.885 154.178 251.188 158.432 246.875 150.785" stroke="#1C224C" stroke-width="0.864495" stroke-miterlimit="10"/>
<path opacity="0.13" d="M339.894 365.102C339.894 365.102 309.442 433.544 216.967 460.443C214.662 460.576 212.226 460.72 209.658 460.875H209.58C202.336 461.334 193.929 461.896 183.987 462.531C124.268 466.335 111.041 432.088 109.234 426.278C112.843 430.238 135.428 453.125 177.257 455.541C223.045 458.204 292.887 428.954 339.894 365.102Z" fill="#7D7BAB"/>
<path opacity="0.13" d="M302.79 333.54C295.935 349.926 279.055 379.626 240.309 406.369C183.464 445.591 112.714 426.213 111.776 425.958C236.263 446.94 287.493 334.776 287.493 334.776L302.79 333.54Z" fill="#7D7BAB"/>
<path d="M253.985 206.424C250.795 210.007 246.442 210.582 244.259 207.721C242.077 204.859 242.894 199.603 246.084 196.016C247.352 194.488 249.091 193.424 251.028 192.99C251.907 192.788 252.826 192.843 253.674 193.15C254.522 193.456 255.263 194.001 255.809 194.719C257.988 197.602 257.166 202.837 253.985 206.424Z" fill="#FFC717"/>
<path d="M253.985 206.424C246.931 211.944 244.739 204.306 246.429 199.18C248.119 194.053 251.024 192.994 251.024 192.994C251.903 192.792 252.821 192.847 253.669 193.154C254.517 193.461 255.259 194.006 255.805 194.723C257.988 197.602 257.166 202.837 253.985 206.424Z" fill="url(#paint22_linear_85_288)"/>
<path d="M253.868 200.939C254.266 201.462 255.053 201.371 255.632 200.71C255.988 200.315 256.184 199.802 256.181 199.27C256.18 199.026 256.105 198.788 255.965 198.588C255.567 198.065 254.776 198.155 254.197 198.817C253.618 199.478 253.475 200.42 253.868 200.939Z" fill="#FBF49D"/>
<path d="M251.638 199.054C251.893 199.391 252.403 199.322 252.779 198.903C253.007 198.647 253.133 198.316 253.134 197.974C253.131 197.818 253.082 197.667 252.991 197.541C252.736 197.204 252.226 197.273 251.85 197.693C251.674 197.867 251.559 198.094 251.52 198.339C251.482 198.584 251.524 198.834 251.638 199.054Z" fill="#FBF49D"/>
<path d="M361.377 215.03L353.086 215.704C341.986 197.118 325.345 181.125 307.908 179.089C306.401 178.91 304.882 178.839 303.365 178.877C291.772 179.184 282.907 184.163 275.757 190.422C273.769 192.151 271.915 194.006 270.173 195.869C265.954 200.394 262.392 205.076 259.176 208.892C259.427 208.218 272.602 173.655 310.208 174.784C331.05 175.406 349.235 196.305 361.377 215.03Z" fill="#1C224C"/>
<path d="M338.598 177.053C336.362 175.583 334.02 174.283 331.591 173.163C322.168 168.745 304.359 163.022 284.597 170.111C284.951 169.869 295.554 162.659 311.184 162.417H311.262C313.748 163.081 316.189 163.901 318.572 164.872C318.974 165.028 319.375 165.201 319.777 165.374C326.571 168.358 332.908 172.29 338.598 177.053Z" fill="#121634"/>
<path d="M305.016 160.978L304.42 161.025C301.3 161.27 298.198 161.703 295.131 162.322H295.053C286.84 163.995 276.855 167.349 265.898 173.768C266.33 173.422 277.871 164.302 292.412 160.524C293.661 160.2 294.928 159.914 296.216 159.659C298.692 159.888 301.26 160.23 303.897 160.714C304.281 160.831 304.64 160.9 305.016 160.978Z" fill="#121634"/>
<path opacity="0.58" d="M239.609 204.267C239.609 204.267 232.961 213.643 226.006 214.827C219.051 216.011 217.054 214.308 217.054 214.308C217.054 214.308 221.147 216.66 227.557 215.445C233.968 214.231 238.986 207.734 238.986 207.734L239.609 204.267Z" fill="url(#paint23_linear_85_288)"/>
<path opacity="0.21" d="M158.264 227.985L148.171 242.461C147.678 243.168 147.007 243.733 146.226 244.098C145.445 244.463 144.582 244.615 143.723 244.54L158.852 223.498C159.124 224.238 159.213 225.032 159.11 225.814C159.008 226.595 158.717 227.34 158.264 227.985Z" fill="url(#paint24_linear_85_288)"/>
<path opacity="0.21" d="M167.557 231.689L157.464 246.178C156.973 246.886 156.303 247.452 155.523 247.817C154.742 248.182 153.879 248.334 153.021 248.257L168.149 227.215C168.418 227.954 168.505 228.746 168.401 229.525C168.298 230.304 168.009 231.046 167.557 231.689Z" fill="url(#paint25_linear_85_288)"/>
<path opacity="0.21" d="M172.247 241.998L162.154 256.487C161.662 257.195 160.991 257.76 160.21 258.125C159.429 258.49 158.565 258.642 157.706 258.566L172.835 237.524C173.105 238.262 173.193 239.054 173.091 239.834C172.988 240.613 172.699 241.355 172.247 241.998Z" fill="url(#paint26_linear_85_288)"/>
<path opacity="0.21" d="M177.52 251.283L167.427 265.772C166.937 266.48 166.267 267.046 165.486 267.411C164.706 267.776 163.842 267.928 162.984 267.851L178.113 246.809C178.381 247.547 178.468 248.34 178.365 249.119C178.262 249.897 177.972 250.64 177.52 251.283Z" fill="url(#paint27_linear_85_288)"/>
<path opacity="0.21" d="M341.675 343.607C341.576 343.672 341.481 343.741 341.39 343.806C336.436 347.216 334.859 347.125 329.066 346.792C323.274 346.46 321.104 347.389 315.377 346.001C314.767 345.847 314.178 345.619 313.622 345.323C313.622 345.323 321.403 347.142 326.335 343.732C330.216 341.039 334.971 345.556 341.675 343.607Z" fill="url(#paint28_linear_85_288)"/>
<path opacity="0.52" d="M322.795 331.888C320.633 332.29 318.429 334.279 314.201 335.316C310.048 336.341 302.367 333.691 302.099 333.587L317.404 332.368C322.345 332.169 323.905 331.677 322.795 331.888Z" fill="url(#paint29_linear_85_288)"/>
<path d="M302.232 327.21L302.287 329.776C302.32 331.321 303.598 332.546 305.143 332.513L322.191 332.15C323.735 332.117 324.96 330.839 324.927 329.294L324.873 326.727C324.84 325.183 323.561 323.958 322.017 323.991L304.969 324.354C303.425 324.387 302.2 325.665 302.232 327.21Z" fill="#F28082"/>
<path opacity="0.21" d="M320.966 332.187L306.408 332.498C305.697 332.514 304.995 332.342 304.372 331.999C303.75 331.656 303.229 331.154 302.864 330.544L324.23 330.406C323.869 330.943 323.384 331.386 322.816 331.696C322.248 332.006 321.613 332.174 320.966 332.187Z" fill="url(#paint30_linear_85_288)"/>
<path opacity="0.54" d="M227.021 151.49C227.021 151.49 221.372 139.538 219.825 138.92C218.277 138.302 217.663 139.854 218.031 142.516C218.031 142.516 218.212 139.357 219.673 141.552C219.673 141.552 218.091 141.462 220.015 144.742C221.938 148.023 223.831 151.831 225.383 152.449C226.935 153.068 227.428 153.625 227.021 151.49Z" fill="url(#paint31_linear_85_288)"/>
<path opacity="0.74" d="M264.7 107.439L226.931 130.599C227.817 129.994 256.151 110.534 261.722 104.094C267.385 97.5539 254.18 88.3384 244.074 80.3591C233.968 72.3798 223.04 65.2391 224.7 75.1808C222.781 70.4261 222.539 66.1382 227.398 67.2361C233.656 68.6539 264.571 91.5716 267.385 97.5453C270.199 103.519 264.7 107.439 264.7 107.439Z" fill="url(#paint32_linear_85_288)"/>
<path opacity="0.33" d="M222.336 154.075C221.554 153.275 210.734 142.106 206.04 135.22C201.169 128.071 214.374 119.322 214.374 119.322H214.344C215.664 119.008 217.012 118.826 218.368 118.777C210.661 124.146 207.817 127.677 207.562 132.415C207.393 135.311 213.842 143.329 218.878 149.125C219.917 150.851 221.073 152.505 222.336 154.075Z" fill="url(#paint33_linear_85_288)"/>
<path opacity="0.33" d="M224.372 105.901C224.372 105.901 199.129 103.502 199.103 107.828C194.78 102.399 214.897 103.467 218.826 103.726C221.575 104.241 223.65 104.95 224.372 105.901Z" fill="url(#paint34_linear_85_288)"/>
<path opacity="0.74" d="M238.372 91.9131C237.871 91.8397 226.628 90.1842 216.397 88.533C206.537 86.9726 207.225 89.8297 207.32 90.1625C207.048 89.711 206.804 89.2433 206.589 88.7621C204.363 83.5751 230.017 89.1943 232.265 89.6914C235.77 90.9017 238.169 91.831 238.372 91.9131Z" fill="url(#paint35_linear_85_288)"/>
<path opacity="0.47" d="M223.347 132.786C223.347 132.786 257.927 110.478 263.46 106.043C268.993 101.608 264.281 91.8267 246.957 80.7914C229.632 69.7561 229.883 74.5195 232.831 78.3881C235.779 82.2567 261.679 91.1481 248.31 103.056C234.94 114.965 223.347 132.786 223.347 132.786Z" fill="url(#paint36_linear_85_288)"/>
<path d="M225.223 131.572L230.709 151.702L226.909 130.617L225.223 131.572Z" fill="url(#paint37_linear_85_288)"/>
<path opacity="0.09" d="M228.962 119.473C228.77 119.746 228.681 120.078 228.712 120.411C228.744 120.743 228.893 121.053 229.134 121.285C229.374 121.516 229.69 121.654 230.023 121.673C230.356 121.692 230.685 121.591 230.951 121.388C239.163 115.008 251.543 105.166 253.082 102.801C255.399 99.2354 253.475 95.9546 247.532 98.2542C243.663 99.7541 234.728 111.49 228.962 119.473Z" fill="white"/>
<g opacity="0.36">
<path d="M340.819 178.92C340.097 178.285 339.371 177.675 338.658 177.079L338.61 177.044C332.92 172.285 326.584 168.355 319.79 165.374C319.388 165.201 318.986 165.028 318.584 164.872C316.202 163.901 313.761 163.081 311.275 162.417C310.687 162.257 310.104 162.106 309.52 161.985L309.382 161.95C307.32 161.47 305.233 161.102 303.132 160.848C297.002 160.12 290.797 160.352 284.739 161.535C291.349 161.388 299.509 162.274 309.187 165.209C329.503 171.378 350.904 188.693 365.163 214.723L368.25 214.473C368.461 214.462 368.673 214.462 368.885 214.473C365.035 207.242 360.492 200.402 355.321 194.049C350.925 188.604 346.073 183.543 340.819 178.92Z" fill="#FFFEF5"/>
</g>
<path opacity="0.36" d="M232.282 283.939C234.051 283.939 235.485 282.505 235.485 280.736C235.485 278.967 234.051 277.533 232.282 277.533C230.513 277.533 229.079 278.967 229.079 280.736C229.079 282.505 230.513 283.939 232.282 283.939Z" fill="#FFFEF5"/>
<path opacity="0.36" d="M230.955 286.476C233.674 286.476 235.878 284.272 235.878 281.553C235.878 278.834 233.674 276.63 230.955 276.63C228.236 276.63 226.032 278.834 226.032 281.553C226.032 284.272 228.236 286.476 230.955 286.476Z" fill="#FFFEF5"/>
<path d="M194.166 124.224C194.338 124.224 194.503 124.155 194.625 124.034C194.746 123.912 194.815 123.747 194.815 123.575C194.815 123.403 194.746 123.238 194.625 123.117C194.503 122.995 194.338 122.927 194.166 122.927C193.994 122.927 193.829 122.995 193.708 123.117C193.586 123.238 193.518 123.403 193.518 123.575C193.518 123.747 193.586 123.912 193.708 124.034C193.829 124.155 193.994 124.224 194.166 124.224Z" fill="white"/>
<path d="M200.144 179.638C200.316 179.638 200.481 179.57 200.603 179.448C200.724 179.326 200.793 179.161 200.793 178.989C200.793 178.817 200.724 178.653 200.603 178.531C200.481 178.409 200.316 178.341 200.144 178.341C199.972 178.341 199.807 178.409 199.686 178.531C199.564 178.653 199.496 178.817 199.496 178.989C199.496 179.161 199.564 179.326 199.686 179.448C199.807 179.57 199.972 179.638 200.144 179.638Z" fill="white"/>
<path d="M197.227 166.385C197.341 166.385 197.451 166.34 197.532 166.258C197.613 166.177 197.659 166.067 197.659 165.953C197.659 165.838 197.613 165.728 197.532 165.647C197.451 165.566 197.341 165.521 197.227 165.521C197.112 165.521 197.002 165.566 196.921 165.647C196.84 165.728 196.794 165.838 196.794 165.953C196.794 166.067 196.84 166.177 196.921 166.258C197.002 166.34 197.112 166.385 197.227 166.385Z" fill="white"/>
<path d="M207.54 83.1688C207.655 83.1688 207.765 83.1232 207.846 83.0422C207.927 82.9611 207.972 82.8511 207.972 82.7365C207.972 82.6219 207.927 82.5119 207.846 82.4309C207.765 82.3498 207.655 82.3043 207.54 82.3043C207.425 82.3043 207.315 82.3498 207.234 82.4309C207.153 82.5119 207.108 82.6219 207.108 82.7365C207.108 82.8511 207.153 82.9611 207.234 83.0422C207.315 83.1232 207.425 83.1688 207.54 83.1688Z" fill="white"/>
<path d="M284.986 119.46C285.101 119.46 285.21 119.415 285.292 119.334C285.373 119.253 285.418 119.143 285.418 119.028C285.418 118.913 285.373 118.803 285.292 118.722C285.21 118.641 285.101 118.596 284.986 118.596C284.871 118.596 284.761 118.641 284.68 118.722C284.599 118.803 284.554 118.913 284.554 119.028C284.554 119.143 284.599 119.253 284.68 119.334C284.761 119.415 284.871 119.46 284.986 119.46Z" fill="white"/>
<path d="M212.943 177.377C213.058 177.377 213.168 177.332 213.249 177.251C213.33 177.169 213.375 177.06 213.375 176.945C213.375 176.83 213.33 176.72 213.249 176.639C213.168 176.558 213.058 176.513 212.943 176.513C212.829 176.513 212.719 176.558 212.638 176.639C212.556 176.72 212.511 176.83 212.511 176.945C212.511 177.06 212.556 177.169 212.638 177.251C212.719 177.332 212.829 177.377 212.943 177.377Z" fill="white"/>
<path d="M403.551 296.846C403.666 296.846 403.776 296.801 403.857 296.719C403.938 296.638 403.984 296.528 403.984 296.414C403.984 296.299 403.938 296.189 403.857 296.108C403.776 296.027 403.666 295.982 403.551 295.982C403.437 295.982 403.327 296.027 403.246 296.108C403.165 296.189 403.119 296.299 403.119 296.414C403.119 296.528 403.165 296.638 403.246 296.719C403.327 296.801 403.437 296.846 403.551 296.846Z" fill="white"/>
<path d="M396 334.127C396.115 334.127 396.225 334.082 396.306 334.001C396.387 333.92 396.432 333.81 396.432 333.695C396.432 333.581 396.387 333.471 396.306 333.39C396.225 333.308 396.115 333.263 396 333.263C395.885 333.263 395.775 333.308 395.694 333.39C395.613 333.471 395.568 333.581 395.568 333.695C395.568 333.81 395.613 333.92 395.694 334.001C395.775 334.082 395.885 334.127 396 334.127Z" fill="white"/>
<path d="M398.395 338.852C398.509 338.852 398.619 338.806 398.7 338.725C398.781 338.644 398.827 338.534 398.827 338.42C398.827 338.305 398.781 338.195 398.7 338.114C398.619 338.033 398.509 337.987 398.395 337.987C398.28 337.987 398.17 338.033 398.089 338.114C398.008 338.195 397.962 338.305 397.962 338.42C397.962 338.534 398.008 338.644 398.089 338.725C398.17 338.806 398.28 338.852 398.395 338.852Z" fill="white"/>
<path d="M426.69 323.019C426.804 323.019 426.914 322.973 426.995 322.892C427.076 322.811 427.122 322.701 427.122 322.586C427.122 322.472 427.076 322.362 426.995 322.281C426.914 322.2 426.804 322.154 426.69 322.154C426.575 322.154 426.465 322.2 426.384 322.281C426.303 322.362 426.257 322.472 426.257 322.586C426.257 322.701 426.303 322.811 426.384 322.892C426.465 322.973 426.575 323.019 426.69 323.019Z" fill="white"/>
</g>
</g>
<defs>
<linearGradient id="paint0_linear_85_288" x1="816.581" y1="872.725" x2="90.8375" y2="89.5357" gradientUnits="userSpaceOnUse">
<stop offset="0.06" stop-color="#2D387E"/>
<stop offset="0.18" stop-color="#36397E"/>
<stop offset="0.39" stop-color="#503A7F"/>
<stop offset="0.48" stop-color="#5D3B7F"/>
<stop offset="0.52" stop-color="#694082"/>
<stop offset="0.6" stop-color="#884C8B"/>
<stop offset="0.71" stop-color="#BB6199"/>
<stop offset="0.8" stop-color="#EB74A6"/>
<stop offset="1" stop-color="#E3A1C0"/>
</linearGradient>
<linearGradient id="paint1_linear_85_288" x1="191.51" y1="247.816" x2="303.21" y2="254.277" gradientUnits="userSpaceOnUse">
<stop offset="0.05" stop-color="#51B7DC"/>
<stop offset="1" stop-color="white"/>
</linearGradient>
<linearGradient id="paint2_linear_85_288" x1="269.85" y1="129.856" x2="271.586" y2="99.8343" gradientUnits="userSpaceOnUse">
<stop stop-color="#64C6D2"/>
<stop offset="0.83" stop-color="#342B52"/>
</linearGradient>
<linearGradient id="paint3_linear_85_288" x1="203.618" y1="198.582" x2="225.264" y2="199.834" gradientUnits="userSpaceOnUse">
<stop offset="0.1" stop-color="#1C224C"/>
<stop offset="0.42" stop-color="#2A326E"/>
</linearGradient>
<linearGradient id="paint4_linear_85_288" x1="201.191" y1="193.987" x2="225.257" y2="195.378" gradientUnits="userSpaceOnUse">
<stop offset="0.41" stop-color="#1C224C"/>
<stop offset="1" stop-color="#2A326E"/>
</linearGradient>
<linearGradient id="paint5_linear_85_288" x1="204.988" y1="200.365" x2="212.765" y2="202.903" gradientUnits="userSpaceOnUse">
<stop offset="0.34" stop-color="#F78F21"/>
<stop offset="1" stop-color="#FFC717"/>
</linearGradient>
<linearGradient id="paint6_linear_85_288" x1="232.006" y1="170.029" x2="255.701" y2="171.399" gradientUnits="userSpaceOnUse">
<stop offset="0.1" stop-color="#1C224C"/>
<stop offset="0.42" stop-color="#2A326E"/>
</linearGradient>
<linearGradient id="paint7_linear_85_288" x1="114.694" y1="225.323" x2="266.341" y2="234.094" gradientUnits="userSpaceOnUse">
<stop offset="0.1" stop-color="#AE1E48"/>
<stop offset="1" stop-color="#4A1426"/>
</linearGradient>
<linearGradient id="paint8_linear_85_288" x1="120.731" y1="120.946" x2="145.625" y2="122.385" gradientUnits="userSpaceOnUse">
<stop offset="0.1" stop-color="#1C224C"/>
<stop offset="0.42" stop-color="#2A326E"/>
</linearGradient>
<linearGradient id="paint9_linear_85_288" x1="143.997" y1="253.026" x2="172.033" y2="254.648" gradientUnits="userSpaceOnUse">
<stop offset="0.1" stop-color="#1C224C"/>
<stop offset="0.42" stop-color="#2A326E"/>
</linearGradient>
<linearGradient id="paint10_linear_85_288" x1="134.434" y1="377.286" x2="293.978" y2="386.513" gradientUnits="userSpaceOnUse">
<stop offset="0.41" stop-color="#1C224C"/>
<stop offset="1" stop-color="#2A326E"/>
</linearGradient>
<linearGradient id="paint11_linear_85_288" x1="213.949" y1="214.147" x2="284.849" y2="218.248" gradientUnits="userSpaceOnUse">
<stop offset="0.41" stop-color="#1C224C"/>
<stop offset="1" stop-color="#2A326E"/>
</linearGradient>
<linearGradient id="paint12_linear_85_288" x1="293.783" y1="343.62" x2="301.476" y2="210.589" gradientUnits="userSpaceOnUse">
<stop stop-color="#2D387E"/>
<stop offset="0.34" stop-color="#4C387E"/>
<stop offset="0.6" stop-color="#5D3B7F"/>
<stop offset="1" stop-color="#EB74A6"/>
</linearGradient>
<linearGradient id="paint13_linear_85_288" x1="222.177" y1="282.184" x2="236.922" y2="283.037" gradientUnits="userSpaceOnUse">
<stop offset="0.34" stop-color="#F78F21"/>
<stop offset="1" stop-color="#FFC717"/>
</linearGradient>
<linearGradient id="paint14_linear_85_288" x1="330.824" y1="320.325" x2="356.098" y2="321.787" gradientUnits="userSpaceOnUse">
<stop offset="0.1" stop-color="#1C224C"/>
<stop offset="0.42" stop-color="#2A326E"/>
</linearGradient>
<linearGradient id="paint15_linear_85_288" x1="352.281" y1="329.923" x2="352.415" y2="330.008" gradientUnits="userSpaceOnUse">
<stop offset="0.05" stop-color="#51B7DC"/>
<stop offset="1" stop-color="white"/>
</linearGradient>
<linearGradient id="paint16_linear_85_288" x1="352.388" y1="329.799" x2="352.504" y2="329.879" gradientUnits="userSpaceOnUse">
<stop offset="0.05" stop-color="#51B7DC"/>
<stop offset="1" stop-color="white"/>
</linearGradient>
<linearGradient id="paint17_linear_85_288" x1="257.183" y1="208.876" x2="379.173" y2="289.038" gradientUnits="userSpaceOnUse">
<stop offset="0.05" stop-color="#51B7DC"/>
<stop offset="1" stop-color="white"/>
</linearGradient>
<linearGradient id="paint18_linear_85_288" x1="239.725" y1="194.288" x2="321.012" y2="198.99" gradientUnits="userSpaceOnUse">
<stop offset="0.1" stop-color="#1C224C"/>
<stop offset="0.42" stop-color="#2A326E"/>
</linearGradient>
<linearGradient id="paint19_linear_85_288" x1="240.002" y1="187.113" x2="369.995" y2="194.631" gradientUnits="userSpaceOnUse">
<stop offset="0.41" stop-color="#1C224C"/>
<stop offset="1" stop-color="#2A326E"/>
</linearGradient>
<linearGradient id="paint20_linear_85_288" x1="246.5" y1="182.176" x2="340.297" y2="187.601" gradientUnits="userSpaceOnUse">
<stop offset="0.1" stop-color="#1C224C"/>
<stop offset="0.42" stop-color="#2A326E"/>
</linearGradient>
<linearGradient id="paint21_linear_85_288" x1="259.634" y1="139.929" x2="264.898" y2="140.233" gradientUnits="userSpaceOnUse">
<stop offset="0.56" stop-color="#B73D67"/>
<stop offset="1" stop-color="#342B52" stop-opacity="0"/>
</linearGradient>
<linearGradient id="paint22_linear_85_288" x1="246.651" y1="198.286" x2="256.064" y2="203.25" gradientUnits="userSpaceOnUse">
<stop offset="0.34" stop-color="#F78F21"/>
<stop offset="1" stop-color="#FFC717"/>
</linearGradient>
<linearGradient id="paint23_linear_85_288" x1="217.325" y1="209.238" x2="239.225" y2="210.505" gradientUnits="userSpaceOnUse">
<stop offset="0.1" stop-color="#1C224C"/>
<stop offset="0.42" stop-color="#2A326E"/>
</linearGradient>
<linearGradient id="paint24_linear_85_288" x1="144.325" y1="233.653" x2="158.592" y2="234.478" gradientUnits="userSpaceOnUse">
<stop offset="0.1" stop-color="#1C224C"/>
<stop offset="0.42" stop-color="#2A326E"/>
</linearGradient>
<linearGradient id="paint25_linear_85_288" x1="153.623" y1="237.36" x2="167.885" y2="238.185" gradientUnits="userSpaceOnUse">
<stop offset="0.1" stop-color="#1C224C"/>
<stop offset="0.42" stop-color="#2A326E"/>
</linearGradient>
<linearGradient id="paint26_linear_85_288" x1="158.309" y1="247.667" x2="172.571" y2="248.492" gradientUnits="userSpaceOnUse">
<stop offset="0.1" stop-color="#1C224C"/>
<stop offset="0.42" stop-color="#2A326E"/>
</linearGradient>
<linearGradient id="paint27_linear_85_288" x1="163.583" y1="256.952" x2="177.845" y2="257.777" gradientUnits="userSpaceOnUse">
<stop offset="0.1" stop-color="#1C224C"/>
<stop offset="0.42" stop-color="#2A326E"/>
</linearGradient>
<linearGradient id="paint28_linear_85_288" x1="313.654" y1="344.176" x2="341.513" y2="345.788" gradientUnits="userSpaceOnUse">
<stop offset="0.1" stop-color="#1C224C"/>
<stop offset="0.42" stop-color="#2A326E"/>
</linearGradient>
<linearGradient id="paint29_linear_85_288" x1="302.099" y1="332.848" x2="322.972" y2="334.055" gradientUnits="userSpaceOnUse">
<stop offset="0.41" stop-color="#1C224C"/>
<stop offset="1" stop-color="#2A326E"/>
</linearGradient>
<linearGradient id="paint30_linear_85_288" x1="310.454" y1="325.657" x2="316.834" y2="335.564" gradientUnits="userSpaceOnUse">
<stop offset="0.1" stop-color="#1C224C"/>
<stop offset="0.42" stop-color="#2A326E"/>
</linearGradient>
<linearGradient id="paint31_linear_85_288" x1="217.636" y1="145.609" x2="227.509" y2="146.18" gradientUnits="userSpaceOnUse">
<stop offset="0.49" stop-color="#B73D67"/>
<stop offset="1" stop-color="#342B52" stop-opacity="0"/>
</linearGradient>
<linearGradient id="paint32_linear_85_288" x1="243.128" y1="131.562" x2="246.787" y2="68.2913" gradientUnits="userSpaceOnUse">
<stop stop-color="#64C6D2"/>
<stop offset="0.83" stop-color="#342B52"/>
</linearGradient>
<linearGradient id="paint33_linear_85_288" x1="213.006" y1="153.564" x2="215.029" y2="118.597" gradientUnits="userSpaceOnUse">
<stop offset="0.64" stop-color="#EF467A"/>
<stop offset="1" stop-color="#342B52" stop-opacity="0"/>
</linearGradient>
<linearGradient id="paint34_linear_85_288" x1="211.28" y1="108.556" x2="211.582" y2="103.33" gradientUnits="userSpaceOnUse">
<stop offset="0.64" stop-color="#EF467A"/>
<stop offset="1" stop-color="#342B52" stop-opacity="0"/>
</linearGradient>
<linearGradient id="paint35_linear_85_288" x1="222.35" y1="91.0551" x2="222.572" y2="87.2188" gradientUnits="userSpaceOnUse">
<stop stop-color="#64C6D2"/>
<stop offset="0.83" stop-color="#342B52"/>
</linearGradient>
<linearGradient id="paint36_linear_85_288" x1="243.521" y1="133.979" x2="246.943" y2="74.8079" gradientUnits="userSpaceOnUse">
<stop stop-color="#64C6D2"/>
<stop offset="0.65" stop-color="#342B52"/>
</linearGradient>
<linearGradient id="paint37_linear_85_288" x1="227.377" y1="151.537" x2="228.58" y2="130.738" gradientUnits="userSpaceOnUse">
<stop stop-color="#64C6D2"/>
<stop offset="0.65" stop-color="#342B52"/>
</linearGradient>
<clipPath id="clip0_85_288">
<rect width="600" height="470.32" fill="white"/>
</clipPath>
<clipPath id="clip1_85_288">
<rect width="599.981" height="470.32" fill="white" transform="translate(0.00933838)"/>
</clipPath>
</defs>
</svg>
