<svg width="123" height="727" viewBox="0 0 123 727" fill="none" xmlns="http://www.w3.org/2000/svg">
<g clip-path="url(#clip0_85_1489)">
<path d="M101.1 97.78V621.78" stroke="url(#paint0_linear_85_1489)" stroke-width="2"/>
<g filter="url(#filter0_d_85_1489)">
<path d="M100.1 115.78C107.832 115.78 114.1 109.512 114.1 101.78C114.1 94.048 107.832 87.78 100.1 87.78C92.368 87.78 86.1 94.048 86.1 101.78C86.1 109.512 92.368 115.78 100.1 115.78Z" fill="#61AD00"/>
</g>
<g filter="url(#filter1_d_85_1489)">
<path d="M100.1 380.78C107.832 380.78 114.1 374.512 114.1 366.78C114.1 359.048 107.832 352.78 100.1 352.78C92.368 352.78 86.1 359.048 86.1 366.78C86.1 374.512 92.368 380.78 100.1 380.78Z" fill="#61AD00"/>
</g>
<g filter="url(#filter2_d_85_1489)">
<path d="M100.1 634.78C107.832 634.78 114.1 628.512 114.1 620.78C114.1 613.048 107.832 606.78 100.1 606.78C92.368 606.78 86.1 613.048 86.1 620.78C86.1 628.512 92.368 634.78 100.1 634.78Z" fill="#61AD00"/>
</g>
<path d="M12.88 116.212C10.552 116.212 8.55997 115.672 6.90397 114.592C5.24797 113.488 3.96397 111.964 3.05197 110.02C2.16397 108.052 1.71997 105.772 1.71997 103.18C1.71997 100.612 2.16397 98.344 3.05197 96.3759C3.96397 94.4079 5.24797 92.8839 6.90397 91.8039C8.55997 90.6999 10.552 90.1479 12.88 90.1479C15.208 90.1479 17.2 90.6999 18.856 91.8039C20.512 92.8839 21.784 94.4079 22.672 96.3759C23.584 98.344 24.04 100.612 24.04 103.18C24.04 105.772 23.584 108.052 22.672 110.02C21.784 111.964 20.512 113.488 18.856 114.592C17.2 115.672 15.208 116.212 12.88 116.212ZM12.88 112.072C14.776 112.072 16.324 111.28 17.524 109.696C18.724 108.112 19.324 105.94 19.324 103.18C19.324 100.42 18.724 98.2479 17.524 96.6639C16.324 95.0799 14.776 94.2879 12.88 94.2879C10.96 94.2879 9.39997 95.0799 8.19997 96.6639C7.02397 98.2479 6.43597 100.42 6.43597 103.18C6.43597 105.94 7.02397 108.112 8.19997 109.696C9.39997 111.28 10.96 112.072 12.88 112.072ZM30.8426 115.78V95.8359L26.7026 96.8079V93.2799L32.7866 90.5799H35.6306V115.78H30.8426Z" fill="white"/>
<path d="M12.88 381.212C10.552 381.212 8.55997 380.672 6.90397 379.592C5.24797 378.488 3.96397 376.964 3.05197 375.02C2.16397 373.052 1.71997 370.772 1.71997 368.18C1.71997 365.612 2.16397 363.344 3.05197 361.376C3.96397 359.408 5.24797 357.884 6.90397 356.804C8.55997 355.7 10.552 355.148 12.88 355.148C15.208 355.148 17.2 355.7 18.856 356.804C20.512 357.884 21.784 359.408 22.672 361.376C23.584 363.344 24.04 365.612 24.04 368.18C24.04 370.772 23.584 373.052 22.672 375.02C21.784 376.964 20.512 378.488 18.856 379.592C17.2 380.672 15.208 381.212 12.88 381.212ZM12.88 377.072C14.776 377.072 16.324 376.28 17.524 374.696C18.724 373.112 19.324 370.94 19.324 368.18C19.324 365.42 18.724 363.248 17.524 361.664C16.324 360.08 14.776 359.288 12.88 359.288C10.96 359.288 9.39997 360.08 8.19997 361.664C7.02397 363.248 6.43597 365.42 6.43597 368.18C6.43597 370.94 7.02397 373.112 8.19997 374.696C9.39997 376.28 10.96 377.072 12.88 377.072ZM27.3188 380.78V377.432C28.8548 376.16 30.3428 374.9 31.7828 373.652C33.2468 372.404 34.5428 371.168 35.6708 369.944C36.8228 368.72 37.7348 367.532 38.4068 366.38C39.1028 365.204 39.4508 364.064 39.4508 362.96C39.4508 361.928 39.1628 361.016 38.5868 360.224C38.0348 359.432 37.1108 359.036 35.8148 359.036C34.4948 359.036 33.4988 359.468 32.8268 360.332C32.1548 361.196 31.8188 362.24 31.8188 363.464H27.3548C27.4028 361.616 27.8108 360.08 28.5788 358.856C29.3468 357.608 30.3668 356.684 31.6388 356.084C32.9108 355.46 34.3388 355.148 35.9228 355.148C38.4908 355.148 40.4828 355.856 41.8988 357.272C43.3388 358.664 44.0588 360.476 44.0588 362.708C44.0588 364.1 43.7348 365.456 43.0868 366.776C42.4628 368.096 41.6348 369.368 40.6028 370.592C39.5708 371.816 38.4548 372.968 37.2548 374.048C36.0548 375.104 34.8908 376.088 33.7628 377H44.6708V380.78H27.3188Z" fill="white"/>
<path d="M12.88 635.212C10.552 635.212 8.55997 634.672 6.90397 633.592C5.24797 632.488 3.96397 630.964 3.05197 629.02C2.16397 627.052 1.71997 624.772 1.71997 622.18C1.71997 619.612 2.16397 617.344 3.05197 615.376C3.96397 613.408 5.24797 611.884 6.90397 610.804C8.55997 609.7 10.552 609.148 12.88 609.148C15.208 609.148 17.2 609.7 18.856 610.804C20.512 611.884 21.784 613.408 22.672 615.376C23.584 617.344 24.04 619.612 24.04 622.18C24.04 624.772 23.584 627.052 22.672 629.02C21.784 630.964 20.512 632.488 18.856 633.592C17.2 634.672 15.208 635.212 12.88 635.212ZM12.88 631.072C14.776 631.072 16.324 630.28 17.524 628.696C18.724 627.112 19.324 624.94 19.324 622.18C19.324 619.42 18.724 617.248 17.524 615.664C16.324 614.08 14.776 613.288 12.88 613.288C10.96 613.288 9.39997 614.08 8.19997 615.664C7.02397 617.248 6.43597 619.42 6.43597 622.18C6.43597 624.94 7.02397 627.112 8.19997 628.696C9.39997 630.28 10.96 631.072 12.88 631.072ZM36.3506 635.212C34.6946 635.212 33.1946 634.924 31.8506 634.348C30.5066 633.748 29.4266 632.836 28.6106 631.612C27.7946 630.388 27.3626 628.852 27.3146 627.004H31.8506C31.8746 628.228 32.2706 629.26 33.0386 630.1C33.8306 630.916 34.9346 631.324 36.3506 631.324C37.6946 631.324 38.7266 630.952 39.4466 630.208C40.1666 629.464 40.5266 628.528 40.5266 627.4C40.5266 626.08 40.0466 625.084 39.0866 624.412C38.1506 623.716 36.9386 623.368 35.4506 623.368H33.5786V619.588H35.4866C36.7106 619.588 37.7306 619.3 38.5466 618.724C39.3626 618.148 39.7706 617.296 39.7706 616.168C39.7706 615.232 39.4586 614.488 38.8346 613.936C38.2346 613.36 37.3946 613.072 36.3146 613.072C35.1386 613.072 34.2146 613.42 33.5426 614.116C32.8946 614.812 32.5346 615.664 32.4626 616.672H27.9626C28.0586 614.344 28.8626 612.508 30.3746 611.164C31.9106 609.82 33.8906 609.148 36.3146 609.148C38.0426 609.148 39.4946 609.46 40.6706 610.084C41.8706 610.684 42.7706 611.488 43.3706 612.496C43.9946 613.504 44.3066 614.62 44.3066 615.844C44.3066 617.26 43.9106 618.46 43.1186 619.444C42.3506 620.404 41.3906 621.052 40.2386 621.388C41.6546 621.676 42.8066 622.372 43.6946 623.476C44.5826 624.556 45.0266 625.924 45.0266 627.58C45.0266 628.972 44.6906 630.244 44.0186 631.396C43.3466 632.548 42.3626 633.472 41.0666 634.168C39.7946 634.864 38.2226 635.212 36.3506 635.212Z" fill="white"/>
</g>
<defs>
<filter id="filter0_d_85_1489" x="86.1" y="87.78" width="28" height="28" filterUnits="userSpaceOnUse" color-interpolation-filters="sRGB">
<feFlood flood-opacity="0" result="BackgroundImageFix"/>
<feColorMatrix in="SourceAlpha" type="matrix" values="0 0 0 0 0 0 0 0 0 0 0 0 0 0 0 0 0 0 127 0" result="hardAlpha"/>
<feOffset/>
<feColorMatrix type="matrix" values="0 0 0 0 1 0 0 0 0 0.796112 0 0 0 0 0.799689 0 0 0 0.13 0"/>
<feBlend mode="normal" in2="BackgroundImageFix" result="effect1_dropShadow_85_1489"/>
<feBlend mode="normal" in="SourceGraphic" in2="effect1_dropShadow_85_1489" result="shape"/>
</filter>
<filter id="filter1_d_85_1489" x="86.1" y="352.78" width="28" height="28" filterUnits="userSpaceOnUse" color-interpolation-filters="sRGB">
<feFlood flood-opacity="0" result="BackgroundImageFix"/>
<feColorMatrix in="SourceAlpha" type="matrix" values="0 0 0 0 0 0 0 0 0 0 0 0 0 0 0 0 0 0 127 0" result="hardAlpha"/>
<feOffset/>
<feColorMatrix type="matrix" values="0 0 0 0 1 0 0 0 0 0.796112 0 0 0 0 0.799689 0 0 0 0.13 0"/>
<feBlend mode="normal" in2="BackgroundImageFix" result="effect1_dropShadow_85_1489"/>
<feBlend mode="normal" in="SourceGraphic" in2="effect1_dropShadow_85_1489" result="shape"/>
</filter>
<filter id="filter2_d_85_1489" x="86.1" y="606.78" width="28" height="28" filterUnits="userSpaceOnUse" color-interpolation-filters="sRGB">
<feFlood flood-opacity="0" result="BackgroundImageFix"/>
<feColorMatrix in="SourceAlpha" type="matrix" values="0 0 0 0 0 0 0 0 0 0 0 0 0 0 0 0 0 0 127 0" result="hardAlpha"/>
<feOffset/>
<feColorMatrix type="matrix" values="0 0 0 0 1 0 0 0 0 0.796112 0 0 0 0 0.799689 0 0 0 0.13 0"/>
<feBlend mode="normal" in2="BackgroundImageFix" result="effect1_dropShadow_85_1489"/>
<feBlend mode="normal" in="SourceGraphic" in2="effect1_dropShadow_85_1489" result="shape"/>
</filter>
<linearGradient id="paint0_linear_85_1489" x1="-nan" y1="-nan" x2="-nan" y2="-nan" gradientUnits="userSpaceOnUse">
<stop stop-color="white"/>
<stop offset="1" stop-color="white" stop-opacity="0"/>
</linearGradient>
<clipPath id="clip0_85_1489">
<rect width="122" height="726.56" fill="white" transform="translate(0.0999756)"/>
</clipPath>
</defs>
</svg>
