<svg width="80" height="80" viewBox="0 0 80 80" fill="none" xmlns="http://www.w3.org/2000/svg">
<g clip-path="url(#clip0_85_729)">
<g clip-path="url(#clip1_85_729)">
<g filter="url(#filter0_d_85_729)">
<path d="M40 64.6808C53.6309 64.6808 64.6809 53.6308 64.6809 39.9999C64.6809 26.3691 53.6309 15.3191 40 15.3191C26.3691 15.3191 15.3192 26.3691 15.3192 39.9999C15.3192 53.6308 26.3691 64.6808 40 64.6808Z" fill="#61AD00"/>
</g>
<mask id="mask0_85_729" style="mask-type:luminance" maskUnits="userSpaceOnUse" x="28" y="28" width="24" height="24">
<path d="M51.0638 28.0851H28.0851V51.0638H51.0638V28.0851Z" fill="white"/>
</mask>
<g mask="url(#mask0_85_729)">
<path d="M49.1132 41.8442C48.9274 41.3847 48.4042 41.1626 47.9446 41.3485C47.485 41.5343 47.263 42.0574 47.4488 42.5171L48.5059 45.1321L45.3663 43.748C45.139 43.6478 44.8803 43.6463 44.6519 43.7437C43.5789 44.2016 42.4294 44.4337 41.2354 44.4337C36.4299 44.4337 33.2019 40.6711 33.2019 37.157C33.2019 33.1446 36.8057 29.8803 41.2354 29.8803C45.6652 29.8803 49.269 33.1446 49.269 37.157C49.269 37.47 49.2398 37.8449 49.1891 38.1853C49.1159 38.6756 49.4541 39.1324 49.9444 39.2056C50.4348 39.2789 50.8915 38.9406 50.9646 38.4502C51.0288 38.0198 51.0642 37.5605 51.0642 37.157C51.0642 34.7186 50.0316 32.4308 48.1567 30.7148C46.304 29.019 43.8459 28.0851 41.2354 28.0851C38.6249 28.0851 36.167 29.019 34.3141 30.7147C32.6386 32.2481 31.6366 34.2385 31.4422 36.3847C29.3348 37.7802 28.0855 40.0166 28.0855 42.4254C28.0855 43.9302 28.5596 45.3579 29.462 46.5866L28.151 49.8298C28.014 50.1684 28.096 50.5563 28.3584 50.8106C28.5293 50.9764 28.7545 51.0638 28.9833 51.0638C29.1055 51.0637 29.2287 51.0389 29.3452 50.9876L33.1253 49.3211C34.0763 49.675 35.0815 49.8543 36.119 49.8543C36.1415 49.8543 36.1635 49.8526 36.1855 49.851C37.6862 49.8396 39.1451 49.4448 40.4087 48.7062C41.5405 48.0444 42.4715 47.1355 43.1241 46.0619C43.7614 45.9475 44.3842 45.7746 44.9888 45.5436L49.8045 47.6664C49.921 47.7177 50.0441 47.7427 50.1664 47.7427C50.3951 47.7426 50.6204 47.6552 50.7914 47.4894C51.0537 47.2351 51.1357 46.8473 50.9988 46.5086L49.1132 41.8442ZM36.1191 48.0568C36.1069 48.0568 36.095 48.0581 36.0828 48.0586C35.1662 48.0539 34.2841 47.8738 33.4601 47.5223C33.2318 47.4247 32.9732 47.4264 32.7458 47.5266L30.6438 48.4532L31.3219 46.7758C31.4473 46.4657 31.3898 46.1116 31.1728 45.8571C30.3275 44.8653 29.8807 43.6788 29.8807 42.4254C29.8807 40.991 30.4841 39.6319 31.5399 38.6013C31.8686 40.3933 32.7961 42.1073 34.1951 43.4538C35.9361 45.1293 38.2389 46.1 40.7254 46.2168C39.558 47.366 37.8874 48.0568 36.1191 48.0568Z" fill="white"/>
<path d="M41.1903 38.0935C41.686 38.0935 42.0878 37.6916 42.0878 37.1958C42.0878 36.7001 41.686 36.2982 41.1903 36.2982C40.6946 36.2982 40.2927 36.7001 40.2927 37.1958C40.2927 37.6916 40.6946 38.0935 41.1903 38.0935Z" fill="white"/>
<path d="M44.7807 38.0935C45.2764 38.0935 45.6783 37.6916 45.6783 37.1958C45.6783 36.7001 45.2764 36.2982 44.7807 36.2982C44.2849 36.2982 43.8831 36.7001 43.8831 37.1958C43.8831 37.6916 44.2849 38.0935 44.7807 38.0935Z" fill="white"/>
<path d="M37.5998 38.0935C38.0956 38.0935 38.4975 37.6916 38.4975 37.1958C38.4975 36.7001 38.0956 36.2982 37.5998 36.2982C37.1041 36.2982 36.7022 36.7001 36.7022 37.1958C36.7022 37.6916 37.1041 38.0935 37.5998 38.0935Z" fill="white"/>
</g>
</g>
</g>
<defs>
<filter id="filter0_d_85_729" x="0.851068" y="0.851007" width="78.2979" height="78.2979" filterUnits="userSpaceOnUse" color-interpolation-filters="sRGB">
<feFlood flood-opacity="0" result="BackgroundImageFix"/>
<feColorMatrix in="SourceAlpha" type="matrix" values="0 0 0 0 0 0 0 0 0 0 0 0 0 0 0 0 0 0 127 0" result="hardAlpha"/>
<feOffset/>
<feGaussianBlur stdDeviation="7.23404"/>
<feColorMatrix type="matrix" values="0 0 0 0 1 0 0 0 0 0.196536 0 0 0 0 0.41785 0 0 0 0.34 0"/>
<feBlend mode="normal" in2="BackgroundImageFix" result="effect1_dropShadow_85_729"/>
<feBlend mode="normal" in="SourceGraphic" in2="effect1_dropShadow_85_729" result="shape"/>
</filter>
<clipPath id="clip0_85_729">
<rect width="80" height="80" fill="white"/>
</clipPath>
<clipPath id="clip1_85_729">
<rect width="80" height="80" fill="white"/>
</clipPath>
</defs>
</svg>
