<svg width="151" height="194" viewBox="0 0 151 194" fill="none" xmlns="http://www.w3.org/2000/svg">
<g clip-path="url(#clip0_85_204)">
<path fill-rule="evenodd" clip-rule="evenodd" d="M65.4772 131.225V145.321H123.464V111.606L70.8165 122.89L65.4772 131.225Z" fill="url(#paint0_linear_85_204)"/>
<path fill-rule="evenodd" clip-rule="evenodd" d="M80.3446 72.7563C80.3446 72.7563 63.7471 79.472 62.0213 81.0444C60.2955 82.6168 57.7345 82.6125 53.8781 91.902C50.0217 101.192 46.8769 117.469 51.3214 126.188C55.7658 134.906 61.8935 132.759 68.1788 130.185C74.4641 127.611 80.3489 122.839 80.3489 122.839L89.4679 77.4266L84.4056 71.4609L80.3446 72.7563Z" fill="url(#paint1_linear_85_204)"/>
<path fill-rule="evenodd" clip-rule="evenodd" d="M92.063 67.7408C92.1269 70.3487 86.1612 77.1794 86.1612 77.1794C81.7252 78.4578 80.4597 74.1966 80.4597 74.1966L79.8887 67.0462L89.4636 63.4796C89.972 64.8248 90.7691 66.0423 91.7988 67.0462C91.975 67.2339 92.07 67.4835 92.063 67.7408Z" fill="#E57A82"/>
<path opacity="0.73" fill-rule="evenodd" clip-rule="evenodd" d="M92.063 67.7408C90.6417 68.846 89.0236 69.6716 87.2947 70.174C82.2238 71.8103 79.8887 67.0292 79.8887 67.0292L89.4636 63.4625C89.972 64.8078 90.7691 66.0252 91.7988 67.0292C91.9793 67.221 92.0746 67.4777 92.063 67.7408Z" fill="url(#paint2_linear_85_204)"/>
<path fill-rule="evenodd" clip-rule="evenodd" d="M97.7475 49.3195C97.7475 49.3195 87.7464 36.8937 78.4612 38.6025C71.021 39.9661 68.2598 45.1137 67.4586 47.125C67.3482 47.3863 67.2528 47.6538 67.1731 47.9261C67.1731 47.9261 52.7489 34.7504 51.6069 31.4692C50.4648 28.1881 61.1733 7.03955 63.7471 5.32228C64.9573 4.51264 65.7584 4.75127 66.176 5.63761C66.6405 6.62621 66.6277 8.42871 66.176 10.4656C65.3834 14.0195 65.0766 14.9143 65.0425 15.0251L65.0638 15.0038L65.1064 14.9569C66.2655 13.8618 79.275 1.55961 84.461 0.60509C88.0234 -0.0511399 89.1909 0.404812 88.6838 2.28402C88.4196 3.27262 87.6995 4.65326 86.6129 6.46855C83.6641 11.4201 83.4809 11.7312 83.4766 11.744C83.4766 11.744 96.4222 8.03668 97.8071 9.61334C98.0671 9.89884 98.033 10.3463 97.8071 10.8917C96.8271 13.2226 92.1951 17.1941 92.1951 17.1941C92.1951 17.1941 105.056 25.7634 106.628 30.3357C108.2 34.908 97.7475 49.3195 97.7475 49.3195Z" fill="#1D214C"/>
<path fill-rule="evenodd" clip-rule="evenodd" d="M67.4586 47.1207C67.3482 47.382 67.2528 47.6495 67.1731 47.9218C67.1731 47.9218 52.7489 34.7461 51.6069 31.4649C50.4648 28.1838 61.1733 7.03529 63.7471 5.31801C64.9573 4.50838 65.7584 4.74701 66.176 5.63334C64.4119 3.95868 61.9361 9.81787 59.5754 13.5294C57.2146 17.2409 52.4335 28.0176 53.8696 31.9592C55.3056 35.9009 66.6533 45.233 66.6533 45.233L67.4586 47.1207Z" fill="url(#paint3_linear_85_204)"/>
<path opacity="0.47" fill-rule="evenodd" clip-rule="evenodd" d="M71.7881 35.3853C71.7881 35.3853 65.2215 31.0303 63.6534 27.3145C63.6534 27.3145 67.7058 33.1013 79.1429 36.5315C90.5801 39.9618 95.178 40.6053 95.178 40.6053C90.7692 41.1228 86.3051 40.904 81.9681 39.9576C74.9371 38.3894 71.7881 35.3853 71.7881 35.3853Z" fill="url(#paint4_linear_85_204)"/>
<path fill-rule="evenodd" clip-rule="evenodd" d="M66.176 42.4632C66.176 42.4632 69.031 59.3206 70.6034 60.6033C72.1758 61.8859 79.0322 68.1755 83.4596 67.7494C87.887 67.3232 92.1738 63.8929 92.1738 63.8929C92.1738 63.8929 97.3171 54.4628 97.7475 49.3195C97.981 46.2008 97.0722 43.1035 95.1907 40.6053C95.1907 40.6053 77.2296 38.3895 71.8008 35.3853C71.7881 35.3853 68.7455 42.0328 66.176 42.4632Z" fill="#F48184"/>
<path fill-rule="evenodd" clip-rule="evenodd" d="M73.7482 44.8196C73.7482 44.8196 72.0437 48.4928 69.8194 49.3195C69.8194 49.3195 73.9613 50.1718 73.7482 44.8196Z" fill="url(#paint5_linear_85_204)"/>
<path d="M74.1293 55.2258C74.675 55.1359 74.9488 54.039 74.7408 52.7758C74.5328 51.5125 73.9218 50.5613 73.3761 50.6512C72.8304 50.741 72.5566 51.8379 72.7646 53.1012C72.9726 54.3644 73.5836 55.3156 74.1293 55.2258Z" fill="#1D214C"/>
<path opacity="0.15" fill-rule="evenodd" clip-rule="evenodd" d="M90.0645 65.3162C90.0645 65.3162 88.1768 66.6883 87.2095 66.7607C87.2095 66.7607 85.2749 66.9951 88.0617 62.8702C90.8486 58.7454 93.8485 53.7086 94.7604 48.8891C95.3491 45.9064 96.5505 43.0784 98.2887 40.584L98.881 50.2272L94.8072 63.7821L90.0645 65.3162Z" fill="url(#paint6_linear_85_204)"/>
<path fill-rule="evenodd" clip-rule="evenodd" d="M84.4013 42.8637C84.4013 42.8637 87.1157 45.8807 89.4637 46.0341C89.4637 46.0341 85.7479 48.0411 84.4013 42.8637Z" fill="url(#paint7_linear_85_204)"/>
<path fill-rule="evenodd" clip-rule="evenodd" d="M111.925 70.3444C111.925 70.3444 132.805 76.1653 134.726 92.554C136.648 108.943 127.457 121.53 136.457 142.751C145.456 163.972 150.6 192.893 150.6 192.893H122.578L111.925 70.3444Z" fill="url(#paint8_linear_85_204)"/>
<path d="M87.0444 52.9257C87.5928 52.8539 87.9026 51.7666 87.7364 50.4972C87.5702 49.2278 86.9909 48.2569 86.4425 48.3287C85.8941 48.4005 85.5843 49.4878 85.7506 50.7572C85.9168 52.0266 86.4961 52.9975 87.0444 52.9257Z" fill="#1D214C"/>
<path fill-rule="evenodd" clip-rule="evenodd" d="M78.5336 52.5325C78.5336 52.5325 77.7538 58.4641 79.1429 58.3192C79.9568 58.2432 80.7461 57.9995 81.4611 57.6033C81.4611 57.6033 78.1032 59.9726 78.5336 52.5325Z" fill="url(#paint9_linear_85_204)"/>
<path fill-rule="evenodd" clip-rule="evenodd" d="M82.765 62.3674L82.1727 62.0819C82.1727 62.0563 83.4937 59.3888 86.4339 60.4328L86.2166 61.0507C84.8988 60.5115 83.3888 61.0876 82.765 62.3674Z" fill="#1D214C"/>
<path fill-rule="evenodd" clip-rule="evenodd" d="M107.732 44.858C108.021 45.8381 107.612 49.6519 105.776 55.9372C103.76 62.8617 97.5557 66.8033 92.8215 64.7622C92.8215 64.7622 90.8869 61.1657 92.3528 58.2425C93.8186 55.3193 96.2475 50.2144 96.2987 47.8366C96.3324 47.5342 96.4859 47.258 96.7248 47.0696C96.9038 45.3182 97.2574 41.628 97.2574 40.6777C97.2574 39.3994 97.9052 38.317 98.621 39.6082C99.2389 40.7246 99.3881 44.777 99.4179 45.7955H99.4435C99.5159 44.662 99.8227 39.7232 99.7588 38.3937C99.6864 36.8938 100.257 35.7304 101.037 35.5259C101.604 35.381 102.537 39.067 102.537 42.5995C102.763 39.6891 103.087 35.3043 103.04 34.1793C102.967 32.4749 104.685 32.2959 105.111 35.5259C105.28 35.2864 105.588 35.1874 105.865 35.283C106.129 35.3895 106.44 35.7091 106.769 36.3952C107.68 38.3213 107.821 44.8196 107.821 44.8196L107.732 44.858Z" fill="#F48184"/>
<path fill-rule="evenodd" clip-rule="evenodd" d="M116.186 121.76C106.117 131.621 95.3058 135.367 86.9367 130.014C78.5677 124.662 77.7197 117.371 79.0023 104.4C80.285 91.429 89.7193 68.0817 90.0815 65.329C90.4437 62.5762 91.8201 61.3831 91.8201 61.3831C91.8201 61.3831 98.212 60.5819 100.986 60.5308C103.76 60.4797 104.084 61.8688 103.232 64.0037C102.379 66.1386 102.55 69.4624 102.55 69.4624C102.55 69.4624 103.436 69.799 104.817 70.3146C108.835 71.8231 117.013 74.8613 119.399 75.5772C122.616 76.536 129.051 82.4293 132.05 91.9659C135.05 101.503 126.247 111.896 116.186 121.76Z" fill="url(#paint10_linear_85_204)"/>
<path opacity="0.52" fill-rule="evenodd" clip-rule="evenodd" d="M114.256 88.5783L117.784 83.0685C117.784 83.0685 115.896 87.1422 113.096 82.2162C110.297 77.2902 105.141 78.4663 105.141 78.4663L103.342 86.3922L105.068 92.5497L114.256 88.5783Z" fill="#328BA3"/>
<path fill-rule="evenodd" clip-rule="evenodd" d="M104.715 96.4828C103.884 102.534 102.307 111.103 101.442 115.658C101.762 113.264 102.154 109.071 102.537 101.728C103.36 86.0854 102.537 69.4794 102.537 69.4794C102.537 69.4794 103.423 69.816 104.804 70.3316C105.06 75.2022 105.682 89.439 104.715 96.4828Z" fill="#328BA3"/>
<path fill-rule="evenodd" clip-rule="evenodd" d="M114.907 100.855C114.679 101.067 114.466 101.296 114.273 101.541C113.8 102.129 113.344 102.819 112.837 103.458C112.563 103.835 112.259 104.188 111.929 104.515C111.553 104.89 111.122 105.204 110.651 105.448C110.361 105.593 110.092 105.725 109.845 105.875C109.283 106.137 108.742 106.445 108.23 106.795C107.786 107.102 107.402 107.488 107.097 107.933C106.347 109.002 106.202 109.002 105.098 108.9C104.631 108.821 104.199 108.599 103.862 108.265C103.54 107.98 103.254 107.656 103.01 107.302V107.272L103.257 105.525L105.107 92.554C105.107 92.554 111.396 88.3226 112.777 88.1053C114.157 87.8879 115.879 89.9291 116.096 91.0029C116.314 92.0767 116.284 99.568 114.907 100.855Z" fill="#F48184"/>
<path fill-rule="evenodd" clip-rule="evenodd" d="M114.907 100.855C114.679 101.067 114.466 101.296 114.273 101.541C114.937 99.1849 115.255 96.7445 115.214 94.2968C115.278 95.7669 115.389 99.1759 114.907 100.855Z" fill="#CC707C"/>
<path fill-rule="evenodd" clip-rule="evenodd" d="M112.815 103.463C112.542 103.839 112.238 104.192 111.908 104.52C111.908 104.52 112.802 98.6092 112.641 95.2854C112.641 95.2854 113.518 100.782 112.815 103.463Z" fill="#CC707C"/>
<path fill-rule="evenodd" clip-rule="evenodd" d="M109.815 105.87C109.253 106.132 108.713 106.44 108.2 106.791C108.277 106.454 109.555 101.115 109.572 97.3692C109.572 97.3692 110.16 102.973 109.815 105.87Z" fill="#CC707C"/>
<path fill-rule="evenodd" clip-rule="evenodd" d="M105.575 101.541C105.379 103.864 104.788 106.137 103.828 108.261C103.506 107.976 103.22 107.652 102.976 107.298V107.272C102.996 106.683 103.079 106.097 103.223 105.525C104.148 105.206 105.575 101.541 105.575 101.541Z" fill="#CC707C"/>
<path opacity="0.52" fill-rule="evenodd" clip-rule="evenodd" d="M66.176 107.481C66.176 107.481 67.0283 97.7484 64.6036 91.0327C64.6036 91.0327 68.3365 99.9344 73.7567 96.4828C77.19 94.2225 80.2036 91.3819 82.6627 88.0882L79.8887 98.8009L66.176 107.481Z" fill="#328BA3"/>
<path fill-rule="evenodd" clip-rule="evenodd" d="M79.1429 102.082C79.1429 102.082 65.8905 107.622 61.7486 111.606C61.7486 111.606 69.5978 103.139 79.8887 98.801L79.1429 102.082Z" fill="#328BA3"/>
<path d="M25.592 29.8414H3.4677C1.92386 29.8414 0.672333 31.0929 0.672333 32.6368V51.953C0.672333 53.4968 1.92386 54.7483 3.4677 54.7483H25.592C27.1359 54.7483 28.3874 53.4968 28.3874 51.953V32.6368C28.3874 31.0929 27.1359 29.8414 25.592 29.8414Z" fill="url(#paint11_linear_85_204)"/>
<path d="M20.4572 34.3455H8.60675C6.9923 34.3455 5.68354 35.6543 5.68354 37.2687V47.3253C5.68354 48.9397 6.9923 50.2485 8.60675 50.2485H20.4572C22.0717 50.2485 23.3804 48.9397 23.3804 47.3253V37.2687C23.3804 35.6543 22.0717 34.3455 20.4572 34.3455Z" fill="white"/>
<path fill-rule="evenodd" clip-rule="evenodd" d="M9.76154 25.2648C8.90421 25.2648 8.20854 25.9586 8.20619 26.8159V30.9962C8.20619 31.8552 8.90255 32.5516 9.76154 32.5516C10.6205 32.5516 11.3169 31.8552 11.3169 30.9962V26.8159C11.3145 25.9586 10.6189 25.2648 9.76154 25.2648Z" fill="url(#paint12_linear_85_204)"/>
<path fill-rule="evenodd" clip-rule="evenodd" d="M19.2982 25.2649C18.4432 25.2672 17.7514 25.961 17.7514 26.8159V30.9962C17.7213 31.5705 18.0106 32.1146 18.5035 32.4108C18.9965 32.707 19.6127 32.707 20.1056 32.4108C20.5986 32.1146 20.8879 31.5705 20.8578 30.9962V26.8159C20.8578 26.4031 20.6932 26.0073 20.4005 25.7161C20.1078 25.425 19.711 25.2626 19.2982 25.2649Z" fill="url(#paint13_linear_85_204)"/>
<path fill-rule="evenodd" clip-rule="evenodd" d="M12.3012 37.7673C12.6724 37.7671 13.016 37.9632 13.2046 38.2829L13.8395 39.3567C14.1123 39.8468 14.3679 40.3368 14.6236 40.7843H14.662C14.9176 40.2772 15.152 39.7871 15.4077 39.3141L15.9489 38.317C16.1351 37.9802 16.4886 37.77 16.8735 37.7673H17.4786C17.8669 37.7728 18.2206 37.9915 18.3989 38.3365C18.5771 38.6815 18.551 39.0965 18.3309 39.4164L16.7116 41.7601C16.4751 42.1102 16.4751 42.569 16.7116 42.9191L18.5013 45.7316C18.706 46.0553 18.7187 46.4647 18.5344 46.8004C18.3501 47.1362 17.998 47.3454 17.615 47.3466H16.7628C16.3826 47.347 16.032 47.1415 15.8466 46.8096L15.1946 45.625C14.9219 45.1563 14.6875 44.6662 14.4489 44.1762H14.3935C14.1591 44.6833 13.9035 45.1563 13.6691 45.625L13.064 46.7841C12.8839 47.1305 12.5255 47.3475 12.1351 47.3466H11.4533C11.0695 47.3399 10.72 47.1239 10.5424 46.7837C10.3647 46.4434 10.3872 46.0333 10.601 45.7145L12.3737 43.0555C12.6105 42.7023 12.6105 42.2411 12.3737 41.8879L10.699 39.4079C10.4836 39.0883 10.4601 38.6765 10.6378 38.3344C10.8155 37.9924 11.1659 37.7748 11.5513 37.7673H12.3012Z" fill="url(#paint14_linear_85_204)"/>
<path d="M56.6308 52.8222H34.5065C32.9627 52.8222 31.7112 54.0738 31.7112 55.6176V74.9338C31.7112 76.4776 32.9627 77.7291 34.5065 77.7291H56.6308C58.1747 77.7291 59.4262 76.4776 59.4262 74.9338V55.6176C59.4262 54.0738 58.1747 52.8222 56.6308 52.8222Z" fill="url(#paint15_linear_85_204)"/>
<path d="M51.4961 57.3264H39.6456C38.0311 57.3264 36.7224 58.6351 36.7224 60.2496V70.3061C36.7224 71.9205 38.0311 73.2293 39.6456 73.2293H51.4961C53.1105 73.2293 54.4193 71.9205 54.4193 70.3061V60.2496C54.4193 58.6351 53.1105 57.3264 51.4961 57.3264Z" fill="white"/>
<path fill-rule="evenodd" clip-rule="evenodd" d="M40.8004 48.2457C39.943 48.2457 39.2474 48.9394 39.245 49.7968V53.977C39.2149 54.5514 39.5042 55.0954 39.9972 55.3916C40.4901 55.6878 41.1063 55.6878 41.5993 55.3916C42.0923 55.0954 42.3815 54.5514 42.3515 53.977V49.7968C42.3515 48.9401 41.657 48.2457 40.8004 48.2457Z" fill="url(#paint16_linear_85_204)"/>
<path fill-rule="evenodd" clip-rule="evenodd" d="M50.337 48.2457C49.9249 48.2445 49.5293 48.4075 49.2375 48.6985C48.9457 48.9895 48.7817 49.3846 48.7817 49.7968V53.977C48.7516 54.5514 49.0408 55.0954 49.5338 55.3916C50.0268 55.6878 50.643 55.6878 51.1359 55.3916C51.6289 55.0954 51.9182 54.5514 51.8881 53.977V49.7968C51.8881 48.9401 51.1937 48.2457 50.337 48.2457Z" fill="url(#paint17_linear_85_204)"/>
<path fill-rule="evenodd" clip-rule="evenodd" d="M43.3401 60.7481C43.711 60.7488 44.0542 60.9447 44.2434 61.2638L44.8784 62.3376C45.1511 62.8276 45.4068 63.3134 45.6624 63.7651H45.7008C45.9565 63.258 46.1908 62.768 46.4465 62.295L46.9877 61.2978C47.1726 60.9597 47.527 60.749 47.9124 60.7481H48.5175C48.9057 60.7536 49.2594 60.9724 49.4377 61.3173C49.616 61.6623 49.5898 62.0774 49.3697 62.3972L47.7504 64.7409C47.5075 65.0867 47.499 65.5455 47.7291 65.9L49.5189 68.7124C49.7235 69.0361 49.7362 69.4455 49.5519 69.7813C49.3677 70.117 49.0155 70.3262 48.6325 70.3274H47.7803C47.4001 70.3278 47.0495 70.1223 46.8641 69.7905L46.2036 68.6059C45.9309 68.1329 45.6923 67.6471 45.4579 67.157H45.4494C45.2107 67.6641 44.9593 68.1329 44.7207 68.6059L44.0943 69.7734C43.9135 70.1192 43.5556 70.3359 43.1654 70.3359H42.4921C42.1045 70.337 41.7479 70.1241 41.565 69.7823C41.3821 69.4406 41.4027 69.0258 41.6185 68.7039L43.3912 66.0449C43.6276 65.69 43.6276 65.2279 43.3912 64.873L41.7165 62.3972C41.5011 62.0776 41.4776 61.6658 41.6553 61.3238C41.833 60.9817 42.1834 60.7642 42.5688 60.7567L43.3401 60.7481Z" fill="url(#paint18_linear_85_204)"/>
<path d="M145.678 45.2628H123.554C122.01 45.2628 120.758 46.5143 120.758 48.0582V67.3744C120.758 68.9182 122.01 70.1697 123.554 70.1697H145.678C147.222 70.1697 148.473 68.9182 148.473 67.3744V48.0582C148.473 46.5143 147.222 45.2628 145.678 45.2628Z" fill="url(#paint19_linear_85_204)"/>
<path d="M140.543 49.7669H128.693C127.078 49.7669 125.769 51.0757 125.769 52.6901V62.7467C125.769 64.3611 127.078 65.6699 128.693 65.6699H140.543C142.157 65.6699 143.466 64.3611 143.466 62.7467V52.6901C143.466 51.0757 142.157 49.7669 140.543 49.7669Z" fill="white"/>
<path fill-rule="evenodd" clip-rule="evenodd" d="M129.847 40.6862C128.99 40.6862 128.294 41.38 128.292 42.2373V46.4176C128.292 47.2766 128.988 47.973 129.847 47.973C130.706 47.973 131.403 47.2766 131.403 46.4176V42.2373C131.4 41.38 130.705 40.6862 129.847 40.6862Z" fill="url(#paint20_linear_85_204)"/>
<path fill-rule="evenodd" clip-rule="evenodd" d="M139.384 40.6863C138.972 40.6851 138.576 40.848 138.284 41.139C137.993 41.4301 137.829 41.8252 137.829 42.2373V46.4176C137.799 46.9919 138.088 47.536 138.581 47.8322C139.074 48.1284 139.69 48.1284 140.183 47.8322C140.676 47.536 140.965 46.9919 140.935 46.4176V42.2373C140.935 41.3807 140.241 40.6863 139.384 40.6863Z" fill="url(#paint21_linear_85_204)"/>
<path fill-rule="evenodd" clip-rule="evenodd" d="M132.379 53.1887C132.749 53.1894 133.093 53.3853 133.282 53.7043L133.917 54.7739C134.19 55.2639 134.445 55.754 134.701 56.2057H134.739C134.995 55.6986 135.229 55.2085 135.485 54.7355L136.026 53.7384C136.21 53.3989 136.565 53.1878 136.951 53.1887H137.556C137.944 53.1942 138.298 53.413 138.476 53.7579C138.654 54.1029 138.628 54.5179 138.408 54.8378L136.789 57.1815C136.552 57.5317 136.552 57.9904 136.789 58.3405L138.579 61.153C138.783 61.4767 138.796 61.8861 138.612 62.2218C138.427 62.5576 138.075 62.7668 137.692 62.768H136.84C136.46 62.7684 136.109 62.5629 135.924 62.231L135.263 61.0464C134.991 60.5734 134.756 60.0834 134.518 59.5933H134.462C134.228 60.1047 133.972 60.5734 133.734 61.0464L133.129 62.2055C132.948 62.5513 132.59 62.768 132.2 62.768H131.526C131.142 62.7613 130.793 62.5453 130.615 62.2051C130.438 61.8648 130.46 61.4547 130.674 61.1359L132.447 58.4769C132.683 58.1221 132.683 57.6599 132.447 57.3051L130.772 54.8293C130.557 54.5097 130.533 54.0979 130.711 53.7558C130.889 53.4138 131.239 53.1962 131.624 53.1887H132.379Z" fill="url(#paint22_linear_85_204)"/>
<path fill-rule="evenodd" clip-rule="evenodd" d="M105.58 42.0754C105.73 39.8794 105.571 37.6732 105.107 35.5216C105.276 35.2821 105.583 35.1832 105.861 35.2787C106.027 37.5415 105.648 41.4618 105.58 42.0754Z" fill="#CC707C"/>
<path fill-rule="evenodd" clip-rule="evenodd" d="M88.6838 2.27975C88.6838 2.27975 87.022 0.319585 81.9895 2.53117C77.0422 4.70866 64.0923 16.231 63.6661 16.5932L65.0511 15.0251L65.0724 15.0038L65.115 14.9569C66.274 13.8618 79.2836 1.5596 84.4695 0.605088C88.0234 -0.0554034 89.1909 0.400549 88.6838 2.27975Z" fill="url(#paint23_linear_85_204)"/>
<path fill-rule="evenodd" clip-rule="evenodd" d="M97.7858 10.8747C96.1027 8.74405 79.7949 13.3888 79.7949 13.3888L83.4596 11.744C83.4596 11.744 96.4052 8.03669 97.7901 9.61334C98.05 9.89458 98.0159 10.342 97.7858 10.8747Z" fill="url(#paint24_linear_85_204)"/>
<path fill-rule="evenodd" clip-rule="evenodd" d="M80.0847 69.4623C80.0847 69.4623 69.9387 72.7776 68.9373 78.2959C67.9359 83.8142 75.0095 83.175 76.0067 81.1722C77.0038 79.1694 77.9839 75.4707 80.4597 74.1795L80.0847 69.4623Z" fill="url(#paint25_linear_85_204)"/>
<path fill-rule="evenodd" clip-rule="evenodd" d="M74.2809 79.9152C73.3391 81.104 71.9755 81.364 71.2298 80.4947C70.4841 79.6254 70.6546 77.9379 71.592 76.7661C71.9672 76.2626 72.4971 75.8958 73.1005 75.7221C73.6605 75.5599 74.2635 75.7398 74.6431 76.1823C75.3845 77.0516 75.2226 78.722 74.2809 79.9152Z" fill="#FFC709"/>
<path fill-rule="evenodd" clip-rule="evenodd" d="M74.2809 79.9152C72.1503 81.7858 71.3193 79.4123 71.7625 77.7632C72.2057 76.1142 73.1005 75.7264 73.1005 75.7264C73.6605 75.5642 74.2635 75.7441 74.6431 76.1866C75.3845 77.0516 75.2226 78.722 74.2809 79.9152Z" fill="url(#paint26_linear_85_204)"/>
<path fill-rule="evenodd" clip-rule="evenodd" d="M74.1445 78.1851C74.2766 78.3428 74.5238 78.2959 74.6942 78.0786C74.7995 77.9474 74.8526 77.782 74.8434 77.6141C74.8381 77.5366 74.8099 77.4625 74.7624 77.401C74.626 77.2434 74.3789 77.2902 74.2084 77.5076C74.0388 77.6941 74.0128 77.9702 74.1445 78.1851Z" fill="#FEF59B"/>
<path fill-rule="evenodd" clip-rule="evenodd" d="M73.4031 77.6269C73.4926 77.7292 73.6502 77.6993 73.761 77.5587C73.8289 77.4747 73.8624 77.3681 73.8548 77.2604C73.8521 77.2108 73.8342 77.1632 73.8036 77.1241C73.7184 77.0218 73.5565 77.0516 73.4457 77.1922C73.3373 77.3119 73.32 77.4884 73.4031 77.6269Z" fill="#FEF59B"/>
<path fill-rule="evenodd" clip-rule="evenodd" d="M102.818 78.2959C102.818 78.2959 106.364 72.4154 114.17 73.7832C114.17 73.7832 113.199 69.9098 109.909 69.4794C106.619 69.049 105.409 68.2394 104.254 67.7749C103.1 67.3104 102.524 67.7749 102.524 67.7749L102.818 78.2959Z" fill="url(#paint27_linear_85_204)"/>
<path d="M34.6493 124.653L33.781 191.881L123.651 193.042L124.52 125.814L34.6493 124.653Z" fill="url(#paint28_linear_85_204)"/>
<path d="M34.6439 124.652L34.4644 138.546L124.335 139.707L124.514 125.812L34.6439 124.652Z" fill="url(#paint29_linear_85_204)"/>
<path d="M59.1435 146.191L43.9023 145.994L43.7055 161.235L58.9466 161.432L59.1435 146.191Z" fill="white"/>
<path d="M58.8426 169.485L43.6015 169.288L43.4046 184.529L58.6458 184.726L58.8426 169.485Z" fill="white"/>
<path d="M86.9411 146.55L71.6999 146.353L71.5031 161.594L86.7442 161.791L86.9411 146.55Z" fill="white"/>
<path d="M86.6403 169.844L71.3991 169.647L71.2022 184.888L86.4434 185.085L86.6403 169.844Z" fill="white"/>
<path d="M114.466 146.905L99.2249 146.708L99.028 161.949L114.269 162.146L114.466 146.905Z" fill="white"/>
<path d="M114.165 170.2L98.9241 170.003L98.7272 185.244L113.968 185.441L114.165 170.2Z" fill="white"/>
<path d="M54.2363 118.3C54.2531 116.998 53.2118 115.93 51.9105 115.913C50.6092 115.896 49.5406 116.938 49.5238 118.239L49.3934 128.337C49.3766 129.639 50.4179 130.707 51.7192 130.724C53.0205 130.741 54.0891 129.699 54.1059 128.398L54.2363 118.3Z" fill="url(#paint30_linear_85_204)"/>
<path d="M109.559 119.014C109.576 117.713 108.534 116.644 107.233 116.628C105.932 116.611 104.863 117.652 104.846 118.953L104.716 129.052C104.699 130.353 105.74 131.422 107.042 131.438C108.343 131.455 109.412 130.414 109.428 129.113L109.559 119.014Z" fill="url(#paint31_linear_85_204)"/>
<path fill-rule="evenodd" clip-rule="evenodd" d="M49.6595 148.922C50.0296 148.921 50.3726 149.115 50.5629 149.433L51.1978 150.507C51.4748 150.997 51.7262 151.487 51.9818 151.939H52.0202C52.2759 151.427 52.5102 150.937 52.7659 150.468L53.3114 149.467C53.4953 149.131 53.8483 148.921 54.2318 148.922H54.8241C55.2122 148.925 55.5666 149.143 55.7452 149.488C55.9237 149.832 55.8972 150.247 55.6763 150.566L54.0571 152.91C53.8244 153.263 53.8244 153.721 54.0571 154.073L55.8468 156.886C56.0545 157.209 56.0688 157.62 55.8839 157.957C55.699 158.294 55.3447 158.502 54.9604 158.501H54.1082C53.7261 158.5 53.3742 158.293 53.1878 157.96L52.5315 156.775C52.2546 156.306 52.0202 155.816 51.7858 155.326H51.7262C51.4918 155.838 51.2361 156.306 51.0018 156.775L50.3967 157.934C50.2156 158.282 49.8559 158.501 49.4635 158.501H48.7902C48.4063 158.492 48.0574 158.275 47.88 157.935C47.7027 157.594 47.7248 157.184 47.9379 156.865L49.7106 154.21C49.9493 153.856 49.9493 153.392 49.7106 153.038L48.0402 150.558C47.824 150.239 47.8002 149.827 47.9782 149.485C48.1562 149.144 48.5072 148.927 48.8925 148.922H49.6595Z" fill="url(#paint32_linear_85_204)"/>
<path fill-rule="evenodd" clip-rule="evenodd" d="M76.9143 172.929C77.2844 172.929 77.6274 173.123 77.8177 173.441L78.4526 174.515C78.7253 175.005 78.981 175.495 79.2367 175.946H79.2751C79.5307 175.435 79.7651 174.945 80.0208 174.476L80.5662 173.475C80.7502 173.138 81.1031 172.929 81.4866 172.929H82.096C82.4841 172.933 82.8385 173.151 83.0171 173.495C83.1956 173.84 83.1691 174.255 82.9482 174.574L81.329 176.918C81.0898 177.266 81.0814 177.724 81.3077 178.081L83.0974 180.894C83.3051 181.217 83.3194 181.628 83.1345 181.965C82.9496 182.302 82.5953 182.51 82.211 182.509H81.3588C80.9767 182.508 80.6248 182.301 80.4384 181.967L79.7779 180.783C79.5052 180.314 79.2708 179.824 79.0364 179.334H78.9768C78.7424 179.845 78.4867 180.314 78.2524 180.783L77.643 181.942C77.4648 182.291 77.1057 182.51 76.714 182.509H76.0408C75.6568 182.5 75.308 182.283 75.1306 181.943C74.9532 181.602 74.9754 181.192 75.1885 180.872L76.9612 178.218C77.1999 177.863 77.1999 177.4 76.9612 177.046L75.278 174.566C75.0618 174.247 75.038 173.835 75.216 173.493C75.394 173.152 75.745 172.935 76.1303 172.929H76.9143Z" fill="url(#paint33_linear_85_204)"/>
<path fill-rule="evenodd" clip-rule="evenodd" d="M104.229 149.629C104.6 149.629 104.944 149.825 105.132 150.145L105.767 151.218C106.044 151.708 106.3 152.198 106.551 152.646H106.59C106.845 152.139 107.08 151.649 107.335 151.18L107.881 150.179C108.064 149.841 108.417 149.631 108.801 149.629H109.406C109.794 149.634 110.148 149.853 110.326 150.198C110.505 150.543 110.479 150.958 110.258 151.278L108.639 153.622C108.4 153.97 108.392 154.428 108.618 154.785L110.408 157.597C110.615 157.921 110.63 158.332 110.445 158.669C110.26 159.005 109.906 159.214 109.521 159.212H108.669C108.287 159.212 107.935 159.005 107.749 158.671L107.092 157.487C106.815 157.018 106.581 156.528 106.347 156.038H106.287C106.053 156.545 105.797 157.018 105.563 157.487L104.957 158.646C104.776 158.994 104.417 159.212 104.024 159.212H103.402C103.014 159.212 102.658 158.998 102.476 158.656C102.293 158.314 102.314 157.899 102.529 157.576L104.301 154.917C104.54 154.565 104.54 154.102 104.301 153.75L102.631 151.27C102.412 150.95 102.387 150.537 102.565 150.194C102.744 149.851 103.096 149.634 103.483 149.629H104.229Z" fill="url(#paint34_linear_85_204)"/>
</g>
<defs>
<linearGradient id="paint0_linear_85_204" x1="2964.82" y1="111.606" x2="2964.82" y2="3483.09" gradientUnits="userSpaceOnUse">
<stop offset="0.05" stop-color="#61AD00"/>
<stop offset="0.82" stop-color="white"/>
</linearGradient>
<linearGradient id="paint1_linear_85_204" x1="2065.5" y1="71.4609" x2="2065.5" y2="6169.29" gradientUnits="userSpaceOnUse">
<stop offset="0.05" stop-color="#61AD00"/>
<stop offset="0.82" stop-color="white"/>
</linearGradient>
<linearGradient id="paint2_linear_85_204" x1="79.8887" y1="416.293" x2="1297.32" y2="416.293" gradientUnits="userSpaceOnUse">
<stop offset="0.56" stop-color="#973058"/>
<stop offset="1" stop-color="#342A51" stop-opacity="0"/>
</linearGradient>
<linearGradient id="paint3_linear_85_204" x1="51.4919" y1="2159.81" x2="1645.19" y2="2159.81" gradientUnits="userSpaceOnUse">
<stop stop-color="#62C8D4"/>
<stop offset="0.65" stop-color="#342A51"/>
</linearGradient>
<linearGradient id="paint4_linear_85_204" x1="63.6534" y1="705.277" x2="3216.11" y2="705.277" gradientUnits="userSpaceOnUse">
<stop stop-color="#62C8D4"/>
<stop offset="0.65" stop-color="#342A51"/>
</linearGradient>
<linearGradient id="paint5_linear_85_204" x1="69.8194" y1="272.369" x2="463.557" y2="272.369" gradientUnits="userSpaceOnUse">
<stop stop-color="#1E1241"/>
<stop offset="1" stop-color="#342A51" stop-opacity="0"/>
</linearGradient>
<linearGradient id="paint6_linear_85_204" x1="86.7322" y1="1349.63" x2="1319.51" y2="1349.63" gradientUnits="userSpaceOnUse">
<stop offset="0.56" stop-color="#973058"/>
<stop offset="1" stop-color="#342A51" stop-opacity="0"/>
</linearGradient>
<linearGradient id="paint7_linear_85_204" x1="84.4013" y1="220.557" x2="590.635" y2="220.557" gradientUnits="userSpaceOnUse">
<stop stop-color="#1E1241"/>
<stop offset="1" stop-color="#342A51" stop-opacity="0"/>
</linearGradient>
<linearGradient id="paint8_linear_85_204" x1="2043.97" y1="70.3444" x2="2043.97" y2="12325.2" gradientUnits="userSpaceOnUse">
<stop offset="0.1" stop-color="#1D214C"/>
<stop offset="0.42" stop-color="#2D306D"/>
</linearGradient>
<linearGradient id="paint9_linear_85_204" x1="78.3972" y1="341.87" x2="392.876" y2="341.87" gradientUnits="userSpaceOnUse">
<stop offset="0.56" stop-color="#B63C65"/>
<stop offset="1" stop-color="#342A51" stop-opacity="0"/>
</linearGradient>
<linearGradient id="paint10_linear_85_204" x1="2783.96" y1="59.8138" x2="2783.96" y2="7252.35" gradientUnits="userSpaceOnUse">
<stop offset="0.05" stop-color="#61AD00"/>
<stop offset="0.82" stop-color="white"/>
</linearGradient>
<linearGradient id="paint11_linear_85_204" x1="1386.43" y1="29.8414" x2="1386.43" y2="2520.53" gradientUnits="userSpaceOnUse">
<stop offset="0.34" stop-color="#61AD00"/>
<stop offset="1" stop-color="white"/>
</linearGradient>
<linearGradient id="paint12_linear_85_204" x1="8.20619" y1="389.6" x2="319.276" y2="389.6" gradientUnits="userSpaceOnUse">
<stop offset="0.34" stop-color="#F78F1E"/>
<stop offset="1" stop-color="#FFC709"/>
</linearGradient>
<linearGradient id="paint13_linear_85_204" x1="17.1109" y1="389.603" x2="327.755" y2="389.603" gradientUnits="userSpaceOnUse">
<stop offset="0.34" stop-color="#F78F1E"/>
<stop offset="1" stop-color="#FFC709"/>
</linearGradient>
<linearGradient id="paint14_linear_85_204" x1="8.16689" y1="516.73" x2="833.994" y2="516.73" gradientUnits="userSpaceOnUse">
<stop offset="0.34" stop-color="#F78F1E"/>
<stop offset="1" stop-color="#FFC709"/>
</linearGradient>
<linearGradient id="paint15_linear_85_204" x1="1417.46" y1="52.8222" x2="1417.46" y2="2543.51" gradientUnits="userSpaceOnUse">
<stop offset="0.34" stop-color="#61AD00"/>
<stop offset="1" stop-color="white"/>
</linearGradient>
<linearGradient id="paint16_linear_85_204" x1="39.4568" y1="412.581" x2="350.101" y2="412.581" gradientUnits="userSpaceOnUse">
<stop offset="0.34" stop-color="#F78F1E"/>
<stop offset="1" stop-color="#FFC709"/>
</linearGradient>
<linearGradient id="paint17_linear_85_204" x1="48.9934" y1="412.582" x2="359.637" y2="412.582" gradientUnits="userSpaceOnUse">
<stop offset="0.34" stop-color="#F78F1E"/>
<stop offset="1" stop-color="#FFC709"/>
</linearGradient>
<linearGradient id="paint18_linear_85_204" x1="41.3046" y1="539.711" x2="867.132" y2="539.711" gradientUnits="userSpaceOnUse">
<stop offset="0.34" stop-color="#F78F1E"/>
<stop offset="1" stop-color="#FFC709"/>
</linearGradient>
<linearGradient id="paint19_linear_85_204" x1="1506.51" y1="45.2628" x2="1506.51" y2="2535.95" gradientUnits="userSpaceOnUse">
<stop offset="0.34" stop-color="#61AD00"/>
<stop offset="1" stop-color="white"/>
</linearGradient>
<linearGradient id="paint20_linear_85_204" x1="128.292" y1="405.022" x2="439.363" y2="405.022" gradientUnits="userSpaceOnUse">
<stop offset="0.34" stop-color="#F78F1E"/>
<stop offset="1" stop-color="#FFC709"/>
</linearGradient>
<linearGradient id="paint21_linear_85_204" x1="138.04" y1="405.022" x2="448.685" y2="405.022" gradientUnits="userSpaceOnUse">
<stop offset="0.34" stop-color="#F78F1E"/>
<stop offset="1" stop-color="#FFC709"/>
</linearGradient>
<linearGradient id="paint22_linear_85_204" x1="129.518" y1="532.152" x2="955.346" y2="532.152" gradientUnits="userSpaceOnUse">
<stop offset="0.34" stop-color="#F78F1E"/>
<stop offset="1" stop-color="#FFC709"/>
</linearGradient>
<linearGradient id="paint23_linear_85_204" x1="62.3878" y1="813.796" x2="2576.52" y2="813.796" gradientUnits="userSpaceOnUse">
<stop stop-color="#62C8D4"/>
<stop offset="0.65" stop-color="#342A51"/>
</linearGradient>
<linearGradient id="paint24_linear_85_204" x1="79.7949" y1="217.441" x2="1897.64" y2="217.441" gradientUnits="userSpaceOnUse">
<stop stop-color="#62C8D4"/>
<stop offset="0.65" stop-color="#342A51"/>
</linearGradient>
<linearGradient id="paint25_linear_85_204" x1="649.954" y1="69.4623" x2="649.954" y2="1385.33" gradientUnits="userSpaceOnUse">
<stop offset="0.1" stop-color="#1D214C"/>
<stop offset="0.42" stop-color="#2D306D"/>
</linearGradient>
<linearGradient id="paint26_linear_85_204" x1="89.3698" y1="256.235" x2="410.836" y2="328.357" gradientUnits="userSpaceOnUse">
<stop offset="0.34" stop-color="#F78F1E"/>
<stop offset="1" stop-color="#FFC709"/>
</linearGradient>
<linearGradient id="paint27_linear_85_204" x1="685.461" y1="67.3317" x2="685.461" y2="1138.61" gradientUnits="userSpaceOnUse">
<stop offset="0.1" stop-color="#1D214C"/>
<stop offset="0.42" stop-color="#2D306D"/>
</linearGradient>
<linearGradient id="paint28_linear_85_204" x1="20.6056" y1="173.652" x2="6615.4" y2="-8338.23" gradientUnits="userSpaceOnUse">
<stop stop-color="#FFC713"/>
<stop offset="0.66" stop-color="#F78F20"/>
</linearGradient>
<linearGradient id="paint29_linear_85_204" x1="1275.48" y1="1856.56" x2="1501.02" y2="-3138.11" gradientUnits="userSpaceOnUse">
<stop offset="0.04" stop-color="#61AD00"/>
<stop offset="1" stop-color="white"/>
</linearGradient>
<linearGradient id="paint30_linear_85_204" x1="276.603" y1="1599.6" x2="109.283" y2="137.976" gradientUnits="userSpaceOnUse">
<stop offset="0.27" stop-color="#31357C"/>
<stop offset="0.51" stop-color="#5C397D"/>
<stop offset="1" stop-color="#F175A8"/>
</linearGradient>
<linearGradient id="paint31_linear_85_204" x1="331.961" y1="1600.02" x2="164.593" y2="137.976" gradientUnits="userSpaceOnUse">
<stop offset="0.27" stop-color="#31357C"/>
<stop offset="0.51" stop-color="#5C397D"/>
<stop offset="1" stop-color="#F175A8"/>
</linearGradient>
<linearGradient id="paint32_linear_85_204" x1="47.5553" y1="627.884" x2="873.382" y2="627.884" gradientUnits="userSpaceOnUse">
<stop offset="0.1" stop-color="#1D214C"/>
<stop offset="0.42" stop-color="#2D306D"/>
</linearGradient>
<linearGradient id="paint33_linear_85_204" x1="75.2321" y1="651.892" x2="901.059" y2="651.892" gradientUnits="userSpaceOnUse">
<stop offset="0.1" stop-color="#1D214C"/>
<stop offset="0.42" stop-color="#2D306D"/>
</linearGradient>
<linearGradient id="paint34_linear_85_204" x1="99.9984" y1="628.591" x2="925.825" y2="628.591" gradientUnits="userSpaceOnUse">
<stop offset="0.1" stop-color="#1D214C"/>
<stop offset="0.42" stop-color="#2D306D"/>
</linearGradient>
<clipPath id="clip0_85_204">
<rect width="149.995" height="193.46" fill="white" transform="translate(0.672333)"/>
</clipPath>
</defs>
</svg>
