<svg width="141" height="196" viewBox="0 0 141 196" fill="none" xmlns="http://www.w3.org/2000/svg">
<g clip-path="url(#clip0_85_130)">
<g clip-path="url(#clip1_85_130)">
<path fill-rule="evenodd" clip-rule="evenodd" d="M139.59 167.764C135.612 185.025 108.527 191.397 72.947 185.287C37.3667 179.178 13.734 154.225 26.9941 137.497C40.2542 120.769 39.8206 93.5605 37.1241 87.3839C37.1241 87.3839 28.9867 89.9611 18.3635 79.8748C12.6442 74.434 10.6198 64.2204 13.3999 55.4546C15.7862 47.9575 21.6685 41.5343 31.7667 40.0587C52.7904 37.0042 59.8739 50.7973 71.213 51.8115C71.1096 51.1791 70.0874 45.9212 64.2846 45.1695C64.2846 45.1695 70.8152 45.3325 71.9408 50.6501C73.0624 45.3325 79.593 45.1695 79.593 45.1695C73.4164 45.9649 72.6527 51.8751 72.6527 51.8751C77.3657 51.8274 81.4623 53.0046 84.5009 55.4546C84.652 55.3074 84.8072 55.1682 84.9583 55.0569C89.731 51.0478 94.8497 55.9319 95.0764 56.1506C90.2281 52.2529 85.4395 55.7847 85.4395 55.7847C85.4395 55.7847 85.3322 55.8802 85.1532 56.0273C85.8693 56.6855 86.5108 57.4204 87.0662 58.2188L87.11 58.2824C89.4526 61.6392 90.5344 66.3482 89.894 72.4652C95.9235 71.1567 98.1945 77.7391 98.3178 78.1129C95.8321 72.4294 89.9656 73.3402 89.9656 73.3402L89.7946 73.376C89.6355 74.609 89.4115 75.8949 89.1225 77.2339C85.2685 94.6304 87.5316 104.319 106.376 116.529C125.22 128.739 143.571 150.511 139.59 167.764Z" fill="#342A51"/>
<path fill-rule="evenodd" clip-rule="evenodd" d="M77.6044 87.9407C77.6044 87.9407 79.768 105.13 90.4111 114.043C101.054 122.956 125.888 137.334 130.697 156.548C135.505 175.762 104.152 182.905 104.152 182.905L71.038 118.247L77.6044 87.9407Z" fill="#1E1241"/>
<path fill-rule="evenodd" clip-rule="evenodd" d="M97.5065 117.448C97.5065 117.448 111.18 122.618 116.49 139.887C121.799 157.156 115.694 169.888 119.147 180.244C122.599 190.601 127.642 195.632 127.642 195.632H105.21L92.8611 151.437L97.5065 117.448Z" fill="#AF1D46"/>
<path fill-rule="evenodd" clip-rule="evenodd" d="M41.4632 87.3083C41.4632 87.3083 48.1768 115.606 37.2314 128.337C26.2861 141.069 65.7999 123.784 66.7028 122.045C67.6056 120.307 57.0222 98.4684 57.0222 98.4684L41.4632 87.3083Z" fill="#1E1241"/>
<path fill-rule="evenodd" clip-rule="evenodd" d="M74.3232 128.202C74.3232 128.202 76.5146 128.469 80.9612 123.624C85.4077 118.78 89.5003 117.038 97.1445 119.965C104.789 122.893 112.823 129.399 113.157 142.938C113.491 156.476 113.288 160.995 111.494 170.886C109.701 180.777 114.963 195.632 114.963 195.632H105.21C105.21 195.632 76.3873 149.894 76.1765 149.099C75.9658 148.303 74.3232 128.202 74.3232 128.202Z" fill="#89173F"/>
<path fill-rule="evenodd" clip-rule="evenodd" d="M74.9993 96.4758C72.251 102.545 67.2914 107.373 63.6483 109.998C61.7233 111.398 59.3966 111.832 57.0222 111.617C52.8501 111.259 48.5348 108.905 45.9973 106.284C42.6962 102.871 37.8439 89.4361 36.2769 84.9299C39.3633 84.1344 44.2075 81.7481 48.3876 74.6885C48.3876 74.6885 45.6791 83.1759 41.4632 87.2924C41.8053 87.0696 52.7944 80.0061 54.7552 72.2982C54.7552 72.2982 53.8285 81.0481 49.9825 86.0793C50.5353 85.6339 59.496 78.3913 60.4466 73.7499C60.4466 73.7499 61.7034 79.1231 60.7131 82.0146C61.3852 80.4237 63.0755 76.0964 62.9681 73.7499C62.9681 73.7499 63.7636 81.8475 64.6943 83.9714C64.6943 83.9714 64.1613 77.7271 64.6943 75.2215L68.2738 87.3003C68.2738 87.3003 67.7408 80.539 70.5289 78.4072C73.2533 76.3271 74.8402 81.8674 74.4107 85.5901C74.4107 85.6736 74.3908 85.7611 74.3788 85.8407C74.0487 88.3782 74.6016 93.469 74.9993 96.4758Z" fill="#F48184"/>
<path fill-rule="evenodd" clip-rule="evenodd" d="M70.2584 88.5611C70.2584 88.5611 69.5266 83.5896 71.8056 82.3009C71.8056 82.3009 73.3089 81.7958 73.293 83.8401C73.293 83.8401 72.9947 83.0447 72.4459 83.2475C72.4459 83.2475 73.3925 83.9435 72.8953 86.6839C72.3982 89.4242 72.247 91.2617 72.247 91.2617C72.247 91.2617 69.9084 90.1401 70.2584 88.5611Z" fill="url(#paint0_linear_85_130)"/>
<path fill-rule="evenodd" clip-rule="evenodd" d="M107.195 162.056L105.206 164.964V195.632H14.7998C14.7998 195.632 23.2236 136.439 32.9599 127.538C42.6962 118.637 76.2123 111.689 76.2123 111.689C76.2123 111.689 100.139 119.341 107.207 128.206C109.84 131.499 111.303 135.564 111.805 139.915C112.648 147.257 110.778 155.399 107.195 162.056Z" fill="url(#paint1_linear_85_130)"/>
<path fill-rule="evenodd" clip-rule="evenodd" d="M76.1607 106.061L76.2004 111.689C76.2004 111.689 73.2175 116.553 71.03 118.247C68.8425 119.941 65.6687 118.844 65.6687 118.844C65.6687 118.844 75.1942 106.323 76.1607 106.061Z" fill="#D77077"/>
<path opacity="0.34" fill-rule="evenodd" clip-rule="evenodd" d="M74.9993 96.4758C72.251 102.545 67.2914 107.373 63.6483 109.998C61.7233 111.398 59.3966 111.832 57.0222 111.617C57.4875 109.975 58.6131 106.65 60.4943 104.566C63.0875 101.702 67.2556 93.6957 67.6056 92.077C67.9556 90.4582 70.9346 90.6452 70.9346 90.6452C70.9346 90.6452 71.384 86.0435 72.8914 85.9401C73.5396 85.8964 73.997 85.4748 74.4385 85.5861C74.4385 85.6697 74.4186 85.7572 74.4067 85.8367C74.0487 88.3782 74.6016 93.469 74.9993 96.4758Z" fill="url(#paint2_linear_85_130)"/>
<path opacity="0.83" fill-rule="evenodd" clip-rule="evenodd" d="M105.21 164.976V170.369C93.5571 182.05 70.1431 185.419 69.2124 185.546C86.3463 181.752 105.21 164.976 105.21 164.976Z" fill="url(#paint3_linear_85_130)"/>
<path opacity="0.14" fill-rule="evenodd" clip-rule="evenodd" d="M19.3538 169.208H25.0174V194.32H14.9947L19.3538 169.208Z" fill="url(#paint4_linear_85_130)"/>
<path opacity="0.83" fill-rule="evenodd" clip-rule="evenodd" d="M102.219 132.187C102.219 132.187 84.489 144.915 78.9169 150.705C73.3447 156.496 69.2124 161.046 69.2124 161.046C69.2124 161.046 67.5459 123.708 68.2658 119.126L67.6056 120.291V165.739C67.6056 165.739 91.3656 138.36 102.219 132.187Z" fill="url(#paint5_linear_85_130)"/>
<path opacity="0.14" fill-rule="evenodd" clip-rule="evenodd" d="M107.195 162.056L105.206 164.964V170.456C97.1843 180.272 81.5816 180.956 81.5816 180.956L70.7794 179.568C70.7794 179.568 81.3032 176.983 96.6315 167.819C111.506 158.934 111.781 140.985 111.781 139.923C112.648 147.257 110.779 155.399 107.195 162.056Z" fill="url(#paint6_linear_85_130)"/>
<path fill-rule="evenodd" clip-rule="evenodd" d="M101.05 122.956C93.3145 117.698 86.0878 119.707 82.2379 123.823C79.8515 126.353 76.797 128.381 74.4027 128.198C72.9113 128.087 71.6823 127.12 71.0499 124.877C69.4153 119.035 76.2203 111.681 76.2203 111.681C79.072 107.25 83.9799 108.682 87.2253 111.681C88.2083 112.576 89.2828 113.365 90.431 114.035C92.0316 114.968 93.6924 115.793 95.4025 116.505C96.1622 116.835 96.8701 117.142 97.5065 117.448C99.2485 118.279 100.203 120.232 100.688 121.568C100.841 122.022 100.962 122.486 101.05 122.956Z" fill="#AF1D46"/>
<path fill-rule="evenodd" clip-rule="evenodd" d="M56.7676 114.556C56.7676 114.556 49.3143 116.024 46.7927 122.045C44.2712 128.067 51.0404 128.071 52.8978 125.414C54.7551 122.757 56.3142 120.244 56.3142 120.244C56.3142 120.244 56.4256 116.147 56.7676 114.556Z" fill="#AF1D46"/>
<path fill-rule="evenodd" clip-rule="evenodd" d="M52.154 123.143C52.154 123.143 53.383 118.128 57.0222 116.78C57.0222 116.78 53.8404 116.505 49.0478 121.218L52.154 123.143Z" fill="url(#paint7_linear_85_130)"/>
<path fill-rule="evenodd" clip-rule="evenodd" d="M21.5572 171.924V188.437C21.5572 192.123 18.5692 195.111 14.8834 195.111H7.00843C3.32907 195.1 0.350922 192.117 0.346558 188.437V171.924H21.5572Z" fill="url(#paint8_linear_85_130)"/>
<path opacity="0.83" d="M21.5572 179.437H0.330658V186.624H21.5572V179.437Z" fill="url(#paint9_linear_85_130)"/>
<path fill-rule="evenodd" clip-rule="evenodd" d="M78.8214 91.2139C78.3203 95.9866 78.2208 104.152 74.2357 109.458C70.2505 114.763 68.5641 116.951 68.2698 119.142C67.9755 121.334 62.1926 123.823 56.3182 120.24C56.3182 120.24 55.7932 111.275 60.7369 105.997C65.6806 100.72 66.5278 98.2338 67.7249 95.5451C68.9221 92.8565 69.3158 92.0611 70.0596 92.2082C70.2109 92.2438 70.3389 92.3442 70.4095 92.4827C70.7675 93.1151 70.6203 94.7378 70.0596 96.786C69.7395 98.0468 69.3014 99.2745 68.751 100.453C68.9857 100.055 70.151 97.9355 71.0419 93.8111C71.0401 93.7899 71.0401 93.7686 71.0419 93.7474C72.0362 89.1219 72.084 87.7816 73.0305 87.2327C73.3527 87.0418 73.5913 87.2645 73.7385 87.7299C74.0447 88.6208 74.0368 90.4185 73.7743 92.0014C73.476 93.7991 73.4004 94.2486 73.3766 94.3599C73.4243 94.2088 73.6033 93.5963 73.822 92.769C74.3105 91.014 74.6956 89.2317 74.9754 87.4316C75.2658 85.0452 76.8049 84.743 76.8049 86.7833C76.8049 87.181 76.8049 87.5787 76.7731 87.9526C76.7268 89.018 76.6232 90.0801 76.4629 91.1344C76.4629 91.1344 76.439 91.3134 76.3953 91.6156C76.3157 92.0889 76.2282 92.5702 76.1368 93.0713L76.2123 92.8446C76.4669 91.9736 77.4055 88.8196 77.5805 87.9606C77.5805 87.9128 77.5805 87.877 77.6004 87.8452C77.7277 87.0816 79.3146 86.4333 78.8214 91.2139Z" fill="#F48184"/>
<path fill-rule="evenodd" clip-rule="evenodd" d="M71.038 93.815C70.9226 94.4116 69.9283 99.3513 67.3192 103.416C67.3192 103.416 70.4294 96.8019 70.4056 92.4866C70.7635 93.119 70.6164 94.7417 70.0556 96.79C69.7372 98.0734 69.288 99.3208 68.7153 100.513C68.8226 100.338 70.0874 98.2099 71.038 93.815Z" fill="#D77077"/>
<path fill-rule="evenodd" clip-rule="evenodd" d="M73.3925 94.3957C73.3925 94.3957 73.5874 93.7236 73.8459 92.765C73.391 95.3654 72.7083 97.9207 71.8056 100.401C71.913 99.9161 73.6908 92.2281 73.7544 87.7299C74.0607 88.6208 74.0527 90.4185 73.7902 92.0014L73.3925 94.3957Z" fill="#D77077"/>
<path fill-rule="evenodd" clip-rule="evenodd" d="M77.6044 87.9407C77.3339 93.827 74.9516 99.4389 74.7925 99.8048C75.3968 97.5052 75.8787 95.1753 76.2362 92.8247C76.4908 91.9537 77.4413 88.7998 77.6044 87.9407Z" fill="#D77077"/>
<path fill-rule="evenodd" clip-rule="evenodd" d="M4.37153 170.039C4.37153 170.039 7.80389 167.147 4.86073 163.962C1.91758 160.776 1.06645 158.449 4.37153 155.021C4.37153 155.021 0.819861 157.837 4.86073 161.384C8.9016 164.932 4.37153 170.039 4.37153 170.039Z" fill="url(#paint10_linear_85_130)"/>
<path fill-rule="evenodd" clip-rule="evenodd" d="M12.5965 170.039C12.5965 170.039 16.0248 167.147 13.0857 163.962C10.1465 160.776 9.28739 158.449 12.5965 155.021C12.5965 155.021 9.04478 157.837 13.0857 161.384C17.1265 164.932 12.5965 170.039 12.5965 170.039Z" fill="url(#paint11_linear_85_130)"/>
<path fill-rule="evenodd" clip-rule="evenodd" d="M53.8961 86.1191C53.8961 86.1191 57.8097 84.9259 61.1943 85.4231L64.5829 85.9202C64.5829 85.9202 60.9318 83.5975 57.8773 83.86C54.8228 84.1225 54.0949 84.3731 53.6296 84.9776C53.1643 85.5822 53.8961 86.1191 53.8961 86.1191Z" fill="url(#paint12_linear_85_130)"/>
<path fill-rule="evenodd" clip-rule="evenodd" d="M53.4745 92.4827C53.4745 92.4827 57.4796 91.8821 59.4722 89.5316C59.4722 89.5316 59.9136 90.0566 59.0267 91.0071C59.0267 91.0071 60.0011 92.9957 58.275 93.8747C56.5489 94.7537 55.6301 93.0196 55.6301 93.0196C55.6301 93.0196 54.1148 93.4173 53.4745 92.4827Z" fill="#1E1241"/>
<path fill-rule="evenodd" clip-rule="evenodd" d="M45.7547 90.7724C44.4519 91.2734 43.2421 91.9885 42.1751 92.8883C41.7042 93.3253 41.2104 93.7369 40.6956 94.1213C41.0794 92.9438 41.8379 91.9241 42.8553 91.2179C44.4939 90.1401 44.9552 89.973 45.4325 90.0923C45.9098 90.2117 45.7547 90.7724 45.7547 90.7724Z" fill="url(#paint13_linear_85_130)"/>
<path fill-rule="evenodd" clip-rule="evenodd" d="M47.4888 94.5707C47.4888 94.5707 45.0507 96.5593 42.6524 96.4877C42.6524 96.4877 42.724 97.0167 43.7342 97.0048C43.7342 97.0048 44.3786 98.5957 45.7825 98.0667C47.1865 97.5377 46.6694 96.1019 46.6694 96.1019C46.6694 96.1019 47.6757 95.4059 47.4888 94.5707Z" fill="#1E1241"/>
<path opacity="0.67" fill-rule="evenodd" clip-rule="evenodd" d="M49.879 96.1735C49.879 96.1735 49.545 101.344 50.5751 101.65C51.6052 101.956 53.2955 101.65 53.2955 101.65C53.2955 101.65 49.9785 101.769 49.879 96.1735Z" fill="url(#paint14_linear_85_130)"/>
<path d="M54.4926 106.399C54.4926 106.399 54.8904 103.71 58.7403 104.872" stroke="#1E1241" stroke-width="0.397724"/>
<path fill-rule="evenodd" clip-rule="evenodd" d="M95.4224 116.517C89.2179 114.787 83.6975 115.857 81.0089 120.16C78.3203 124.464 76.2004 125.235 76.2004 125.235L74.0288 119.162C76.4152 114.552 86.5094 114.075 90.4111 114.063C92.0189 114.987 93.6864 115.803 95.4025 116.505L95.4224 116.517Z" fill="url(#paint15_linear_85_130)"/>
<path fill-rule="evenodd" clip-rule="evenodd" d="M73.5277 120.065C73.4354 120.275 73.3557 120.49 73.2891 120.709C72.6487 122.698 73.1141 124.639 74.4425 125.223C75.9141 125.868 77.8907 124.603 78.8652 122.391C79.2707 121.5 79.4444 120.52 79.3703 119.544C79.2708 118.454 78.7816 117.579 77.9584 117.217C76.4828 116.581 74.5061 117.849 73.5277 120.065Z" fill="#FFC709"/>
<path fill-rule="evenodd" clip-rule="evenodd" d="M73.5277 120.065C73.4353 120.275 73.3557 120.49 73.2891 120.709C72.772 123.72 74.7766 125.327 77.2663 123.616C78.535 122.745 79.1078 121.023 79.3623 119.544C79.2629 118.454 78.7737 117.579 77.9504 117.217C76.4828 116.581 74.5061 117.849 73.5277 120.065Z" fill="url(#paint16_linear_85_130)"/>
<path fill-rule="evenodd" clip-rule="evenodd" d="M77.0714 118.999C77.0494 119.045 77.0308 119.093 77.0157 119.142C76.8726 119.588 76.976 120.021 77.2743 120.148C77.5726 120.276 78.0419 120.013 78.2606 119.52C78.3512 119.321 78.3895 119.102 78.372 118.884C78.3703 118.666 78.2498 118.466 78.0578 118.363C77.7277 118.223 77.2862 118.506 77.0714 118.999Z" fill="#FEE292"/>
<path fill-rule="evenodd" clip-rule="evenodd" d="M75.8544 119.667L75.8305 119.739C75.7589 119.961 75.8106 120.176 75.9578 120.24C76.105 120.303 76.3555 120.172 76.451 119.926C76.495 119.826 76.5141 119.716 76.5067 119.607C76.5073 119.499 76.4475 119.399 76.3516 119.349C76.1845 119.269 75.9658 119.413 75.8544 119.667Z" fill="#FEE292"/>
<path fill-rule="evenodd" clip-rule="evenodd" d="M48.2563 121.429C48.1893 121.582 48.1309 121.739 48.0813 121.898C47.612 123.354 47.9501 124.77 48.9205 125.195C49.9984 125.669 51.4461 124.742 52.154 123.127C52.452 122.475 52.5793 121.758 52.5239 121.043C52.5199 120.33 52.124 119.678 51.4938 119.345C50.416 118.872 48.9683 119.81 48.2563 121.429Z" fill="#FFC709"/>
<path fill-rule="evenodd" clip-rule="evenodd" d="M48.2563 121.429C48.1893 121.582 48.1309 121.739 48.0813 121.898C47.6836 124.098 49.1671 125.271 50.9927 124.022C51.9233 123.386 52.337 122.125 52.5239 121.043C52.5199 120.33 52.124 119.678 51.4938 119.345C50.416 118.872 48.9683 119.81 48.2563 121.429Z" fill="url(#paint17_linear_85_130)"/>
<path fill-rule="evenodd" clip-rule="evenodd" d="M50.8574 120.653C50.8414 120.687 50.8281 120.721 50.8177 120.757C50.7103 121.083 50.7859 121.397 51.0046 121.493C51.2234 121.588 51.5654 121.393 51.7245 121.031C51.793 120.886 51.8218 120.726 51.808 120.566C51.8061 120.407 51.7176 120.262 51.5773 120.188C51.3268 120.085 51.0006 120.291 50.8574 120.653Z" fill="#FEE292"/>
<path fill-rule="evenodd" clip-rule="evenodd" d="M49.9546 121.135V121.19C49.9029 121.353 49.9546 121.509 50.0501 121.556C50.1456 121.604 50.3325 121.509 50.412 121.326C50.4438 121.253 50.4574 121.174 50.4518 121.095C50.4503 121.015 50.4063 120.942 50.3365 120.904C50.1973 120.86 50.0342 120.956 49.9546 121.135Z" fill="#FEE292"/>
<path fill-rule="evenodd" clip-rule="evenodd" d="M101.05 122.956C93.3145 117.698 86.0878 119.707 82.2379 123.823C79.8515 126.353 76.797 128.381 74.4027 128.198C74.8004 128.198 76.964 127.983 80.9771 123.612C85.4236 118.772 89.5162 117.03 97.1644 119.957C98.3667 120.412 99.5385 120.943 100.672 121.548C100.832 122.008 100.958 122.478 101.05 122.956Z" fill="#89173F"/>
<path opacity="0.14" fill-rule="evenodd" clip-rule="evenodd" d="M85.9168 144.553C85.9168 144.553 90.6298 133.778 95.4224 130.008C95.4224 130.008 91.8628 134.729 92.8611 139.156L85.9168 144.553Z" fill="url(#paint18_linear_85_130)"/>
<path opacity="0.14" fill-rule="evenodd" clip-rule="evenodd" d="M98.4332 170.023C98.4332 170.023 99.682 191.198 87.2094 195.644H105.21V164.976L98.4332 170.023Z" fill="url(#paint19_linear_85_130)"/>
<path fill-rule="evenodd" clip-rule="evenodd" d="M50.7421 70.8425C49.275 77.1007 46.0566 82.8119 41.4632 87.3083C41.4632 87.3083 45.862 82.7822 50.7421 70.8425Z" fill="url(#paint20_linear_85_130)"/>
<path fill-rule="evenodd" clip-rule="evenodd" d="M55.2881 69.0607C55.8941 75.2192 53.9882 81.3616 50.0023 86.0952C50.0023 86.0952 54.5563 81.2072 55.2881 69.0607Z" fill="url(#paint21_linear_85_130)"/>
<path fill-rule="evenodd" clip-rule="evenodd" d="M65.6766 71.5982C65.6766 71.5982 67.0567 83.8799 68.3016 87.3123C68.3016 87.3123 63.4852 74.5334 65.6766 71.5982Z" fill="url(#paint22_linear_85_130)"/>
<path fill-rule="evenodd" clip-rule="evenodd" d="M55.4154 64.8767C55.4154 64.8767 43.9927 82.0345 33.7752 83.0168C32.5339 83.1291 31.2839 83.1025 30.0486 82.9373C20.7856 81.7203 11.3277 73.1732 13.4038 62.4506C13.4038 62.4506 10.9459 78.5106 26.2145 83.8401C26.1986 83.8401 43.8615 93.1548 55.4154 64.8767Z" fill="url(#paint23_linear_85_130)"/>
<path fill-rule="evenodd" clip-rule="evenodd" d="M87.1338 58.2705C82.6037 53.0603 75.7351 53.5217 69.1806 53.9273C62.6261 54.333 54.0273 42.3735 37.2314 41.1803C20.6901 39.9871 13.6305 54.9972 13.4237 55.4467C15.81 47.9496 21.6924 41.5263 31.7906 40.0508C52.8143 36.9963 59.8977 50.7893 71.2368 51.8035C71.1334 51.1711 70.1112 45.9132 64.3085 45.1615C64.3085 45.1615 70.8391 45.3246 71.9646 50.6422C73.0862 45.3246 79.6168 45.1615 79.6168 45.1615C73.4402 45.957 72.6766 51.8671 72.6766 51.8671C77.3896 51.8194 81.4861 52.9967 84.5247 55.4467C84.6759 55.2995 84.831 55.1603 84.9821 55.0489L85.4634 55.7768L87.0901 58.2108L87.1338 58.2705Z" fill="url(#paint24_linear_85_130)"/>
<path fill-rule="evenodd" clip-rule="evenodd" d="M4.5545 27.7054C3.86413 27.7054 3.30386 28.2639 3.30167 28.9543V69.6016C3.33909 70.2651 3.888 70.7839 4.55251 70.7839C5.21701 70.7839 5.76592 70.2651 5.80335 69.6016V28.9543C5.80335 28.2646 5.24422 27.7054 4.5545 27.7054Z" fill="#61AD00"/>
<path fill-rule="evenodd" clip-rule="evenodd" d="M23.1043 8.58685C22.4124 8.58685 21.8515 9.14776 21.8515 9.83968V50.4831C21.8515 51.175 22.4124 51.7359 23.1043 51.7359C23.7962 51.7359 24.3571 51.175 24.3571 50.4831V9.83968C24.3571 9.14776 23.7962 8.58685 23.1043 8.58685Z" fill="#61AD00"/>
<path fill-rule="evenodd" clip-rule="evenodd" d="M35.028 30.1793C34.3361 30.1793 33.7752 30.7402 33.7752 31.4321V58.533C33.7491 58.9967 33.9816 59.4368 34.3794 59.6766C34.7772 59.9163 35.275 59.9163 35.6727 59.6766C36.0705 59.4368 36.3031 58.9967 36.2769 58.533V31.4122C36.2661 30.7296 35.7107 30.1813 35.028 30.1793Z" fill="#61AD00"/>
<path fill-rule="evenodd" clip-rule="evenodd" d="M80.1657 17.4521C79.4754 17.4543 78.9169 18.0146 78.9169 18.7049V41.24C78.9543 41.9034 79.5032 42.4222 80.1677 42.4222C80.8322 42.4222 81.3811 41.9034 81.4186 41.24V18.7209C81.4228 18.3858 81.2927 18.0631 81.0573 17.8247C80.8219 17.5863 80.5008 17.4521 80.1657 17.4521Z" fill="#61AD00"/>
<path d="M55.2841 22.7836C55.2841 22.0928 54.7241 21.5328 54.0333 21.5328C53.3425 21.5328 52.7824 22.0928 52.7824 22.7836V49.8885C52.7824 50.5793 53.3425 51.1393 54.0333 51.1393C54.7241 51.1393 55.2841 50.5793 55.2841 49.8885V22.7836Z" fill="#61AD00"/>
<path fill-rule="evenodd" clip-rule="evenodd" d="M89.4844 27.7054C88.7987 27.712 88.2456 28.2685 88.2435 28.9543V56.0591C88.2809 56.7226 88.8298 57.2414 89.4943 57.2414C90.1588 57.2414 90.7077 56.7226 90.7452 56.0591V28.9543C90.7452 28.621 90.612 28.3015 90.3752 28.067C90.1384 27.8324 89.8176 27.7022 89.4844 27.7054Z" fill="#61AD00"/>
<path fill-rule="evenodd" clip-rule="evenodd" d="M44.5535 0C43.8632 -3.47879e-06 43.3029 0.558487 43.3007 1.24885V33.6872C43.2745 34.1509 43.5071 34.591 43.9049 34.8308C44.3027 35.0705 44.8004 35.0705 45.1982 34.8308C45.596 34.591 45.8285 34.1509 45.8024 33.6872V1.24885C45.8002 0.560037 45.2423 0.00218327 44.5535 0Z" fill="#61AD00"/>
<path fill-rule="evenodd" clip-rule="evenodd" d="M36.2769 137.274L32.5184 180.968C32.5184 180.968 58.7085 183.545 69.2124 185.546V195.632H70.8033V184.496C70.8033 184.496 44.5535 179.652 35.1275 179.783L36.2769 137.274Z" fill="url(#paint25_linear_85_130)"/>
<path fill-rule="evenodd" clip-rule="evenodd" d="M70.7834 184.496C70.7834 184.496 82.4288 185.84 85.8969 187.558C89.3651 189.277 92.861 195.632 92.861 195.632H70.7834V184.496Z" fill="#F48184"/>
<path fill-rule="evenodd" clip-rule="evenodd" d="M56.3142 120.24C56.3142 120.24 48.4194 162.188 47.8706 172.676C47.3217 183.164 56.7676 182.906 56.7676 182.906C56.7676 182.906 48.149 182.46 46.2359 181.445C44.3229 180.431 43.3127 180.316 43.3127 180.316L56.3142 120.24Z" fill="url(#paint26_linear_85_130)"/>
<path opacity="0.14" fill-rule="evenodd" clip-rule="evenodd" d="M36.2769 137.274C36.2769 137.274 34.9923 167.454 43.3126 171.924C51.633 176.394 46.2359 180.65 46.2359 180.65L33.5088 179.437L36.2769 137.274Z" fill="url(#paint27_linear_85_130)"/>
</g>
</g>
<defs>
<linearGradient id="paint0_linear_85_130" x1="70.2024" y1="533.221" x2="384.801" y2="533.221" gradientUnits="userSpaceOnUse">
<stop offset="0.01" stop-color="#B63C65"/>
<stop offset="1" stop-color="#342A51" stop-opacity="0"/>
</linearGradient>
<linearGradient id="paint1_linear_85_130" x1="4874.58" y1="8507.24" x2="4874.58" y2="111.689" gradientUnits="userSpaceOnUse">
<stop stop-color="white"/>
<stop offset="0.85" stop-color="#EB97C1"/>
</linearGradient>
<linearGradient id="paint2_linear_85_130" x1="57.0222" y1="1392.37" x2="1854.73" y2="1392.37" gradientUnits="userSpaceOnUse">
<stop offset="0.27" stop-color="#802146"/>
<stop offset="1" stop-color="#342A51" stop-opacity="0"/>
</linearGradient>
<linearGradient id="paint3_linear_85_130" x1="3669.01" y1="1193.49" x2="69.2124" y2="1193.49" gradientUnits="userSpaceOnUse">
<stop stop-color="#2B1339"/>
<stop offset="0.23" stop-color="#3C1A4C"/>
<stop offset="0.25" stop-color="#3B1A4B"/>
<stop offset="0.35" stop-color="#401B50"/>
<stop offset="1" stop-color="#342A51" stop-opacity="0"/>
</linearGradient>
<linearGradient id="paint4_linear_85_130" x1="14.597" y1="1424.82" x2="1017.26" y2="1424.82" gradientUnits="userSpaceOnUse">
<stop offset="0.36" stop-color="#652B7D"/>
<stop offset="1" stop-color="#342A51" stop-opacity="0"/>
</linearGradient>
<linearGradient id="paint5_linear_85_130" x1="67.6056" y1="2450.58" x2="3528.99" y2="2450.58" gradientUnits="userSpaceOnUse">
<stop stop-color="#2B1339"/>
<stop offset="0.23" stop-color="#3C1A4C"/>
<stop offset="0.25" stop-color="#3B1A4B"/>
<stop offset="0.35" stop-color="#401B50"/>
<stop offset="1" stop-color="#342A51" stop-opacity="0"/>
</linearGradient>
<linearGradient id="paint6_linear_85_130" x1="71.1772" y1="2192.57" x2="4192.39" y2="2192.57" gradientUnits="userSpaceOnUse">
<stop offset="0.36" stop-color="#652B7D"/>
<stop offset="1" stop-color="#342A51" stop-opacity="0"/>
</linearGradient>
<linearGradient id="paint7_linear_85_130" x1="49.0478" y1="435.652" x2="846.483" y2="435.652" gradientUnits="userSpaceOnUse">
<stop offset="0.1" stop-color="#381422"/>
<stop offset="1" stop-color="#721433"/>
</linearGradient>
<linearGradient id="paint8_linear_85_130" x1="-1.24434" y1="1331.29" x2="2121.41" y2="1331.29" gradientUnits="userSpaceOnUse">
<stop offset="0.34" stop-color="#F78F1E"/>
<stop offset="1" stop-color="#FFC709"/>
</linearGradient>
<linearGradient id="paint9_linear_85_130" x1="0.330658" y1="538.979" x2="2122.98" y2="538.979" gradientUnits="userSpaceOnUse">
<stop stop-color="#2B1339"/>
<stop offset="0.23" stop-color="#3C1A4C"/>
<stop offset="0.25" stop-color="#3B1A4B"/>
<stop offset="0.35" stop-color="#401B50"/>
<stop offset="1" stop-color="#342A51" stop-opacity="0"/>
</linearGradient>
<linearGradient id="paint10_linear_85_130" x1="2.37537" y1="905.923" x2="431.519" y2="905.923" gradientUnits="userSpaceOnUse">
<stop offset="0.04" stop-color="#61AD00"/>
<stop offset="1" stop-color="white"/>
</linearGradient>
<linearGradient id="paint11_linear_85_130" x1="10.6312" y1="905.923" x2="439.775" y2="905.923" gradientUnits="userSpaceOnUse">
<stop offset="0.04" stop-color="#61AD00"/>
<stop offset="1" stop-color="white"/>
</linearGradient>
<linearGradient id="paint12_linear_85_130" x1="53.448" y1="197.668" x2="1164.29" y2="197.668" gradientUnits="userSpaceOnUse">
<stop stop-color="#1E1241"/>
<stop offset="1" stop-color="#342A51" stop-opacity="0"/>
</linearGradient>
<linearGradient id="paint13_linear_85_130" x1="41.0933" y1="293.015" x2="548.986" y2="293.015" gradientUnits="userSpaceOnUse">
<stop stop-color="#1E1241"/>
<stop offset="1" stop-color="#342A51" stop-opacity="0"/>
</linearGradient>
<linearGradient id="paint14_linear_85_130" x1="49.8285" y1="376.569" x2="396.643" y2="376.569" gradientUnits="userSpaceOnUse">
<stop offset="0.56" stop-color="#B63C65"/>
<stop offset="1" stop-color="#342A51" stop-opacity="0"/>
</linearGradient>
<linearGradient id="paint15_linear_85_130" x1="74.0288" y1="670.478" x2="2213.38" y2="670.478" gradientUnits="userSpaceOnUse">
<stop offset="0.1" stop-color="#381422"/>
<stop offset="1" stop-color="#721433"/>
</linearGradient>
<linearGradient id="paint16_linear_85_130" x1="421.526" y1="922.635" x2="310.665" y2="224.36" gradientUnits="userSpaceOnUse">
<stop stop-color="#FFC709"/>
<stop offset="0.66" stop-color="#F78F1E"/>
</linearGradient>
<linearGradient id="paint17_linear_85_130" x1="2391.14" y1="5507.51" x2="2709.75" y2="5109.62" gradientUnits="userSpaceOnUse">
<stop stop-color="#FFC709"/>
<stop offset="0.66" stop-color="#F78F1E"/>
</linearGradient>
<linearGradient id="paint18_linear_85_130" x1="85.9168" y1="856.649" x2="1036.48" y2="856.649" gradientUnits="userSpaceOnUse">
<stop offset="0.36" stop-color="#652B7D"/>
<stop offset="1" stop-color="#342A51" stop-opacity="0"/>
</linearGradient>
<linearGradient id="paint19_linear_85_130" x1="87.2094" y1="1698.6" x2="1887.31" y2="1698.6" gradientUnits="userSpaceOnUse">
<stop offset="0.36" stop-color="#652B7D"/>
<stop offset="1" stop-color="#342A51" stop-opacity="0"/>
</linearGradient>
<linearGradient id="paint20_linear_85_130" x1="41.4632" y1="894.131" x2="969.352" y2="894.131" gradientUnits="userSpaceOnUse">
<stop stop-color="#62C8D4"/>
<stop offset="0.88" stop-color="#342A51"/>
</linearGradient>
<linearGradient id="paint21_linear_85_130" x1="50.0023" y1="920.587" x2="591.304" y2="920.587" gradientUnits="userSpaceOnUse">
<stop stop-color="#62C8D4"/>
<stop offset="0.88" stop-color="#342A51"/>
</linearGradient>
<linearGradient id="paint22_linear_85_130" x1="64.9921" y1="857.5" x2="384.762" y2="857.5" gradientUnits="userSpaceOnUse">
<stop stop-color="#62C8D4"/>
<stop offset="0.88" stop-color="#342A51"/>
</linearGradient>
<linearGradient id="paint23_linear_85_130" x1="13.0279" y1="1205.51" x2="4243.22" y2="1205.51" gradientUnits="userSpaceOnUse">
<stop offset="0.56" stop-color="#B63C65"/>
<stop offset="1" stop-color="#342A51" stop-opacity="0"/>
</linearGradient>
<linearGradient id="paint24_linear_85_130" x1="13.4237" y1="972.58" x2="7384.44" y2="972.58" gradientUnits="userSpaceOnUse">
<stop offset="0.56" stop-color="#B63C65"/>
<stop offset="1" stop-color="#342A51" stop-opacity="0"/>
</linearGradient>
<linearGradient id="paint25_linear_85_130" x1="1945.97" y1="137.274" x2="1945.97" y2="5974.27" gradientUnits="userSpaceOnUse">
<stop stop-color="#2B1339"/>
<stop offset="0.23" stop-color="#3C1A4C"/>
<stop offset="0.25" stop-color="#3B1A4B"/>
<stop offset="0.35" stop-color="#401B50"/>
<stop offset="1" stop-color="#342A51" stop-opacity="0"/>
</linearGradient>
<linearGradient id="paint26_linear_85_130" x1="716.261" y1="120.24" x2="716.261" y2="6386.43" gradientUnits="userSpaceOnUse">
<stop stop-color="#2B1339"/>
<stop offset="0.23" stop-color="#3C1A4C"/>
<stop offset="0.25" stop-color="#3B1A4B"/>
<stop offset="0.35" stop-color="#401B50"/>
<stop offset="1" stop-color="#342A51" stop-opacity="0"/>
</linearGradient>
<linearGradient id="paint27_linear_85_130" x1="34.3042" y1="2306.06" x2="1478.44" y2="2306.06" gradientUnits="userSpaceOnUse">
<stop offset="0.36" stop-color="#652B7D"/>
<stop offset="1" stop-color="#342A51" stop-opacity="0"/>
</linearGradient>
<clipPath id="clip0_85_130">
<rect width="140" height="195.68" fill="white" transform="translate(0.330017)"/>
</clipPath>
<clipPath id="clip1_85_130">
<rect width="139.999" height="195.68" fill="white" transform="translate(0.330658)"/>
</clipPath>
</defs>
</svg>
