<svg width="191" height="186" viewBox="0 0 191 186" fill="none" xmlns="http://www.w3.org/2000/svg">
<path d="M190.137 131.054L186.812 141.845L180.296 163.02L177.445 172.25C176.438 175.521 174.622 178.485 172.167 180.869C169.712 183.253 166.695 184.98 163.396 185.891H154.778L118.944 179.441V100.446L153.285 106.622L165.908 108.862L179.481 111.305C188.236 112.933 193.055 121.758 190.137 131.054Z" fill="url(#paint0_linear_85_51)"/>
<path opacity="0.3" d="M186.812 141.777L180.296 162.952C177.514 158.812 174.391 154.129 174.459 153.857C174.527 153.382 156.407 113.341 153.285 106.621L165.908 108.861C172.491 112.051 183.146 119.517 185.861 135.058C186.269 137.433 186.608 139.673 186.812 141.777Z" fill="#1D214C"/>
<path d="M166.926 105.808L128.241 98.8172C124.17 98.0707 121.93 93.9983 123.287 89.655L129.192 70.3807C130.549 66.0374 134.893 63.1187 138.965 63.8652L177.649 70.8557C181.721 71.6022 183.961 75.6746 182.604 80.0179L176.699 99.2911C175.409 103.635 170.998 106.554 166.926 105.808Z" fill="url(#paint1_linear_85_51)"/>
<path d="M176.629 75.1311L170.726 94.4044C169.369 98.7476 165.025 101.666 160.953 100.92L152.809 99.4268L131.567 95.6265L122.2 93.9299C118.129 93.1834 115.889 89.111 117.246 84.7677L123.218 65.4934C124.576 61.1501 128.919 58.2314 132.991 58.9779L145.954 61.2853L162.719 64.3425L171.678 65.969C175.749 66.7155 177.919 70.7873 176.629 75.1311Z" fill="url(#paint2_linear_85_51)"/>
<path d="M157.086 108.182C157.086 108.182 177.649 114.223 182.061 135.601C186.472 156.913 174.528 185.891 174.528 185.891H161.022C161.022 185.891 167.673 118.905 157.086 108.182Z" fill="url(#paint3_linear_85_51)"/>
<path opacity="0.3" d="M167.198 79.9494C166.587 86.7358 160.615 95.4913 157.086 97.5272C155.681 98.254 154.23 98.8887 152.742 99.4274L131.499 95.627C135.232 85.3112 144.53 64.4081 145.888 61.3537L162.651 64.4076C164.347 67.5977 167.605 74.8591 167.198 79.9494Z" fill="#1D214C"/>
<path d="M176.292 145.645C176.089 154.264 162.515 182.837 161.157 185.687C161.15 185.738 161.127 185.786 161.09 185.823C161.09 185.832 161.088 185.841 161.085 185.849C161.081 185.857 161.076 185.865 161.07 185.871C161.064 185.877 161.056 185.882 161.048 185.886C161.04 185.889 161.031 185.891 161.022 185.891H50.9404C50.9404 185.891 45.444 184.33 43.4069 179.511C41.4389 174.624 59.2881 136.822 70.1469 125.081C81.0056 113.339 84.9422 115.104 89.6248 113.476C94.2395 111.849 115.144 105.399 115.144 105.399L133.604 103.363C133.604 103.363 139.712 106.214 146.906 109.54C147.516 109.811 148.196 110.15 148.806 110.422C155.661 113.611 163.058 117.005 166.791 118.634C175.002 122.231 176.564 136.552 176.292 145.645Z" fill="url(#paint4_linear_85_51)"/>
<path d="M144.733 92.2338C140.186 96.9849 135.436 96.7807 135.436 96.7807L133.535 103.432C133.535 103.432 132.789 103.703 124.577 108.592C116.297 113.478 112.497 114.361 111.139 112.867C109.782 111.374 115.143 106.555 115.143 106.555V101.736C113.125 101.299 111.15 100.686 109.239 99.9041C106.592 98.7493 106.862 86.9399 106.862 84.2276C106.862 82.2596 112.088 71.1973 115.006 65.1585C116.092 62.8512 116.907 61.2886 116.907 61.2886C118.445 59.9407 120.103 58.7367 121.861 57.6919C123.384 56.704 125.057 55.9705 126.815 55.5202C131.43 54.5023 144.732 77.9163 144.732 77.9163C144.732 77.9163 149.349 87.4806 144.733 92.2338Z" fill="#F48184"/>
<path opacity="0.13" d="M140.39 76.0133C140.39 76.0133 138.829 84.6326 138.422 82.6645C138.015 80.6965 133.4 77.0313 130.685 75.1311C127.971 73.2309 123.559 63.1187 121.862 62.983C120.166 62.8472 115.076 65.1546 115.076 65.1546C116.162 62.8472 116.976 61.2847 116.976 61.2847C118.514 59.9368 120.172 58.7328 121.93 57.6879L127.358 58.9106L140.39 76.0133Z" fill="url(#paint5_linear_85_51)"/>
<path opacity="0.4" d="M132.653 170.214C133.196 169.535 139.439 132.412 162.311 126.235C162.311 126.235 150.231 134.922 144.462 148.563L142.901 158.266L137.879 176.658L132.653 170.214Z" fill="#61AD00"/>
<path d="M150.163 102.821L148.127 106.825L141.951 105.604L143.512 101.6L150.163 102.821Z" fill="url(#paint6_linear_85_51)"/>
<path d="M165.841 62.983C165.773 63.2544 165.501 63.2544 164.823 62.9151C161.43 61.0149 156.41 60.2684 156.41 60.2684C156.546 60.8113 161.297 79.3375 161.704 82.6645C162.179 86.0577 154.645 93.8626 153.424 95.2198C152.27 96.5771 146.974 97.2557 142.362 98.4773C137.95 99.631 133.742 96.3057 133.539 96.1021C135.778 96.5771 137.678 93.9304 140.597 92.5732C143.514 91.2832 145.891 85.1755 143.108 84.5647C140.393 83.9539 134.625 89.8586 134.285 90.1979C134.489 89.8586 137.95 84.2933 138.425 82.6645C138.832 81.038 137.95 79.8821 135.439 77.2349C132.996 74.5203 123.834 60.8108 123.834 60.8108L116.097 62.9824L114.129 66.9864C114.129 66.9864 109.85 45.6088 109.985 43.7075C110.12 41.8062 121.183 34.1382 125.188 31.6272C128.92 29.252 134.078 30.1342 133.739 31.3558C133.739 31.4236 133.671 31.4915 133.603 31.6272C132.45 32.9172 127.02 41.943 126.884 42.2145H126.952C127.495 42.0788 132.925 40.8572 138.625 39.5678C144.666 38.2105 154.71 37.9413 155.728 38.957C155.931 39.1606 155.796 39.6357 155.389 40.3143C153.896 42.7574 148.939 47.3727 148.939 47.3727C148.939 47.3727 152.196 48.7299 153.961 49.2729C155.726 49.8836 158.848 52.5303 160.612 54.5668C161.972 56.2639 166.112 61.8972 165.841 62.983Z" fill="#1D214C"/>
<path opacity="0.73" d="M124.645 100.785C124.238 101.057 118.469 104.45 115.143 105.4V101.668C115.143 101.735 120.776 102.21 124.645 100.785Z" fill="url(#paint7_linear_85_51)"/>
<path opacity="0.4" d="M176.292 145.645C176.089 154.264 162.515 182.837 161.157 185.687C161.15 185.738 161.127 185.786 161.09 185.823C161.09 185.832 161.088 185.841 161.085 185.849C161.081 185.857 161.076 185.865 161.07 185.871C161.064 185.877 161.056 185.882 161.048 185.886C161.04 185.889 161.031 185.891 161.022 185.891H156.679C157.425 184.94 159.868 181.343 164.551 171.638C170.32 159.829 175.139 138.111 170.66 127.728C166.181 117.344 149.078 119.651 136.59 121.416C124.102 123.18 125.323 118.771 125.323 118.771L135.164 110.423C135.164 110.423 141.476 110.288 148.805 110.491C155.66 113.681 163.058 117.075 166.79 118.703C175.002 122.231 176.564 136.55 176.292 145.645Z" fill="#61AD00"/>
<path d="M176.292 145.645C176.088 154.264 162.379 183.04 161.157 185.687C161.7 184.465 164.889 177.204 170.048 162.612C175.749 146.46 175.884 128.746 170.048 123.317C164.211 117.888 149.891 115.784 140.39 118.838C130.82 121.892 128.241 120.331 128.241 120.331L137.944 109.947C137.944 109.947 141.677 109.608 146.903 109.608C154.233 113.001 162.716 116.87 166.856 118.702C175.002 122.231 176.563 136.551 176.292 145.645Z" fill="#61AD00"/>
<path d="M137.879 185.891C137.879 185.891 146.973 129.221 165.841 124.946C165.841 124.946 151.996 127.321 144.463 148.563C136.929 169.806 132.516 185.891 132.516 185.891H137.879Z" fill="#61AD00"/>
<path d="M130.685 106.214C130.685 106.214 124.033 111.44 122.133 112.798C120.979 113.618 119.694 114.236 118.333 114.627C118.333 114.627 120.844 114.424 124.102 112.32C125.675 111.239 127.358 110.329 129.124 109.605L130.685 106.214Z" fill="#61AD00"/>
<path d="M115.143 106.486C115.143 106.486 108.357 109.675 105.37 112.936C102.384 116.196 99.6692 118.976 96.276 117.142C92.8828 115.308 104.081 109.473 104.556 108.659C105.031 107.912 115.212 104.18 115.212 104.18V106.487L115.143 106.486Z" fill="#61AD00"/>
<path opacity="0.1" d="M36.417 98.0028C55.9828 98.0028 71.844 82.1416 71.844 62.5758C71.844 43.01 55.9828 27.1488 36.417 27.1488C16.8512 27.1488 0.98999 43.01 0.98999 62.5758C0.98999 82.1416 16.8512 98.0028 36.417 98.0028Z" fill="url(#paint8_linear_85_51)"/>
<path d="M74.6264 137.637C74.6264 137.637 78.0875 124.2 80.3954 119.788C80.3954 119.788 69.8081 133.497 70.2153 136.823C70.6225 140.149 74.6264 137.637 74.6264 137.637Z" fill="#61AD00"/>
<path opacity="0.4" d="M67.5002 133.905L80.327 119.788L73.95 132.751L67.5002 133.905Z" fill="#61AD00"/>
<path d="M133.535 103.432C133.535 103.432 122.609 113.135 124.645 117.548C126.681 121.961 131.499 120.805 137.881 116.394C144.331 111.983 160.005 114.901 169.371 120.33C169.371 120.33 157.834 107.094 152.811 105.671C147.856 104.314 138.694 98.069 133.535 103.432Z" fill="url(#paint9_linear_85_51)"/>
<path d="M115.143 105.401C115.143 105.401 105.44 109.607 102.792 113.681C100.145 117.821 94.5116 119.518 93.9687 114.427C93.4258 109.337 102.52 104.519 106.931 103.976C111.342 103.433 115.211 102.822 115.211 102.822V105.402L115.143 105.401Z" fill="url(#paint10_linear_85_51)"/>
<path opacity="0.1" d="M36.417 92.8441C53.134 92.8441 66.6858 79.2922 66.6858 62.5752C66.6858 45.8582 53.134 32.3064 36.417 32.3064C19.7 32.3064 6.14819 45.8582 6.14819 62.5752C6.14819 79.2922 19.7 92.8441 36.417 92.8441Z" fill="url(#paint11_linear_85_51)"/>
<path d="M36.417 87.4834C50.1731 87.4834 61.3246 76.3319 61.3246 62.5758C61.3246 48.8197 50.1731 37.6682 36.417 37.6682C22.6609 37.6682 11.5094 48.8197 11.5094 62.5758C11.5094 76.3319 22.6609 87.4834 36.417 87.4834Z" fill="url(#paint12_linear_85_51)"/>
<path d="M10.8986 144.492H34.7204C35.3 144.49 35.8741 144.604 36.4098 144.825C36.9455 145.046 37.4322 145.371 37.842 145.781C38.2519 146.191 38.5767 146.678 38.798 147.213C39.0193 147.749 39.1327 148.323 39.1315 148.903V152.975C39.1327 153.554 39.0193 154.128 38.798 154.664C38.5767 155.2 38.2519 155.686 37.842 156.096C37.4322 156.506 36.9455 156.831 36.4098 157.052C35.8741 157.273 35.3 157.387 34.7204 157.386H10.8986C10.319 157.387 9.74493 157.273 9.20925 157.052C8.67357 156.831 8.18685 156.506 7.77702 156.096C7.36718 155.686 7.0423 155.2 6.82102 154.664C6.59973 154.128 6.48639 153.554 6.4875 152.975V148.903C6.48639 148.323 6.59973 147.749 6.82102 147.213C7.0423 146.678 7.36718 146.191 7.77702 145.781C8.18685 145.371 8.67357 145.046 9.20925 144.825C9.74493 144.604 10.319 144.49 10.8986 144.492Z" fill="url(#paint13_linear_85_51)"/>
<path d="M21.8931 182.905V154.74C21.89 154.614 21.9125 154.489 21.9592 154.372C22.0058 154.256 22.0757 154.15 22.1645 154.061C22.2534 153.972 22.3593 153.902 22.476 153.856C22.5927 153.809 22.7176 153.786 22.8432 153.789C22.9688 153.786 23.0937 153.809 23.2104 153.856C23.327 153.902 23.433 153.972 23.5219 154.061C23.6107 154.15 23.6806 154.256 23.7272 154.372C23.7739 154.489 23.7964 154.614 23.7933 154.74V182.905H21.8931Z" fill="url(#paint14_linear_85_51)"/>
<path d="M31.3945 181.887H14.2918V185.687H31.3945V181.887Z" fill="url(#paint15_linear_85_51)"/>
<path d="M141.951 185.891H48.8366L40.8281 138.587C40.0816 134.176 43.0676 130.579 47.4793 130.579H124.645C129.056 130.579 133.264 134.176 134.011 138.587L141.951 185.891Z" fill="url(#paint16_linear_85_51)"/>
<path d="M84.2631 160.169C86.3619 160.169 88.0634 158.467 88.0634 156.368C88.0634 154.269 86.3619 152.568 84.2631 152.568C82.1642 152.568 80.4627 154.269 80.4627 156.368C80.4627 158.467 82.1642 160.169 84.2631 160.169Z" fill="white"/>
<path d="M36.4164 85.8535C49.2727 85.8535 59.6948 75.4315 59.6948 62.5752C59.6948 49.719 49.2727 39.2969 36.4164 39.2969C23.5602 39.2969 13.1381 49.719 13.1381 62.5752C13.1381 75.4315 23.5602 85.8535 36.4164 85.8535Z" fill="url(#paint17_radial_85_51)"/>
<path d="M36.417 42.4186C36.2371 42.4191 36.0648 42.4907 35.9376 42.6179C35.8104 42.7451 35.7388 42.9174 35.7383 43.0973V47.8483C35.7388 48.0281 35.8104 48.2005 35.9376 48.3277C36.0648 48.4548 36.2371 48.5265 36.417 48.5269C36.5075 48.5324 36.5982 48.5186 36.683 48.4864C36.7679 48.4543 36.8449 48.4045 36.909 48.3403C36.9732 48.2762 37.023 48.1991 37.0551 48.1143C37.0873 48.0295 37.1011 47.9388 37.0956 47.8483V43.0973C37.0952 42.9174 37.0235 42.7451 36.8964 42.6179C36.7692 42.4907 36.5968 42.4191 36.417 42.4186Z" fill="#1D214C"/>
<path d="M36.417 76.7598C36.2371 76.7603 36.0648 76.8319 35.9376 76.9591C35.8104 77.0863 35.7388 77.2586 35.7383 77.4385V82.1895C35.7388 82.3693 35.8104 82.5417 35.9376 82.6688C36.0648 82.796 36.2371 82.8677 36.417 82.8681C36.5075 82.8736 36.5982 82.8598 36.683 82.8276C36.7679 82.7955 36.8449 82.7457 36.909 82.6815C36.9732 82.6174 37.023 82.5403 37.0551 82.4555C37.0873 82.3707 37.1011 82.28 37.0956 82.1895V77.4385C37.0838 77.2624 37.0085 77.0965 36.8837 76.9717C36.7589 76.8469 36.5931 76.7716 36.417 76.7598Z" fill="#1D214C"/>
<path d="M56.642 62.5752C56.6416 62.3954 56.57 62.223 56.4428 62.0959C56.3156 61.9687 56.1433 61.8971 55.9634 61.8966H51.2124C51.0326 61.8971 50.8602 61.9687 50.733 62.0959C50.6058 62.223 50.5342 62.3954 50.5338 62.5752C50.5283 62.6658 50.5421 62.7565 50.5742 62.8413C50.6064 62.9261 50.6562 63.0031 50.7204 63.0673C50.7845 63.1314 50.8615 63.1812 50.9463 63.2134C51.0312 63.2456 51.1219 63.2594 51.2124 63.2539H55.9634C56.054 63.2594 56.1446 63.2456 56.2295 63.2134C56.3143 63.1812 56.3913 63.1314 56.4555 63.0673C56.5196 63.0031 56.5694 62.9261 56.6016 62.8413C56.6337 62.7565 56.6475 62.6658 56.642 62.5752Z" fill="#1D214C"/>
<path d="M22.233 62.5752C22.2325 62.3954 22.1609 62.223 22.0337 62.0959C21.9066 61.9687 21.7342 61.8971 21.5544 61.8966H16.8033C16.6235 61.8971 16.4511 61.9687 16.324 62.0959C16.1968 62.223 16.1252 62.3954 16.1247 62.5752C16.1192 62.6658 16.133 62.7565 16.1652 62.8413C16.1974 62.9261 16.2472 63.0031 16.3113 63.0673C16.3754 63.1314 16.4525 63.1812 16.5373 63.2134C16.6221 63.2456 16.7128 63.2594 16.8033 63.2539H21.5544C21.6449 63.2594 21.7356 63.2456 21.8204 63.2134C21.9052 63.1812 21.9822 63.1314 22.0464 63.0673C22.1105 63.0031 22.1603 62.9261 22.1925 62.8413C22.2247 62.7565 22.2385 62.6658 22.233 62.5752Z" fill="#1D214C"/>
<path d="M45.3077 69.0912L35.7383 64.8153V53.4137H37.0956V63.9331L45.8506 67.8691L45.3077 69.0912Z" fill="#1D214C"/>
<path d="M105.642 13.3713C105.536 13.1751 105.445 12.9709 105.37 12.7606C103.538 7.73811 105.981 2.71621 111.275 0.6803C116.705 -1.35561 121.048 1.49466 122.337 4.9557C123.559 8.14529 122.202 10.7925 120.912 13.2356C120.325 14.3082 119.87 15.4474 119.555 16.6288C119.477 17.1238 119.266 17.588 118.943 17.971C118.619 18.3539 118.198 18.6408 117.723 18.8004C117.194 19.0028 116.619 19.0466 116.066 18.9263C115.513 18.806 115.007 18.527 114.611 18.1234C114.215 17.7198 113.945 17.2092 113.834 16.6544C113.724 16.0996 113.778 15.5246 113.99 15.0001C114.262 14.3214 114.601 13.6428 114.94 12.8284C116.026 10.4532 116.297 9.23167 115.89 8.14529C115.415 6.92375 114.533 6.17725 113.108 6.72015C112.603 6.84158 112.159 7.14272 111.86 7.56733C111.561 7.99194 111.426 8.51098 111.481 9.02752C111.501 9.64224 111.319 10.2465 110.964 10.7486C110.609 11.2507 110.099 11.6233 109.513 11.8099L105.642 13.3713ZM120.03 27.2839L119.419 27.4875C118.699 27.7528 117.903 27.7234 117.205 27.4058C116.506 27.0882 115.96 26.508 115.687 25.7909L115.551 25.3159C115.286 24.5957 115.315 23.7999 115.633 23.1012C115.95 22.4025 116.531 21.8571 117.248 21.5834L117.858 21.3798C118.579 21.1146 119.374 21.1439 120.073 21.4615C120.772 21.7791 121.317 22.3594 121.591 23.0764L121.727 23.5514C121.873 23.9067 121.946 24.2884 121.939 24.6727C121.932 25.0571 121.846 25.436 121.687 25.7859C121.528 26.1359 121.299 26.4494 121.014 26.7072C120.729 26.965 120.394 27.1615 120.029 27.2845L120.03 27.2839Z" fill="url(#paint18_linear_85_51)"/>
<path d="M142.155 13.3035C142.199 13.1146 142.268 12.9322 142.358 12.7606C144.055 8.75662 148.331 7.05947 152.674 8.89067C157.017 10.7219 158.104 14.8632 156.88 17.6456C155.795 20.2256 153.487 21.0388 151.384 21.7853C149.959 22.3282 149.145 22.6675 148.67 23.0753C148.349 23.3312 147.962 23.4923 147.555 23.5403C147.147 23.5882 146.734 23.5212 146.362 23.3467C145.939 23.1703 145.576 22.8758 145.316 22.4984C145.056 22.1211 144.91 21.6769 144.896 21.2188C144.881 20.7608 144.999 20.3083 145.235 19.9154C145.471 19.5226 145.815 19.206 146.226 19.0035C146.769 18.732 147.38 18.5284 148.059 18.257C150.027 17.4426 150.909 16.8318 151.248 15.9496C151.656 14.9316 151.52 13.9816 150.366 13.5065C149.986 13.3082 149.548 13.2472 149.128 13.3337C148.708 13.4203 148.33 13.6491 148.059 13.9816C147.726 14.3528 147.286 14.611 146.799 14.7205C146.313 14.8299 145.804 14.7851 145.344 14.5923L142.155 13.3035ZM142.969 29.6597L142.494 29.4561C141.915 29.2058 141.457 28.7398 141.216 28.1569C140.975 27.5741 140.971 26.9203 141.204 26.3344L141.34 25.9951C141.59 25.4162 142.056 24.9577 142.639 24.7169C143.222 24.476 143.876 24.4718 144.461 24.7051L144.936 24.9087C145.515 25.159 145.974 25.625 146.215 26.2079C146.456 26.7908 146.46 27.4445 146.226 28.0304L146.091 28.3697C145.975 28.6632 145.802 28.9303 145.581 29.1552C145.36 29.38 145.096 29.558 144.804 29.6784C144.513 29.7988 144.2 29.8593 143.885 29.856C143.57 29.8528 143.258 29.7861 142.969 29.6597Z" fill="url(#paint19_linear_85_51)"/>
<path d="M76.3236 41.0614L75.6449 40.3827C70.5546 34.7495 71.1659 26.81 77.1379 21.4477C83.2462 15.9513 90.4397 17.4437 93.9692 21.3119C97.2267 24.9087 96.8195 29.049 96.4123 32.9172C96.1408 35.5639 96.2087 37.0569 96.4123 38.0771C96.5621 38.7785 96.5214 39.5073 96.2946 40.1878C96.0678 40.8682 95.663 41.4756 95.1223 41.947C92.4756 44.3222 88.1997 42.4899 88.2675 38.961C88.2675 37.943 88.3354 36.8572 88.4033 35.5678C88.6069 31.9031 88.2675 30.0714 87.1817 28.9166C85.8918 27.4915 84.3315 27.0843 82.7706 28.5094C81.2776 29.8667 81.2776 31.224 81.8205 32.4455C82.1554 33.241 82.2307 34.1218 82.0357 34.9626C81.8407 35.8033 81.3855 36.5612 80.7347 37.1281L76.3236 41.0614ZM102.521 51.8522L101.842 52.463C101.019 53.1837 99.946 53.552 98.8541 53.4885C97.7621 53.425 96.7389 52.9348 96.0051 52.1237L95.5301 51.6486C94.8094 50.8258 94.4411 49.7527 94.5045 48.6607C94.568 47.5688 95.0582 46.5456 95.8694 45.8118L96.548 45.201C97.3708 44.4804 98.444 44.112 99.5359 44.1755C100.628 44.239 101.651 44.7292 102.385 45.5404L102.86 46.0154C103.58 46.8383 103.949 47.9115 103.885 49.0034C103.822 50.0954 103.331 51.1185 102.52 51.8522H102.521Z" fill="url(#paint20_linear_85_51)"/>
<path d="M132.313 115.987C132.181 116.327 131.982 116.637 131.73 116.899C131.477 117.162 131.174 117.372 130.84 117.517C130.506 117.662 130.146 117.739 129.781 117.745C129.417 117.75 129.055 117.683 128.717 117.548C128.075 117.2 127.595 116.615 127.379 115.917C127.163 115.219 127.229 114.465 127.563 113.816C127.871 113.182 128.369 112.66 128.988 112.323C129.32 112.144 129.689 112.045 130.066 112.034C130.443 112.022 130.817 112.097 131.16 112.255C132.517 112.865 132.992 114.494 132.313 115.987Z" fill="#FFC709"/>
<path d="M132.314 115.987C130.414 118.498 128.378 116.462 128.174 114.697C128.038 112.933 128.989 112.254 128.989 112.254C129.321 112.076 129.69 111.977 130.066 111.965C130.443 111.953 130.818 112.029 131.16 112.186C131.816 112.538 132.306 113.136 132.522 113.848C132.738 114.561 132.663 115.33 132.314 115.987Z" fill="url(#paint21_linear_85_51)"/>
<path d="M131.431 114.358C131.493 114.388 131.56 114.405 131.629 114.407C131.698 114.409 131.766 114.398 131.83 114.372C131.894 114.346 131.952 114.308 132 114.259C132.048 114.21 132.085 114.151 132.11 114.087C132.144 114.012 132.161 113.931 132.161 113.849C132.161 113.768 132.144 113.687 132.11 113.612L131.906 113.408C131.844 113.379 131.777 113.362 131.708 113.36C131.639 113.357 131.571 113.369 131.507 113.395C131.443 113.42 131.385 113.459 131.337 113.508C131.289 113.557 131.252 113.616 131.227 113.68C131.192 113.737 131.169 113.8 131.16 113.867C131.151 113.933 131.156 114.001 131.175 114.065C131.194 114.13 131.227 114.189 131.271 114.24C131.316 114.29 131.37 114.331 131.431 114.358Z" fill="#FEF59B"/>
<path d="M130.277 114.087C130.317 114.103 130.36 114.111 130.403 114.109C130.446 114.108 130.489 114.097 130.527 114.078C130.566 114.058 130.6 114.031 130.627 113.998C130.654 113.964 130.674 113.925 130.685 113.883C130.718 113.833 130.736 113.774 130.736 113.714C130.736 113.653 130.718 113.594 130.685 113.544C130.685 113.476 130.617 113.476 130.549 113.408C130.509 113.392 130.466 113.384 130.423 113.386C130.38 113.388 130.338 113.398 130.299 113.418C130.26 113.437 130.226 113.464 130.199 113.498C130.172 113.531 130.153 113.57 130.142 113.612C130.109 113.649 130.086 113.693 130.074 113.741C130.063 113.789 130.065 113.84 130.078 113.887C130.092 113.935 130.117 113.978 130.152 114.013C130.187 114.048 130.23 114.073 130.277 114.087Z" fill="#FEF59B"/>
<path d="M98.9227 114.63C97.9726 115.852 96.5474 116.123 95.8009 115.241C95.0545 114.359 95.1902 112.595 96.2081 111.371C96.59 110.843 97.1405 110.46 97.769 110.286C98.0473 110.206 98.3427 110.208 98.6197 110.292C98.8967 110.376 99.1433 110.539 99.3299 110.761C100.076 111.644 99.9406 113.409 98.9227 114.63Z" fill="#FFC709"/>
<path d="M98.9227 114.631C96.7511 116.531 95.8689 114.088 96.3428 112.391C96.8167 110.694 97.7 110.287 97.7 110.287C97.9783 110.207 98.2738 110.21 98.5508 110.294C98.8277 110.378 99.0744 110.541 99.2609 110.762C100.076 111.645 99.9407 113.409 98.9227 114.631Z" fill="url(#paint22_linear_85_51)"/>
<path d="M98.7869 112.798C98.8279 112.835 98.8774 112.862 98.9311 112.875C98.9848 112.889 99.041 112.889 99.0947 112.875C99.1484 112.862 99.1979 112.836 99.2389 112.798C99.2799 112.761 99.3112 112.715 99.3298 112.662C99.4362 112.528 99.485 112.357 99.4656 112.187C99.4656 112.12 99.3977 112.052 99.3977 111.984C99.3567 111.947 99.3072 111.92 99.2535 111.907C99.1998 111.893 99.1437 111.893 99.09 111.907C99.0363 111.92 98.9867 111.946 98.9457 111.984C98.9047 112.021 98.8735 112.067 98.8548 112.12C98.7179 112.323 98.6512 112.662 98.7869 112.798Z" fill="#FEF59B"/>
<path d="M98.0404 112.255C98.1083 112.39 98.3119 112.323 98.3798 112.187C98.4249 112.144 98.4557 112.089 98.4679 112.028C98.4801 111.967 98.473 111.904 98.4476 111.848C98.4476 111.78 98.4476 111.712 98.3798 111.712C98.3119 111.576 98.1083 111.644 98.0404 111.78C98.0069 111.854 97.9896 111.935 97.9896 112.017C97.9896 112.099 98.0069 112.18 98.0404 112.255Z" fill="#FEF59B"/>
<path d="M117.044 71.3302C117.044 71.3302 115.144 73.2982 113.719 73.6375C112.294 73.9768 111.683 73.6375 111.683 73.6375C111.605 73.777 111.564 73.9336 111.562 74.0931C111.56 74.2526 111.597 74.4102 111.672 74.5515C111.746 74.6928 111.854 74.8135 111.986 74.9028C112.118 74.992 112.27 75.0469 112.429 75.0627C113.719 75.3341 115.28 74.3162 116.162 73.1625C117.112 72.0088 117.655 71.6695 117.044 71.3302Z" fill="url(#paint23_linear_85_51)"/>
<path d="M113.176 77.5063C112.633 77.5063 111.954 78.4564 111.683 79.6101C111.411 80.7638 111.615 81.7139 112.158 81.7139C112.701 81.7139 113.379 80.7638 113.651 79.6101C113.922 78.3885 113.718 77.5063 113.176 77.5063Z" fill="#1D214C"/>
<path d="M115.143 81.9859L113.786 85.9899C113.753 86.1013 113.744 86.218 113.757 86.3333C113.77 86.4486 113.806 86.56 113.863 86.6612C113.92 86.7623 113.996 86.8511 114.088 86.9223C114.18 86.9934 114.285 87.0456 114.397 87.0757L116.365 87.4829C116.365 87.4829 114.668 87.3471 114.465 85.9899C114.261 84.5658 115.143 81.9859 115.143 81.9859Z" fill="url(#paint24_linear_85_51)"/>
<path d="M117.655 95.4217C117.044 93.3858 115.89 92.4358 113.785 92.2322C111.952 92.0964 111.41 93.793 111.342 93.8586L110.663 93.6551C110.851 92.9921 111.268 92.4171 111.839 92.0321C112.41 91.647 113.1 91.4767 113.785 91.5513C116.092 91.7549 117.517 92.9085 118.196 95.2159L117.655 95.4217Z" fill="#1D214C"/>
<path d="M124.237 73.9095C124.237 73.9095 126.273 76.0812 127.834 76.4205C129.395 76.7598 130.074 76.4205 130.074 76.4205C130.161 76.5726 130.209 76.7443 130.213 76.9197C130.217 77.0952 130.176 77.2687 130.095 77.4243C130.014 77.5799 129.894 77.7125 129.748 77.8099C129.602 77.9072 129.434 77.9662 129.259 77.9814C127.902 78.2528 126.206 77.167 125.188 75.9454C124.17 74.7239 123.559 74.3167 124.237 73.9095Z" fill="url(#paint25_linear_85_51)"/>
<path d="M124.577 79.135C125.188 79.135 125.391 80.2209 124.916 81.5781C124.441 82.9354 123.559 84.0212 122.88 84.0212C122.269 84.0212 122.066 82.9354 122.541 81.5781C123.016 80.2887 123.966 79.135 124.577 79.135Z" fill="#1D214C"/>
<path opacity="0.47" d="M114.465 42.4175C110.936 48.2543 116.091 62.9813 116.091 62.9813L114.123 66.9852C114.123 66.9852 109.85 45.6088 109.985 43.7075C110.12 41.8062 121.183 34.1382 125.188 31.6272C128.92 29.252 134.078 30.1342 133.739 31.3558C127.224 33.3249 117.248 37.736 114.465 42.4175Z" fill="url(#paint26_linear_85_51)"/>
<path opacity="0.47" d="M132.382 73.2309C132.382 73.2309 124.237 60.2006 122.88 55.5174C122.083 52.5615 122.083 49.4469 122.88 46.491C122.88 46.491 120.03 49.6127 121.387 54.9745C122.677 60.4036 130.752 70.9914 132.382 73.2309Z" fill="url(#paint27_linear_85_51)"/>
<path d="M165.841 62.983C163.94 60.6077 159.8 55.6531 154.982 51.9206C148.532 46.966 138.558 48.3917 137.947 48.4596C142.087 47.2381 148.874 47.4416 148.874 47.4416C148.874 47.4416 152.131 48.7989 153.896 49.3418C155.661 49.9526 158.783 52.5993 160.547 54.6358C161.972 56.2639 166.112 61.8966 165.841 62.983Z" fill="url(#paint28_linear_85_51)"/>
<path d="M155.32 40.3149C154.166 40.0434 151.519 39.7041 146.907 39.8398C140.457 40.0434 127.7 42.0793 126.884 42.215C127.427 42.0793 132.857 40.8578 138.557 39.5684C144.598 38.2111 154.642 37.9419 155.66 38.9576C155.864 39.229 155.728 39.7041 155.32 40.3149Z" fill="url(#paint29_linear_85_51)"/>
<path d="M153.488 95.152C152.335 96.5093 147.039 97.1879 142.426 98.4094C138.015 99.5631 133.807 96.2378 133.603 96.0342C135.164 96.9164 139.508 97.6607 142.016 97.12C144.459 96.5771 151.382 95.152 151.925 94.2698C152.467 93.3875 158.779 87.2793 159.526 84.0897C160.272 80.9001 156.404 60.2 156.404 60.2C156.54 60.7429 161.291 79.2691 161.698 82.5961C162.175 86.0555 154.642 93.8626 153.488 95.152Z" fill="url(#paint30_linear_85_51)"/>
<path d="M135.505 77.1664C135.505 77.1664 126.953 61.0138 126.885 55.5174C126.885 55.5174 126.342 57.9605 127.835 62.983C129.328 68.0054 135.505 77.1664 135.505 77.1664Z" fill="url(#paint31_linear_85_51)"/>
<path opacity="0.54" d="M134.961 91.6225C134.961 91.6225 139.304 87.0757 140.662 86.8721C142.02 86.6685 141.816 88.5687 140.662 90.0617V88.6365C140.662 88.6365 139.508 91.0796 138.287 91.6225C137.065 92.1654 135.37 92.3012 134.962 92.7762C134.622 93.1834 134.961 91.6225 134.961 91.6225Z" fill="url(#paint32_linear_85_51)"/>
<path d="M112.429 107.911C112.429 107.911 109.239 110.422 109.849 112.322C109.849 112.322 108.627 111.711 109.781 109.607C110.935 107.504 111.817 107.028 111.817 107.028L112.429 107.911Z" fill="#61AD00"/>
<defs>
<linearGradient id="paint0_linear_85_51" x1="118.944" y1="143.169" x2="190.99" y2="143.169" gradientUnits="userSpaceOnUse">
<stop offset="0.482" stop-color="#61AD00"/>
<stop offset="0.655" stop-color="#5C397D"/>
<stop offset="1" stop-color="#F175A8"/>
</linearGradient>
<linearGradient id="paint1_linear_85_51" x1="122.83" y1="84.8786" x2="183.061" y2="84.8786" gradientUnits="userSpaceOnUse">
<stop offset="0.482" stop-color="#31357C"/>
<stop offset="0.655" stop-color="#5C397D"/>
<stop offset="1" stop-color="#F175A8"/>
</linearGradient>
<linearGradient id="paint2_linear_85_51" x1="116.789" y1="79.9489" x2="177" y2="79.9489" gradientUnits="userSpaceOnUse">
<stop offset="0.482" stop-color="#31357C"/>
<stop offset="0.655" stop-color="#5C397D"/>
<stop offset="1" stop-color="#F175A8"/>
</linearGradient>
<linearGradient id="paint3_linear_85_51" x1="157.06" y1="147.036" x2="183.039" y2="147.036" gradientUnits="userSpaceOnUse">
<stop offset="0.097" stop-color="#1D214C"/>
<stop offset="0.42" stop-color="#2D306D"/>
</linearGradient>
<linearGradient id="paint4_linear_85_51" x1="109.789" y1="103.446" x2="109.789" y2="185.891" gradientUnits="userSpaceOnUse">
<stop offset="0.049" stop-color="#61AD00"/>
<stop offset="0.821" stop-color="white"/>
</linearGradient>
<linearGradient id="paint5_linear_85_51" x1="115.025" y1="70.3223" x2="140.39" y2="70.3223" gradientUnits="userSpaceOnUse">
<stop offset="0.562" stop-color="#B63C65"/>
<stop offset="1" stop-color="#342A51" stop-opacity="0"/>
</linearGradient>
<linearGradient id="paint6_linear_85_51" x1="141.967" y1="104.228" x2="150.171" y2="104.228" gradientUnits="userSpaceOnUse">
<stop offset="0.482" stop-color="#31357C"/>
<stop offset="0.655" stop-color="#5C397D"/>
<stop offset="1" stop-color="#F175A8"/>
</linearGradient>
<linearGradient id="paint7_linear_85_51" x1="115.134" y1="103.102" x2="124.654" y2="103.102" gradientUnits="userSpaceOnUse">
<stop offset="0.562" stop-color="#973058"/>
<stop offset="1" stop-color="#342A51" stop-opacity="0"/>
</linearGradient>
<linearGradient id="paint8_linear_85_51" x1="36.417" y1="98.0028" x2="36.417" y2="27.2196" gradientUnits="userSpaceOnUse">
<stop offset="0.337" stop-color="#F78F1E"/>
<stop offset="1" stop-color="#FFC709"/>
</linearGradient>
<linearGradient id="paint9_linear_85_51" x1="124.392" y1="110.814" x2="169.416" y2="110.814" gradientUnits="userSpaceOnUse">
<stop offset="0.097" stop-color="#1D214C"/>
<stop offset="0.42" stop-color="#2D306D"/>
</linearGradient>
<linearGradient id="paint10_linear_85_51" x1="93.8816" y1="110.228" x2="115.126" y2="110.228" gradientUnits="userSpaceOnUse">
<stop offset="0.097" stop-color="#1D214C"/>
<stop offset="0.42" stop-color="#2D306D"/>
</linearGradient>
<linearGradient id="paint11_linear_85_51" x1="36.417" y1="92.8441" x2="36.417" y2="32.3669" gradientUnits="userSpaceOnUse">
<stop offset="0.337" stop-color="#F78F1E"/>
<stop offset="1" stop-color="#FFC709"/>
</linearGradient>
<linearGradient id="paint12_linear_85_51" x1="36.417" y1="87.5332" x2="36.417" y2="37.718" gradientUnits="userSpaceOnUse">
<stop offset="0.049" stop-color="#61AD00"/>
<stop offset="0.821" stop-color="white"/>
</linearGradient>
<linearGradient id="paint13_linear_85_51" x1="22.8422" y1="144.479" x2="22.8422" y2="157.463" gradientUnits="userSpaceOnUse">
<stop offset="0.482" stop-color="#31357C"/>
<stop offset="0.655" stop-color="#5C397D"/>
<stop offset="1" stop-color="#F175A8"/>
</linearGradient>
<linearGradient id="paint14_linear_85_51" x1="22.8356" y1="153.818" x2="22.8356" y2="182.905" gradientUnits="userSpaceOnUse">
<stop offset="0.482" stop-color="#31357C"/>
<stop offset="0.655" stop-color="#5C397D"/>
<stop offset="1" stop-color="#F175A8"/>
</linearGradient>
<linearGradient id="paint15_linear_85_51" x1="22.8432" y1="185.695" x2="22.8432" y2="181.921" gradientUnits="userSpaceOnUse">
<stop offset="0.482" stop-color="#31357C"/>
<stop offset="0.655" stop-color="#5C397D"/>
<stop offset="1" stop-color="#F175A8"/>
</linearGradient>
<linearGradient id="paint16_linear_85_51" x1="91.3324" y1="130.579" x2="91.3324" y2="185.891" gradientUnits="userSpaceOnUse">
<stop offset="0.337" stop-color="#F78F1E"/>
<stop offset="1" stop-color="#FFC709"/>
</linearGradient>
<radialGradient id="paint17_radial_85_51" cx="0" cy="0" r="1" gradientUnits="userSpaceOnUse" gradientTransform="translate(36.4164 62.6218) scale(23.3249)">
<stop stop-color="#61AD00"/>
<stop offset="1" stop-color="#50B8DC"/>
</radialGradient>
<linearGradient id="paint18_linear_85_51" x1="113.827" y1="0.054238" x2="113.827" y2="27.6949" gradientUnits="userSpaceOnUse">
<stop offset="0.266" stop-color="#31357C"/>
<stop offset="0.505" stop-color="#5C397D"/>
<stop offset="1" stop-color="#F175A8"/>
</linearGradient>
<linearGradient id="paint19_linear_85_51" x1="149.191" y1="8.17665" x2="149.191" y2="29.8779" gradientUnits="userSpaceOnUse">
<stop offset="0.266" stop-color="#31357C"/>
<stop offset="0.505" stop-color="#5C397D"/>
<stop offset="1" stop-color="#F175A8"/>
</linearGradient>
<linearGradient id="paint20_linear_85_51" x1="88.0806" y1="17.8142" x2="88.0806" y2="53.4956" gradientUnits="userSpaceOnUse">
<stop offset="0.266" stop-color="#31357C"/>
<stop offset="0.505" stop-color="#5C397D"/>
<stop offset="1" stop-color="#F175A8"/>
</linearGradient>
<linearGradient id="paint21_linear_85_51" x1="132.809" y1="118.211" x2="137.301" y2="118.211" gradientUnits="userSpaceOnUse">
<stop offset="0.337" stop-color="#F78F1E"/>
<stop offset="1" stop-color="#FFC709"/>
</linearGradient>
<linearGradient id="paint22_linear_85_51" x1="100.913" y1="118.957" x2="104.385" y2="118.957" gradientUnits="userSpaceOnUse">
<stop offset="0.337" stop-color="#F78F1E"/>
<stop offset="1" stop-color="#FFC709"/>
</linearGradient>
<linearGradient id="paint23_linear_85_51" x1="111.567" y1="73.2072" x2="117.308" y2="73.2072" gradientUnits="userSpaceOnUse">
<stop stop-color="#1E1241"/>
<stop offset="1" stop-color="#342A51" stop-opacity="0"/>
</linearGradient>
<linearGradient id="paint24_linear_85_51" x1="113.72" y1="84.6849" x2="116.336" y2="84.6849" gradientUnits="userSpaceOnUse">
<stop offset="0.562" stop-color="#B63C65"/>
<stop offset="1" stop-color="#342A51" stop-opacity="0"/>
</linearGradient>
<linearGradient id="paint25_linear_85_51" x1="97.7497" y1="75.9953" x2="103.999" y2="75.9953" gradientUnits="userSpaceOnUse">
<stop stop-color="#1E1241"/>
<stop offset="1" stop-color="#342A51" stop-opacity="0"/>
</linearGradient>
<linearGradient id="paint26_linear_85_51" x1="109.982" y1="48.5961" x2="133.731" y2="48.5961" gradientUnits="userSpaceOnUse">
<stop stop-color="#62C8D4"/>
<stop offset="0.652" stop-color="#342A51"/>
</linearGradient>
<linearGradient id="paint27_linear_85_51" x1="121.009" y1="59.8342" x2="132.382" y2="59.8342" gradientUnits="userSpaceOnUse">
<stop stop-color="#62C8D4"/>
<stop offset="0.652" stop-color="#342A51"/>
</linearGradient>
<linearGradient id="paint28_linear_85_51" x1="137.947" y1="55.1904" x2="165.853" y2="55.1904" gradientUnits="userSpaceOnUse">
<stop stop-color="#62C8D4"/>
<stop offset="0.652" stop-color="#342A51"/>
</linearGradient>
<linearGradient id="paint29_linear_85_51" x1="126.884" y1="40.3098" x2="155.753" y2="40.3098" gradientUnits="userSpaceOnUse">
<stop stop-color="#62C8D4"/>
<stop offset="0.652" stop-color="#342A51"/>
</linearGradient>
<linearGradient id="paint30_linear_85_51" x1="133.575" y1="79.426" x2="161.72" y2="79.426" gradientUnits="userSpaceOnUse">
<stop stop-color="#342A51" stop-opacity="0"/>
<stop offset="0.848" stop-color="#EF4578"/>
</linearGradient>
<linearGradient id="paint31_linear_85_51" x1="126.745" y1="66.3419" x2="135.479" y2="66.3419" gradientUnits="userSpaceOnUse">
<stop stop-color="#342A51" stop-opacity="0"/>
<stop offset="0.848" stop-color="#EF4578"/>
</linearGradient>
<linearGradient id="paint32_linear_85_51" x1="134.804" y1="89.8146" x2="141.578" y2="89.8146" gradientUnits="userSpaceOnUse">
<stop offset="0.488" stop-color="#B63C65"/>
<stop offset="1" stop-color="#342A51" stop-opacity="0"/>
</linearGradient>
</defs>
</svg>
